<mxfile host="app.diagrams.net" modified="2022-06-21T14:49:43.689Z" agent="5.0 (Windows NT 10.0; Win64; x64) AppleWebKit/537.36 (KHTML, like Gecko) Chrome/102.0.0.0 Safari/537.36" etag="tXaYOksCBS3d2qjoNHZQ" version="18.0.7" type="github">
  <diagram id="kRO0kC40BmJgkUcewpKG" name="Page-1">
    <mxGraphModel dx="2171" dy="1051" grid="1" gridSize="10" guides="1" tooltips="1" connect="1" arrows="1" fold="1" page="1" pageScale="1" pageWidth="850" pageHeight="1100" math="0" shadow="0">
      <root>
        <mxCell id="0" />
        <mxCell id="1" parent="0" />
        <mxCell id="-L-Ys_6FJlGtnzZaTf8_-143" value="" style="rounded=0;whiteSpace=wrap;html=1;labelBackgroundColor=default;fontSize=14;dashed=1;fillColor=none;strokeColor=#66CC00;" vertex="1" parent="1">
          <mxGeometry x="943" y="670" width="318" height="298" as="geometry" />
        </mxCell>
        <mxCell id="-L-Ys_6FJlGtnzZaTf8_-142" value="" style="rounded=0;whiteSpace=wrap;html=1;labelBackgroundColor=default;fontSize=14;dashed=1;fillColor=none;strokeColor=#66CC00;" vertex="1" parent="1">
          <mxGeometry x="106" y="670" width="318" height="297" as="geometry" />
        </mxCell>
        <mxCell id="-L-Ys_6FJlGtnzZaTf8_-33" value="" style="rounded=0;whiteSpace=wrap;html=1;labelBackgroundColor=default;fontSize=14;dashed=1;fillColor=none;strokeColor=#66CC00;" vertex="1" parent="1">
          <mxGeometry x="430" y="670" width="318" height="296" as="geometry" />
        </mxCell>
        <mxCell id="-L-Ys_6FJlGtnzZaTf8_-4" value="" style="endArrow=none;html=1;rounded=0;strokeWidth=4;strokeColor=#0066CC;" edge="1" parent="1">
          <mxGeometry width="50" height="50" relative="1" as="geometry">
            <mxPoint x="916" y="658" as="sourcePoint" />
            <mxPoint x="376" y="658.0000000000002" as="targetPoint" />
          </mxGeometry>
        </mxCell>
        <mxCell id="-L-Ys_6FJlGtnzZaTf8_-5" value="" style="endArrow=none;html=1;rounded=0;fontColor=#0066CC;strokeColor=#0066CC;" edge="1" parent="1">
          <mxGeometry width="50" height="50" relative="1" as="geometry">
            <mxPoint x="868" y="860" as="sourcePoint" />
            <mxPoint x="868" y="790" as="targetPoint" />
          </mxGeometry>
        </mxCell>
        <mxCell id="-L-Ys_6FJlGtnzZaTf8_-6" value="" style="ellipse;whiteSpace=wrap;html=1;aspect=fixed;fillColor=none;fontColor=#0066CC;strokeColor=#0066CC;" vertex="1" parent="1">
          <mxGeometry x="848" y="726" width="40" height="40" as="geometry" />
        </mxCell>
        <mxCell id="-L-Ys_6FJlGtnzZaTf8_-7" value="" style="ellipse;whiteSpace=wrap;html=1;aspect=fixed;fillColor=none;fontColor=#0066CC;strokeColor=#0066CC;" vertex="1" parent="1">
          <mxGeometry x="848" y="750" width="40" height="40" as="geometry" />
        </mxCell>
        <mxCell id="-L-Ys_6FJlGtnzZaTf8_-10" value="Программно-технический комплекс" style="rounded=0;whiteSpace=wrap;html=1;fillColor=none;strokeColor=#FF0000;fontSize=14;fontColor=#FF0000;fontStyle=2" vertex="1" parent="1">
          <mxGeometry x="568" y="726" width="140" height="64" as="geometry" />
        </mxCell>
        <mxCell id="-L-Ys_6FJlGtnzZaTf8_-11" value="&lt;span style=&quot;font-size: 19px; font-style: italic;&quot;&gt;P, U, I&lt;/span&gt;" style="rounded=0;whiteSpace=wrap;html=1;fillColor=none;strokeColor=#FF0000;fontColor=#FF0000;" vertex="1" parent="1">
          <mxGeometry x="638" y="817" width="80" height="44" as="geometry" />
        </mxCell>
        <mxCell id="-L-Ys_6FJlGtnzZaTf8_-12" value="Контроллер НЭ" style="rounded=0;whiteSpace=wrap;html=1;fillColor=none;strokeColor=#0066CC;fontColor=#0066CC;" vertex="1" parent="1">
          <mxGeometry x="550" y="817" width="80" height="44" as="geometry" />
        </mxCell>
        <mxCell id="-L-Ys_6FJlGtnzZaTf8_-13" value="АКБ" style="rounded=0;whiteSpace=wrap;html=1;fillColor=none;direction=south;strokeColor=#66CC00;labelBackgroundColor=default;fontColor=#66CC00;" vertex="1" parent="1">
          <mxGeometry x="448" y="790" width="44" height="80" as="geometry" />
        </mxCell>
        <mxCell id="-L-Ys_6FJlGtnzZaTf8_-14" value="АКБ" style="rounded=0;whiteSpace=wrap;html=1;fillColor=none;direction=south;strokeColor=#66CC00;labelBackgroundColor=default;fontColor=#66CC00;" vertex="1" parent="1">
          <mxGeometry x="498" y="790" width="44" height="80" as="geometry" />
        </mxCell>
        <mxCell id="-L-Ys_6FJlGtnzZaTf8_-15" value="Инвертор" style="rounded=0;whiteSpace=wrap;html=1;fillColor=none;" vertex="1" parent="1">
          <mxGeometry x="545" y="900" width="88" height="40" as="geometry" />
        </mxCell>
        <mxCell id="-L-Ys_6FJlGtnzZaTf8_-16" value="P, U, I" style="rounded=0;whiteSpace=wrap;html=1;fillColor=none;fontSize=19;fontStyle=2;strokeColor=#FF0000;fontColor=#FF0000;" vertex="1" parent="1">
          <mxGeometry x="768" y="800" width="80" height="40" as="geometry" />
        </mxCell>
        <mxCell id="-L-Ys_6FJlGtnzZaTf8_-18" value="" style="endArrow=none;html=1;rounded=0;fontSize=19;fontColor=#0066CC;" edge="1" parent="1">
          <mxGeometry width="50" height="50" relative="1" as="geometry">
            <mxPoint x="808" y="920" as="sourcePoint" />
            <mxPoint x="808" y="860" as="targetPoint" />
          </mxGeometry>
        </mxCell>
        <mxCell id="-L-Ys_6FJlGtnzZaTf8_-19" value="" style="endArrow=none;html=1;rounded=0;fontSize=19;exitX=1;exitY=0.5;exitDx=0;exitDy=0;fontColor=#0066CC;" edge="1" parent="1" source="-L-Ys_6FJlGtnzZaTf8_-15">
          <mxGeometry width="50" height="50" relative="1" as="geometry">
            <mxPoint x="708.0000000000002" y="960" as="sourcePoint" />
            <mxPoint x="808" y="920" as="targetPoint" />
          </mxGeometry>
        </mxCell>
        <mxCell id="-L-Ys_6FJlGtnzZaTf8_-20" value="" style="endArrow=none;html=1;rounded=0;fontSize=19;entryX=0;entryY=0.5;entryDx=0;entryDy=0;" edge="1" parent="1" target="-L-Ys_6FJlGtnzZaTf8_-15">
          <mxGeometry width="50" height="50" relative="1" as="geometry">
            <mxPoint x="468" y="920" as="sourcePoint" />
            <mxPoint x="518" y="940" as="targetPoint" />
          </mxGeometry>
        </mxCell>
        <mxCell id="-L-Ys_6FJlGtnzZaTf8_-21" value="" style="endArrow=none;html=1;rounded=0;fontSize=19;entryX=0.106;entryY=0.652;entryDx=0;entryDy=0;entryPerimeter=0;strokeWidth=1;strokeColor=#66CC00;endFill=0;startArrow=open;startFill=0;" edge="1" parent="1" target="-L-Ys_6FJlGtnzZaTf8_-114">
          <mxGeometry width="50" height="50" relative="1" as="geometry">
            <mxPoint x="220" y="714" as="sourcePoint" />
            <mxPoint x="270" y="664" as="targetPoint" />
          </mxGeometry>
        </mxCell>
        <mxCell id="-L-Ys_6FJlGtnzZaTf8_-22" value="" style="endArrow=none;html=1;rounded=0;fontSize=19;entryX=1;entryY=0.5;entryDx=0;entryDy=0;" edge="1" parent="1" target="-L-Ys_6FJlGtnzZaTf8_-13">
          <mxGeometry width="50" height="50" relative="1" as="geometry">
            <mxPoint x="470" y="920" as="sourcePoint" />
            <mxPoint x="518" y="870" as="targetPoint" />
          </mxGeometry>
        </mxCell>
        <mxCell id="-L-Ys_6FJlGtnzZaTf8_-23" value="" style="endArrow=none;html=1;rounded=0;fontSize=19;entryX=0;entryY=0;entryDx=0;entryDy=0;exitX=1;exitY=0.5;exitDx=0;exitDy=0;endFill=0;startArrow=open;startFill=0;fillColor=#fa6800;strokeColor=#FF8000;" edge="1" parent="1" source="-L-Ys_6FJlGtnzZaTf8_-10" target="-L-Ys_6FJlGtnzZaTf8_-16">
          <mxGeometry width="50" height="50" relative="1" as="geometry">
            <mxPoint x="728" y="860" as="sourcePoint" />
            <mxPoint x="778" y="810" as="targetPoint" />
          </mxGeometry>
        </mxCell>
        <mxCell id="-L-Ys_6FJlGtnzZaTf8_-24" value="" style="endArrow=open;html=1;rounded=0;fontSize=19;entryX=1;entryY=0.5;entryDx=0;entryDy=0;startArrow=none;startFill=0;fillColor=#fa6800;strokeColor=#FF8000;endFill=0;" edge="1" parent="1" target="-L-Ys_6FJlGtnzZaTf8_-16">
          <mxGeometry width="50" height="50" relative="1" as="geometry">
            <mxPoint x="868" y="840" as="sourcePoint" />
            <mxPoint x="778" y="810" as="targetPoint" />
          </mxGeometry>
        </mxCell>
        <mxCell id="-L-Ys_6FJlGtnzZaTf8_-26" value="" style="endArrow=open;html=1;rounded=0;fontSize=19;exitX=0.49;exitY=0.009;exitDx=0;exitDy=0;entryX=0.153;entryY=1;entryDx=0;entryDy=0;exitPerimeter=0;entryPerimeter=0;endFill=0;startArrow=open;startFill=0;fillColor=#e51400;strokeColor=#FF0000;" edge="1" parent="1" source="-L-Ys_6FJlGtnzZaTf8_-12" target="-L-Ys_6FJlGtnzZaTf8_-10">
          <mxGeometry width="50" height="50" relative="1" as="geometry">
            <mxPoint x="688" y="860" as="sourcePoint" />
            <mxPoint x="738" y="810" as="targetPoint" />
          </mxGeometry>
        </mxCell>
        <mxCell id="-L-Ys_6FJlGtnzZaTf8_-27" value="" style="endArrow=open;html=1;rounded=0;fontSize=19;exitX=0.47;exitY=0.013;exitDx=0;exitDy=0;exitPerimeter=0;entryX=0.769;entryY=0.995;entryDx=0;entryDy=0;entryPerimeter=0;endFill=0;fillColor=#e51400;strokeColor=#FF8000;" edge="1" parent="1" source="-L-Ys_6FJlGtnzZaTf8_-11" target="-L-Ys_6FJlGtnzZaTf8_-10">
          <mxGeometry width="50" height="50" relative="1" as="geometry">
            <mxPoint x="668" y="830" as="sourcePoint" />
            <mxPoint x="718" y="780" as="targetPoint" />
          </mxGeometry>
        </mxCell>
        <mxCell id="-L-Ys_6FJlGtnzZaTf8_-28" value="" style="endArrow=open;html=1;rounded=0;fontSize=19;exitX=0.5;exitY=0;exitDx=0;exitDy=0;entryX=0.486;entryY=1.013;entryDx=0;entryDy=0;entryPerimeter=0;endFill=0;strokeColor=#0066CC;" edge="1" parent="1" source="-L-Ys_6FJlGtnzZaTf8_-15" target="-L-Ys_6FJlGtnzZaTf8_-12">
          <mxGeometry width="50" height="50" relative="1" as="geometry">
            <mxPoint x="678" y="850" as="sourcePoint" />
            <mxPoint x="728" y="800" as="targetPoint" />
          </mxGeometry>
        </mxCell>
        <mxCell id="-L-Ys_6FJlGtnzZaTf8_-29" value="" style="endArrow=none;html=1;rounded=0;fontSize=19;exitX=0.5;exitY=1;exitDx=0;exitDy=0;endFill=0;fillColor=#fa6800;strokeColor=#FF8000;startArrow=open;startFill=0;" edge="1" parent="1" source="-L-Ys_6FJlGtnzZaTf8_-11">
          <mxGeometry width="50" height="50" relative="1" as="geometry">
            <mxPoint x="708" y="860" as="sourcePoint" />
            <mxPoint x="678" y="920" as="targetPoint" />
          </mxGeometry>
        </mxCell>
        <mxCell id="-L-Ys_6FJlGtnzZaTf8_-30" value="" style="endArrow=none;html=1;rounded=0;fontSize=19;exitX=0.613;exitY=0.001;exitDx=0;exitDy=0;exitPerimeter=0;entryX=0;entryY=0.5;entryDx=0;entryDy=0;strokeColor=#0066CC;" edge="1" parent="1" source="-L-Ys_6FJlGtnzZaTf8_-14" target="-L-Ys_6FJlGtnzZaTf8_-12">
          <mxGeometry width="50" height="50" relative="1" as="geometry">
            <mxPoint x="698" y="880" as="sourcePoint" />
            <mxPoint x="748" y="830" as="targetPoint" />
          </mxGeometry>
        </mxCell>
        <mxCell id="-L-Ys_6FJlGtnzZaTf8_-32" value="" style="endArrow=none;html=1;rounded=0;fontSize=19;exitX=0.599;exitY=0.001;exitDx=0;exitDy=0;exitPerimeter=0;entryX=0.598;entryY=0.994;entryDx=0;entryDy=0;entryPerimeter=0;strokeColor=#0066CC;" edge="1" parent="1" source="-L-Ys_6FJlGtnzZaTf8_-13" target="-L-Ys_6FJlGtnzZaTf8_-14">
          <mxGeometry width="50" height="50" relative="1" as="geometry">
            <mxPoint x="548" y="870" as="sourcePoint" />
            <mxPoint x="598" y="820" as="targetPoint" />
          </mxGeometry>
        </mxCell>
        <mxCell id="-L-Ys_6FJlGtnzZaTf8_-37" value="" style="endArrow=none;html=1;rounded=0;fontSize=19;endFill=0;startArrow=open;startFill=0;fontColor=#0066CC;strokeColor=#0066CC;" edge="1" parent="1">
          <mxGeometry width="50" height="50" relative="1" as="geometry">
            <mxPoint x="917.9999999999999" y="920" as="sourcePoint" />
            <mxPoint x="917.9999999999999" y="860" as="targetPoint" />
          </mxGeometry>
        </mxCell>
        <mxCell id="-L-Ys_6FJlGtnzZaTf8_-39" value="0,4 кВ" style="text;html=1;strokeColor=none;fillColor=none;align=center;verticalAlign=middle;whiteSpace=wrap;rounded=0;dashed=1;labelBackgroundColor=default;fontSize=14;fontColor=#0066CC;" vertex="1" parent="1">
          <mxGeometry x="678" y="920" width="60" height="30" as="geometry" />
        </mxCell>
        <mxCell id="-L-Ys_6FJlGtnzZaTf8_-40" value="Modbus" style="text;html=1;strokeColor=none;fillColor=none;align=center;verticalAlign=middle;whiteSpace=wrap;rounded=0;dashed=1;labelBackgroundColor=default;fontSize=14;fontColor=#33001A;" vertex="1" parent="1">
          <mxGeometry x="768" y="766" width="60" height="30" as="geometry" />
        </mxCell>
        <mxCell id="-L-Ys_6FJlGtnzZaTf8_-41" value="Modbus" style="text;html=1;strokeColor=none;fillColor=none;align=center;verticalAlign=middle;whiteSpace=wrap;rounded=0;dashed=1;labelBackgroundColor=default;fontSize=14;fontColor=#33001A;" vertex="1" parent="1">
          <mxGeometry x="608" y="787" width="60" height="30" as="geometry" />
        </mxCell>
        <mxCell id="-L-Ys_6FJlGtnzZaTf8_-42" value="Управление СНЭЭ" style="text;html=1;strokeColor=none;fillColor=none;align=center;verticalAlign=middle;whiteSpace=wrap;rounded=0;dashed=1;labelBackgroundColor=default;fontSize=14;fontColor=#33001A;fontStyle=1" vertex="1" parent="1">
          <mxGeometry x="430" y="670" width="140" height="30" as="geometry" />
        </mxCell>
        <mxCell id="-L-Ys_6FJlGtnzZaTf8_-44" value="Ф1" style="text;html=1;strokeColor=none;fillColor=none;align=center;verticalAlign=middle;whiteSpace=wrap;rounded=0;dashed=1;labelBackgroundColor=default;fontSize=14;fontColor=#33001A;" vertex="1" parent="1">
          <mxGeometry x="826" y="913" width="60" height="30" as="geometry" />
        </mxCell>
        <mxCell id="-L-Ys_6FJlGtnzZaTf8_-45" value="Ф2" style="text;html=1;strokeColor=none;fillColor=none;align=center;verticalAlign=middle;whiteSpace=wrap;rounded=0;dashed=1;labelBackgroundColor=default;fontSize=14;fontColor=#33001A;" vertex="1" parent="1">
          <mxGeometry x="856" y="913" width="60" height="30" as="geometry" />
        </mxCell>
        <mxCell id="-L-Ys_6FJlGtnzZaTf8_-46" value="Ф3" style="text;html=1;strokeColor=none;fillColor=none;align=center;verticalAlign=middle;whiteSpace=wrap;rounded=0;dashed=1;labelBackgroundColor=default;fontSize=14;fontColor=#33001A;" vertex="1" parent="1">
          <mxGeometry x="886" y="913" width="60" height="30" as="geometry" />
        </mxCell>
        <mxCell id="-L-Ys_6FJlGtnzZaTf8_-50" value="" style="endArrow=none;html=1;rounded=0;fontSize=19;exitX=1;exitY=0.5;exitDx=0;exitDy=0;fontColor=#0066CC;strokeColor=#0066CC;" edge="1" parent="1">
          <mxGeometry width="50" height="50" relative="1" as="geometry">
            <mxPoint x="633" y="921" as="sourcePoint" />
            <mxPoint x="808" y="921" as="targetPoint" />
          </mxGeometry>
        </mxCell>
        <mxCell id="-L-Ys_6FJlGtnzZaTf8_-51" value="" style="endArrow=none;html=1;rounded=0;fontSize=19;fontColor=#0066CC;strokeColor=#0066CC;" edge="1" parent="1">
          <mxGeometry width="50" height="50" relative="1" as="geometry">
            <mxPoint x="808" y="921" as="sourcePoint" />
            <mxPoint x="808" y="861" as="targetPoint" />
          </mxGeometry>
        </mxCell>
        <mxCell id="-L-Ys_6FJlGtnzZaTf8_-52" value="" style="endArrow=none;html=1;rounded=0;strokeWidth=3;fontColor=#0066CC;strokeColor=#0066CC;" edge="1" parent="1">
          <mxGeometry width="50" height="50" relative="1" as="geometry">
            <mxPoint x="803" y="860.84" as="sourcePoint" />
            <mxPoint x="933" y="860.84" as="targetPoint" />
          </mxGeometry>
        </mxCell>
        <mxCell id="-L-Ys_6FJlGtnzZaTf8_-53" value="" style="endArrow=none;html=1;rounded=0;fontSize=19;endFill=0;startArrow=open;startFill=0;fontColor=#0066CC;strokeColor=#0066CC;" edge="1" parent="1">
          <mxGeometry width="50" height="50" relative="1" as="geometry">
            <mxPoint x="856" y="921" as="sourcePoint" />
            <mxPoint x="856" y="861" as="targetPoint" />
          </mxGeometry>
        </mxCell>
        <mxCell id="-L-Ys_6FJlGtnzZaTf8_-54" value="" style="endArrow=none;html=1;rounded=0;fontSize=19;endFill=0;startArrow=open;startFill=0;fontColor=#0066CC;strokeColor=#0066CC;" edge="1" parent="1">
          <mxGeometry width="50" height="50" relative="1" as="geometry">
            <mxPoint x="887.5999999999999" y="921" as="sourcePoint" />
            <mxPoint x="887.5999999999999" y="861" as="targetPoint" />
          </mxGeometry>
        </mxCell>
        <mxCell id="-L-Ys_6FJlGtnzZaTf8_-55" value="" style="endArrow=none;html=1;rounded=0;fontColor=#0066CC;strokeColor=#0066CC;" edge="1" parent="1">
          <mxGeometry width="50" height="50" relative="1" as="geometry">
            <mxPoint x="1015" y="860" as="sourcePoint" />
            <mxPoint x="1015" y="790" as="targetPoint" />
          </mxGeometry>
        </mxCell>
        <mxCell id="-L-Ys_6FJlGtnzZaTf8_-56" value="" style="ellipse;whiteSpace=wrap;html=1;aspect=fixed;fillColor=none;fontColor=#0066CC;strokeColor=#0066CC;" vertex="1" parent="1">
          <mxGeometry x="995" y="726" width="40" height="40" as="geometry" />
        </mxCell>
        <mxCell id="-L-Ys_6FJlGtnzZaTf8_-57" value="" style="ellipse;whiteSpace=wrap;html=1;aspect=fixed;fillColor=none;fontColor=#0066CC;strokeColor=#0066CC;" vertex="1" parent="1">
          <mxGeometry x="995" y="750" width="40" height="40" as="geometry" />
        </mxCell>
        <mxCell id="-L-Ys_6FJlGtnzZaTf8_-60" value="" style="endArrow=none;html=1;rounded=0;fontSize=19;endFill=0;startArrow=open;startFill=0;fontColor=#0066CC;strokeColor=#0066CC;" edge="1" parent="1">
          <mxGeometry width="50" height="50" relative="1" as="geometry">
            <mxPoint x="1024" y="920" as="sourcePoint" />
            <mxPoint x="1024" y="860" as="targetPoint" />
          </mxGeometry>
        </mxCell>
        <mxCell id="-L-Ys_6FJlGtnzZaTf8_-61" value="Ф1" style="text;html=1;strokeColor=none;fillColor=none;align=center;verticalAlign=middle;whiteSpace=wrap;rounded=0;dashed=1;labelBackgroundColor=default;fontSize=14;fontColor=#33001A;" vertex="1" parent="1">
          <mxGeometry x="950" y="913" width="20" height="30" as="geometry" />
        </mxCell>
        <mxCell id="-L-Ys_6FJlGtnzZaTf8_-62" value="Ф2" style="text;html=1;strokeColor=none;fillColor=none;align=center;verticalAlign=middle;whiteSpace=wrap;rounded=0;dashed=1;labelBackgroundColor=default;fontSize=14;fontColor=#33001A;" vertex="1" parent="1">
          <mxGeometry x="965" y="913" width="60" height="30" as="geometry" />
        </mxCell>
        <mxCell id="-L-Ys_6FJlGtnzZaTf8_-63" value="Ф3" style="text;html=1;strokeColor=none;fillColor=none;align=center;verticalAlign=middle;whiteSpace=wrap;rounded=0;dashed=1;labelBackgroundColor=default;fontSize=14;fontColor=#33001A;" vertex="1" parent="1">
          <mxGeometry x="1006" y="913" width="35" height="30" as="geometry" />
        </mxCell>
        <mxCell id="-L-Ys_6FJlGtnzZaTf8_-65" value="" style="endArrow=none;html=1;rounded=0;strokeWidth=3;fontColor=#0066CC;strokeColor=#0066CC;" edge="1" parent="1">
          <mxGeometry width="50" height="50" relative="1" as="geometry">
            <mxPoint x="950" y="860.8400000000004" as="sourcePoint" />
            <mxPoint x="1222" y="860" as="targetPoint" />
          </mxGeometry>
        </mxCell>
        <mxCell id="-L-Ys_6FJlGtnzZaTf8_-66" value="" style="endArrow=none;html=1;rounded=0;fontSize=19;endFill=0;startArrow=open;startFill=0;fontColor=#0066CC;strokeColor=#0066CC;" edge="1" parent="1">
          <mxGeometry width="50" height="50" relative="1" as="geometry">
            <mxPoint x="962" y="921" as="sourcePoint" />
            <mxPoint x="962" y="861" as="targetPoint" />
          </mxGeometry>
        </mxCell>
        <mxCell id="-L-Ys_6FJlGtnzZaTf8_-67" value="" style="endArrow=none;html=1;rounded=0;fontSize=19;endFill=0;startArrow=open;startFill=0;fontColor=#0066CC;strokeColor=#0066CC;" edge="1" parent="1">
          <mxGeometry width="50" height="50" relative="1" as="geometry">
            <mxPoint x="993.5999999999999" y="921" as="sourcePoint" />
            <mxPoint x="993.5999999999999" y="861" as="targetPoint" />
          </mxGeometry>
        </mxCell>
        <mxCell id="-L-Ys_6FJlGtnzZaTf8_-68" value="Программно-технический комплекс" style="rounded=0;whiteSpace=wrap;html=1;fillColor=none;strokeColor=#FF0000;fontSize=14;fontColor=#FF0000;fontStyle=2" vertex="1" parent="1">
          <mxGeometry x="1084" y="732" width="140" height="64" as="geometry" />
        </mxCell>
        <mxCell id="-L-Ys_6FJlGtnzZaTf8_-73" value="" style="shape=image;verticalLabelPosition=bottom;labelBackgroundColor=default;verticalAlign=top;aspect=fixed;imageAspect=0;image=data:image/png,iVBORw0KGgoAAAANSUhEUgAAA8AAAAJYCAYAAACtlI8BAAAgAElEQVR4nOzdd5hc13nn+e+5FTsH5JwzQAJgJsEsUrIpUdGSbaWRJY/lMA7rsXf/2PDszrM7ux7bM7bXOx7LliV7ZMmyJVuWZYoSKWZSTCJBEQQpJjATIEAQsbsr3LN/vLfQhUajuxrdVffe6t+HTz1VXV3ddcDurrrvfcMBEREREREREREREREREREREREREREREREREREREREREREREREREREREREREREREREREREREREREREREREREREREREREREREREREREREREREREREREREREREREREREREREREREREREREREREREREREREREREREREREREREREREREREREREREREREREREREREREREREREREREREREREREREREREREREREREREREREREREREREREREREREREREREREREREREREREREREREREREREREREREREREREREREREREREREREREREREREREREREREREREREREREREREREREREREREREREREREREREREREREREREREREREREREREREREREREREREREREREREREREREREREREREREREREREREREREREREREREREREREREREREREREREREREREREREREREREUkpF/cCZHL/6f6r416CiCRNfhj/zMX4VzZBbiTu1YjI2QVABshGt2sfZ4BOYE506Qf6gB6gt+52J9ARXXcC3UA++n7F6DoXXTeiCgwDZWAkupSj+04Ax6Pr2u1jwFHgHeBIdDkMvA0MRd+vCoTRpRJ97Bv+PyTSRv7H3/6tuJcgk2j0xVJEREREGuOwALcWyPZhgWstuO2OLl119/VwZqBbjC75uusOLOANZmCdHgt+y1jgOowFtSN1t09iwfBJLCA+iQXEteD4RHR9PLq/FiwfjR4bomBYRBJEAbCIiIjIuclhwWoPowFtFxbwLgAWAvOBeViWd250PRg9Pm4OC6rz0cd9U/z6EAt2DwMHgUPAW8B+4EB0OYRljeuzy7VAujq95YuITJ0CYBEREZGJOaAQXWpZ2AXACmBZdFkBLI3u72G0LDnDaNlzu7WeBVgwPwiswQLiWjl0JbouYwHya8DLwKvR7X3RxweBUt1lBGWMRaSJFACLiIiIjAoYDV5zWLC7Jrqsja6XYtnSTizjWytbzsWw3iSp9TiDnSyoqQXItT7j+n7jd4CXgBexoPj56PoEo6XZZRQUi8gMUQAsIiIiYpnd+cBqYCWwHMvsLmR0UFWtlFnOTa2neawyNlSrVkr9FvAm8AoWGL8IvBA9RmXTIjItCoBFRERkNioAS7AgdykW9NYuS6NLEvp0Z4McVjq+YMz9R7Ay6drlRSwofg14Pbpdat0yRaQdKAAWERGR2aCX0UzuAqyceQuwObo9Bx0XJU0fsC26gGWK3wJ+AjwD7Imu9zM6gEv7wonIhPRCLyIiIu0ohwW9vVg2dyewHQumFmK9vbWLpEMOWAwsAi7Gtmk6jvUQPw48BjyJTZ+u7V+skmkROY0CYBEREWkXtWnNi7Fg9yJgBzahuR/LKCrgTT/H6OCxOdjPdwfwIayP+HlgN/AI8ATWT6xSaREBFACLiIhI+vUBW6PLFkYnNS8DBmJcl7ROT3RZimX5r8T6hl/DBmjtBn4EPIWCYZFZTQGwiIiIpNFSYCOwLrpej/XzLkbHNzLa770D6x1+GcsGP431DT8H7MUmS4vILKI3CBEREUmDAJvavBjbqmgncAUW/HZixzSZ2FYnSZbDqgJWAO/B+oYfBe7HeodrmeKDcS1QRFpHAbCIiIgkVRbowjJ5W4FrsNLWtVivbxHrBxVpRDa6dAA3AFdhWy3tAe4E7sOyw0eBk4CPZZUi0lQKgEVERCSJ5gIXAtcCl2Alz3Oxfl+R6cowOkhrAXA+8PPYAK37gduwwHgorgWKSHMoABYREZEkCLCs7vlYafN2rL93HTAY47qk/QXAvOiyESuvvxHbb/hR4IHodhllhUVSTwGwiIiIxCmH9Waej5U57wQuBebHuSiZtWq95kuwkvsXgIewQHgPo9sqhTGtT0SmSQGwiIiIxGEQWI5Nbr4KeBc2qEgkKRz2O7kG+Bks+P0+ViL9NPAq1issIimiAFhERERaJYvt1boaeDfw01jJaS+WCRZJqixWnbAJ+CRWFv0vWDD8BnAsvqWJyFQoABYREZFmy2OB7yXAe7HhVitQmbOkT0d0uRkLiF8E7gZuwbLCJ4BqbKsTkUkpABYREZFmcdj05muAqxnt8y3GuCaRmZADVkWX87Df8Uew7ZTuBw7HtTARmZgCYBEREWmGDcDF2ETna4H18S5HpGnmYgHwVdH1D7AS6YeB12JblYiMSwGwiIiIzJQslhG7AOvvvQHbY9XFuSiRFgmw8v6d2H7CtwDfBfYC++JblojUUwAsIiIi01UAFmHbF30U6/WdE90vMtsE2P7VS7Be4TuBrwO7gQNAJbaViYgCYBERETlnDliMbWH0QazHdxmQiXNRIgnRCawEPgZcjpVFfxO4CzgS37JEZjcFwCIiInIuFjJa5nwR2sNX5Gw6sB74NdjArPux0ug7sKnRItJCCoBFRERkKpZg2awbsOFWa1CPr0gjMsAOYAt20uhSLAh+CO0jLNIyCoBFRESkEfOxA/efAj6A7eObj3VFIumUxwLgrdiJpK9jfcJPAUPxLUtkdlAALCIiIhOplW9+EPgwlvHtiHVFIunnsB7hi4CNwHuBrwK3Aq8AYXxLE2lvCoBFRETkbFZjU51vwvb1nRfvckTajgN6gSuxE03vwzLC3wHejnFdIm1LAbCIiIjUc1i583uwcudd2BZHQZyLEmlzGWyi+gJgLRYQ/wtwO3AS8PEtTaS9KAAWERGRmn5sD98bsJLM9WjAlUgrZbCS6HXANqzv/g7gR0ApxnWJtA0FwCIiIlLAyp3fA3wcuCDe5YjMehlsSvQOrArja8DdwMsoGywyLQqARUREZrc5wHXAp7Gyy954lyMidQrAu7H9g28Bvgw8jvYPFjlnCoBFRERmpyK2DctngHdh050zsa5IRMaTAZYCP4eVRf8T8A/APqAa37JE0kkBsIiIyOyzBLgZ+AhwGdrWSCQNurGy6OXA+VhZ9O0oGywyJQqARUREZo88cDm2n+/7gWXxLkcmUAZG6i6l6Ho4+lwpuvbRpQpUoq8No9shlj3MYcPMfN3HmbrbeazUNh9dithJkQI6VkyixVg2eHN0+RawN9YViaSIXtRERERmh8XYtka/AFyMjgHiUgGGsEC2FtjWbg8Bx4FDwJHo9kksw3ci+vhE9PiT0ePD6PvWAubac5SxoLgW4AZYAJzDAtxcdCkAnUBX3XU31gveg00G74/urwXFtUsHo8GytslqvfOx4XUXAF8C7gPeiXNBImmgNz8REZH2VsAOlD8JfBArf5bmqjKasS0xGuQeAl4FXgMORB+/DRwE3sKC2hIWwFai7xOOc127Pd1pwA4LXAMsG1x/nWU0S5zFguUeYBCYC8zD9otegJ1cWQQMYAFxLZtciD6W5ukBPoD1838F+CrwfKwrEkk4BcAiIiLtqw/4EBb8XoRl9mTm1cqQj2PB7UtYoPs68EZ038Ho80NYoFufAS63fsnAaOl0dYprqGWOi9GlE8sCd2KB8TLsRMsSrF91BRYsF7HgWntLz6wstnfwb2LTor+AbZk0MtEXicxWCoBFRETa0zZGs75rY15LOzqABbavAq8wmtl9i9HM7jvAUSzIbSfl6HL8LJ8vMlo6XcsYz8WC4GVYQLw8uvQ1e7GzyBxssN1K4O+xIVmvxLkgkSRSACwiItJeeoAbgJ8Hbow+lumpZXZfw7K6r2MBby3ofRkLeNst0D1Xw8Cb0aVeHguElzGaGV6KZYoXRZfFqGx6OhxW7bEcWAf8NfAA2i5J5BQFwCIiIu1jFZbx/RyW9c3Fu5zUehs4HF32A88CTwJ7gOewAK/Wo1th+r24s0WJ0bLwH2HHoVksC7wxumzAArf5WPZ4EJ3EORcLsAqQFcAXgTuwqgWRWU8BsIiISPplge3A57EAeDDe5aRObauhw1iw+xiwG3gKC9iGGB1qpWB3+jyjZdQAx7Cg+D4sS9yBnczZhg1w246V9fYwOmBLJlcErscmRX8F+BvgBfQ7LLOcAmAREZF0q02B/QXgUlQ+OhUngKexbOTjWMD7Jta7+w6W6ZXWqGInGoawLaDeBJ4AbsG2ZFoEbMG2/LkQC+oKsaw0XTJYNcgvYxn2PwPuQkGwzGIKgEVERNLJYQe2Hwd+BtiEputOpor17NaC3eexic2vAPtQhjdpavsfg/28HgJux7LBK7By6W3RZRD9/k9kPjYRfj7wZeDbWKm/yKyjAFhERCR9sli2tzbleV68y0m0KhbcPoeVfz6JBcB7sAnNoKA3DTz286r1YoMNzDovuqzDTgitw7LFCobPlAOuxoLgRcA3sL8L/f7LrKIAWEREJF16gWuAXwWuQ+/l4xnBBv7sx0qcHwTuAfaiSc3toBaw1SZz34K1ApwP7MJODq3CBkHNQX8j9QKslPx3sTLyLwKPYMPcRGYFvSCIiIikx0Lgw4z282XiXU6ihMBJbA/eh4HvRdevYtsYqZ+3vR0D7sX6ub+IBXdXYUOgzsNOHHWgzHDNAPApYA3wx8Ct6G9EZgkFwCIiIsnnsID3U8DPYj2QYkawPtHd2FYvD2J9va9jQZHMLiejywHgGeBfsX7hy7FgeCMWCGuStA0Ruw7Lki8B/g47gSTS1hQAi4iIJJsDLgP+LXATMDfe5STGCBbg3A88ipU3P4VtZSQCo3s5P4lVA9yOZYN3Yn9Tq1AVBVjp+O9ifcF/hfXKi7QtBcAiIiLJlQPeBfx6dK33bXgL2x7nMSzbey+2ZY7IRA4AP4gu67GM8OXYBOmtQHd8S0uEFdjrzHzgC1hfsEhb0hupiIhIMnUD7wN+B9gR81riVtu+6DksgLkFmwQ8EueiJLV+El3+EdtT+CZGM8ILYlxX3HqBT2P/D/4EO7mkvzFpOwqARUREkmcQ29/317Bs1Wx1Etur9BHgW8B92GTnoxN9kUiDjmAnVB7HtlS6AXg/9jc3l9l5nFwA3ov9+/8YO9mkXnppK7PxD1tERCTJlgK/CPxCdHs28tggq+9ifZtPAC+jKbUy8zw2+OkQ9jt3G3ABVn1xJbOz5z4DXIFlhOcAf4NNUhdpCwqARUREkmMTtsXRJ4H+mNcSl71Y0HsXNtzqxXiXI7PIUexkyx6s6uAi4GpsUvJsPBm1Dfj3WDvGF9GEaGkTCoBFRESS4VLg88CHgJ6Y1xKHPcBDWAbuNmxokUgcqsCPsd/Ju4B7sCD4ImBtjOuKw2rgN7Eg+AvYvtoiqaYAWEREJF5ZYBd2kPluoBjvclqqjG25shv4JnAntm1NKcY1idSEwPNY0Hcr8NNYf+w2bGrybLEYmxBdAP4CG0YnkloKgEVEROKTx7Y3+i2s1DIX73JaxmMZ3juAr2HbGb2NAl9JphHgFeCvge9jJ6o+gu0nPFtaFfqxCpU+4L9ge3CLpJICYBERkXhkgQ8Dv4JtwZKJdzktcxQrcf57LPB9DQW+kg5DWMXCf8e2CLoGC4SvYHb8/fZh0+m7gT/ApmeLpI4CYBERkdbrxA6cfw2bOBvEu5yWOIn1U34fy/zuwUqgRdLmGNYj/ALwJHAV8FNYj3C7/y33YK9deWyv4PuxUnGR1FAALCIi0lr92KCrXwfOA1y8y2m6YSxTdBe2p+j9KPCV9nAC61t/GOtjvwnbOmkN7X2MXQRuxlo2csDd2OAwkVRo5z9OERGRpOkGfgb4bWBDzGtptgpW3lzr870bKyEVaSce2yP3n7CTPDcBP4tlg+fRvie4ithAsCJW/n0XOrElKaEAWEREpDW6gE8D/472D35PAD8EvoSVPL+FyiSl/R0Gvgo8gGVIPw5soX0nu+eA9wAd0eV72MAwkURTACwiItJ83cBnsZ7fdt5HtIRtkfJV4LtYn6QOiBsVZsAnOGEYhOB0HmMSVWzrpL8AHgE+gGWE59Oex90OGwbmsP7nW7G2B5HEasc/RBERkSTpBT4D/AawKua1NNObWND7bazs+XC8y0kY76A60WGXww28CUFCWymDEH9sAIZ6xg+CHZBRBWydY8A92KCsH2OB8HXYEKl2tAv7LfDY64Amu0tiKQAWERFpnk7gk8D/ACyPeS3NUsIyXd8EvgHsi3U1sfBQzZ89e+sDKJzAzX8ZqmfZLSfM4DbfD7lhEtk2mi3By5th/0q7PZYP8AdWgPNn/x7eQbY827LIr2GtAE8Ce7G+2a1xLqhJMtg07FoQrHJoSSwFwCIiIs3RBXwCG3jVrsHvG9iB7hex6c6VeJfTBN5BJT/xY8IsbsGLUDg5fhAcZqD3EG7V7gm+l4dyEUod015yU4x02L9x8bOMG6CHGXh6kuA2U7Eg+WxZ5JogtCA7yeXgU/cI8Cw2Ef3fAJcAA3EuqEmujK5D7LVBZQGSOAqARUREZl4H1vf372nPsucRLJv1l8C3gFfiXc40OQ/lAoTjbOGaLeNWPTH+52qqOdzKH0PHMcv2nsFbgHiib+IMaZI5D9WcXcblcZvvZcLsdbaE6z6MPzZ49lLvIMSf6IPX10Km/nyKg+yIBcfpdQSbFv0EVhnyUez1od32Dr4SG4Q3grVDJLSuX2YrBcAiIiIzKw98BMv8tuPAq8NYn++XsP1Pj8e6mnNRC+bKObtdycGyvbied04PdL2zoG3FnrMEtqceaAH0SOfkz9u23OTZ65EOWPgCbvFzE3ybEHeiD99xzMqla7Jl/Cub4NjAmcFzPlUzl2onj/4I2zv4F4BrsYnK7eQ6rCJkGLgPK4sWSQQFwCIiIjMnA3wYC343xbyWZngU+Hssi/VMzGuZGu+sxJgo+J37Km7JT6wkuRqVMHceGyfT6yYPbKUxzk9eTg6QH8Gte/T0EuhMBVc8jj/Ze3oWOMzgn7nYguKk9k+Pbz/2t/QS8BS2P/iSWFc0s/LAjVgJ9BD22iGSCAqARUREZkYWG3Dz28D5Ma9lph0Dbge+jPX1nYx3OWdxtlJmH0DxOO782y34DTO47sPQv98mM9eywCMJ7b+dbcIASmO2zi0XYfAN3NxXTw+MfQD5kzDShX/60nEmUVsWn6BCAoPjENsv+0VsWvTPYb3B7VISnQduwl4v/h9sGrZI7BQAi4iITF8GK2P8bWBHzGuZaa9jE57/HHiaRA21qfWl1oLYAm7jA9B9eEwQ7CBTxg2+EZUyRz25I12oMjMtvP2cx9lKyi3YZ78HHcfOHK6VG4EXduAPLol6iqNe4mSVo+/H+umfAv4t8C5gMNYVzZw88EHgKPCfsUFgIrFSACwiIjI9AXA58OvAZbRP9sZjW7f8JfBV4EC8yxkjDGCkE7f8adzSvVZaGwbQ83a0Tc+YbJ93lh0+/c5WrVaaqZIHvGWHxwpCWP8gbmWnBcdBlfCJa6xf2XnAn95rHJ+T2MCofViP8Gdon+nxncDHsf7n38Omx4vERgGwiIjI9FwIfB54N5YJbgcjwL8CXwDuxUqgE8DZPrrVLG7+y7h1j1gQkx8aLYsNgwkmFUv7cuNmh6kCxRPQEc1qc55g+21WCeA8lDoIH7/essNnm0zdOiHwPKOZ0l/GTq4lrnb7HPRi28KdAP4QeDve5chspgBYRETk3K0HPof1/rZL1PUK8DXg77AptcnY2zfMQMdRgu0/sIxfpmzlrT4YP/ARqfHB6cn+juOn3Q4u/0c4OofwyauTUh59BPgH4E3gU8DNQH+sK5oZc7Gp10ewk2vvxLscma30jiEiInJulmAHc+/HshtpVyt5/ivgK8BbJKVGOFsiuOBWy/JmKnbxWFAsMlVjt7TKjcDgGwRXfQ1/YIUN08qViPnXv7aH7v7o8n5gHenPBi8CfgULfr9CUgfqSVtTACwiIjJ1g9jE1k8B82Ney0woYdNo/xT4Z2zvznh5BzjIDxNc8N3R4UY+7cf/kjh1v1Nuic1o8s9cDJnqmUO1WivETkr9HjYl+leAzaS/1WIl8JvYHuJfxwrVRVpGAbCIiMjUFIAPAb+GZTPS7ijwHeD/A+4jCVnfMAOFE+Ag2Pm9uIMQmU3KedsfOszgX95sPeVhJu6y6IPA32AT2X8T2EX6Wy42Af8OywTfigX7Ii2hAFhERKRxGeB92IHbipjXMhPeBL4E/HdsC5Z4g18f2JCr4knr9S0ejyb8irRQuYBb/Bxu1RP45y7A79sK+LhPxJwAbgEOA7+KzR3oinNB0+SwPY9/Gfs3PUjcrz8yaygAFhFJqzBzZi+bNNuVWOb3vLgXMgP2YFsc/R2WWYpXJQddRyBTIdh0P+RPKviV+IQBDPXg1vwIwILgaj7aMim2OK0M3IOVDr8FfAyYF9diZkCATc8/hAXBz8S7HJktFACLiKRRGEDvIeg4ZoFD/FNLZ4Ot2F6/V8S9kBnwKPAnWP/dUMxrsUC3cBK36QHc4Bsw3AmhDlEkbh6GunFrHrXX3OP9+LcXWe4y3tfcx4A/wMqHP0m6q1HywAewQV9/gAX2Ik2l1IGISBqVC7gVT+LmvaI9T1tjOTaA5kbSffK4ivX5/gfgb4k9+PVR8HsCt+0uXN9bMNSjygZJDuctE7x6N27H960/OBnbbu3D9gv+fax9Ic36gU9jGe3OmNcis4DeYURE0shFgUM1i9qmmq4X+Ag2+CrNPXcl4DbgfwP+FSunjE9UYkrxOMG2uy34HelAv8+SOM5DOQ/D3bj1D+OW74FyIe5VAbwNfBn4P4GHYl7LdC0EfgP4KdJ9klFSQL9gIiIiZxcAPw18DlgQ81qmYxgLen8f2+4o3iizmoXCEG7FHlzvQeg7ACOdcZeVikyu1IFb+xg48C9sh6AKuWFi3J73GPAN4AjwP2ETotNqLdZmchC4K+a1SBtTACwiInJ2u7CJz5viXsg01Pba/K/AIzGvxYa3Zcs26GreK1AqKviVdCkXcKt3W+Bb6sS/eL5NLI9vj+oR7ATXCeB3sSxqWu0CPosNxnoy5rVIm1IALCIiMr5NWDbisrgXMg2Hga8C/y+wN96lOCtxLpzEbb0LBt+0Emi8gl9Jn0oOt/wpm8HgnQXBHcfiDII9cCdwEmt3uIl0HucH2BZPrwO/h5V5i8yoNP5hiIiINNtCLAtxEzHWNk7TAeAr2LTnF2NeC1QzuPNvh0wFN7AfSur3lZQrF8GFuNWPWxC8bxt0xJoJBusF/t+xIPhmIBHNylM0AHwQ2xbpK9i/RWTGKAAWEUktb9mHUPMMZ1gn8OHoUox5LefqTeCvsLLnV2JeC1RyBNtvh4H9FhyUCyj4lbbgAwuC1zxuH76wHYonIKgQ47mzx4D/A6hgw/vSGASvBT4PvID6gWWGZeJegEzuxs+ujHsJIpJEYdb2TD0+CMPdKiOdGQFwLfBbwGbSmf19HfhvwBdIRPCbJ9hxO/S9ZcOvtMWRtBvvwHlc7yHc0mdsD+vDCyFTiXNVB7C2h25gA5C2/fIcsAjoA/aQov2Bb/verXEvQSahdyERkbTyzgav5Epxl9y1k83ALwMXkM7g9yXgz0hC8OuDKPi9DXoP2vArkXYVBhbwdhzHrX8It+i5JGyV9BQ2+f1vsAFZaRMA7wZ+Hlgc81qkjagEWkQkzXyg4HfmLAI+gR1wpfEE8T7gL4G/wEqg41MpEGy7A3oOWVCgMn2ZDbwDn7Fs8OYHAIc/sCLuTPDT2ByALPBRoCfOxZyDLqwdZR/wRaAa62qkLegdSURExMoE349lGtLY9/sqFvj+JXEGv97ZdNytd8Kc16MDf52gkVnGO6hkceseIbj6q1b+H18FhMdKiH8f+AfSmQleB/ws6d7jWBJEGWAREZntAuzA6mPAspjXci7exDIjXwLeiGUF3kXVCOC23IOb9ypU0tZymAjuLNeT3TfR7Xq+gdu1jye6TwMHJmV9wVRzBOfdQbj7OnhnAQSxJTCfBv4T1gv8MdLVExwAVwCfwybavxzvciTtFACLiMhstxTL/KZxv98DwJexnt/XYllBGEC2DEEFt3o3bsE+2x4m/c4WcE4UlE72udolwCbz5rGBpLXbueg6jx2j1e4n+jgffW1Q9xiir6s1nDqsiiHL6YFqiG0nU41ul6ML0X3D0f0AI9FjPTZJuBJ9PBw9dqTu60vRdaXua8YLlscLnsfeHu9z6Q+6K3mC7bcTPn4dvLPQ7osnEN6LZYIdVg6dpiC4APw0tjXSnwBH4l2OpJkCYBGRtAsz6gM+d11Y8PtTpG+rkEPYHpl/hpVAt15U1ulWPoFb9SQMd0I5sfv71gLP2nWABZ85RgPPDKcHoLUgNFf3cTH6uPa1hbrbta/L1H2/3JjH125no9vBmK/LjrnUgpTa52r/hjyjwXXtcbWPa4FyPY8FqiGnB7YwGhzXfnC1gLb2uPrguVJ3qdY9tv52LTiufV257mtLnB5U124P190uY0F2/eNKdc9RGue5fPR8VcbPYMerXCDY/gPC3ddCJQ9H58bVG7wb+APs9/j9pCsWGMRer38M/AvqB5ZzlKZfehERGSsMoPctODpowYi2QpqKPHAV8ElgbsxrmaqjwN9hwe++WFYQZgCPW/cobvlTcKI3+v1r+e9gJ/bzG8B6uTs4PfgMGM2eFhgNYmuBbS2Irc/A1oLcWgBcZDSoLdZ9n9rH9cFyfXAro8YGwPVBbhkYYjTIHWE0IC5FH9c/dpjRwLf+cyPR96l9rlp3XbvdgQ2CqgIHsZLaFxjNfjdPuUBw/h0QZvC7r8cfXgDZUtOfdhyPAb+H/b94D+maCbQW+DT2c3si5rVISikAFhFJs3IBt/4h/NF5cHgBOJ0Qn4INWE/Z+rgXMkXDwD8Cfwr8JJYVhAEW/P7Igt+hlu9D3Y8FvUuAjcAmYBWwAMsS1QLa+hqRe2YAACAASURBVExuLXMKp5cj1xvvfpVXzIwMo+XeUzX2zEo45nNjH1O7rgXF9QF3N7a3bIi1DdwNfCu6bn5ZbblgU6LPuwOeuAb/9iLIDRPDr9lDwP+FnUC6ivQEwTngRqycex92MlBkShQAi4ikmfN2QKVtZqaqB7gJO5BK03thBbgV+C/YHp+tVypCtoxb9whu+R4Y6mll8NsPrMZ6Aa8BlmM/yy4sm5Wmn6U0buxJiam84HVP8Ll12AyAy4C/Av6cVgRU3gEet+0uePIq/MGlUDgZRyvLfcD/jVUxXNrqJ5+GLuDj2HTrr9GK7L20Fb1RiIjIbPQubM/fiQ6Ok+g+rH/v8VievZLDrXoC8sO4ZXtbGfwGwE5sP9BrgZVYtldkujqAzcCvACexaeonm/6sPoCgittyD37PlfDWMiieiCMIvg07sfS/AFta/eTTsALbGmkP1tcs0jAFwCIiaVfLAvsAzQRpyFrswClNB3sAjwJ/CNwTy7OXC5b1XfGk/a6NdLUq+O0EPogNv7mK9J20kHRYBfwSVhb9r4xOyG6eMAOZCsHmewn37IKDsQTBVeCfsR7638EqLNLiGuDnsH5glUJLw1QzJyKSdpU8bs1jUDyuadCTK2Klc9fGvZApehb4z8B3Y3l273AbHrKsb6nDTri0ZthVPxb4/s9Y2bOCX2mmrcAvAue17BmrWciWCbbci5v3Mgy37MRSvSGslPgviGsv8XPTg50cS1sri8RMAbCISNqFWdz8lyA3gub1TOpy4APAvLgXMgWvA3+MDeqJZWQs5SJu4Yu2fUtrXQD8JjboSqTZAuzk2Cdo5WtENQu5Em7zfbh5r8BIJzFMU38H+Fvg68DxVj/5NKwFPgOsiXshkh4KgEVEUs9DJafs7+SWA5/FsjxpcQj4ArblUYsPSqPfq+Eu3JZ749hVdR5W4rih5c8ss1knVlb7EWyKeGtUcjZcbsu9uDmvWaVF672EDQL7DnGdbJu6ALgE+3kNxrwWSQkFwCIiMhvUpj5fR3pK5Y4D/wR8GXir5c9eKRBseJDgkm/j5r3U8qfHDmpvIj0/rynwE14m/mzzLo0+ahZYgGUVr8e2bmqNahYyZdzWu3FzXodyyysuwLYX+kNsW6i0GMRaJS6KeyGSDm34piIiInKG7dgBUpomB9+J9eTti+XZqznoPAa9B+MofZ4PvBubzptg9VUXvi6IrLv2jLl/9PaZ95/++dPu8RM/drzPuDPWWPc5N97949/nxv18dL8783PujF2LUhk47wQ+DbyMTRpujWrWpkNvuwueuBZ/ZC5kKi17euyH9QjwR1gP/oWtfPJz5LA2iY9iA7Hi2R9dUkMBsIiItLt52KCUnaSnSfoRrPT5UeKIHkpF3Ja7ofdQHMGvwzK/7wIKM/VN/amA1Ee3Q8tpeqhtI+rr/ld7Tn2y7n4/JhAdzdg6MmQcOAIClwECAueAAEeAcxncqc8HuNp/LkP9r2XgMrhxCvScCwjGvd9Fzzfer3ZI6Ku1f8Zp/zdCXz3jF8tHjz/tPh/io+ny9jXeHheGQAg+JPR+9LnwhD4kJKwLwGtrc7i6qPm00NqNDaDrHx+cus8e50772ibJYBng2gC6t5v9hKeEGXAh7rzb8buvh2NzIGjphP8QuAVYBPRh+yUnXQC8D3gMeJVWbGUlqaUAWESkHVTyBDtuI3zkPTZApfVTRJMqAN4D3Iz19qXBPuDPsInPzd+KpZ53ttfvpvtt6FU1lsOEddh+v+sne6DHRwFtOJp/9fUFvaNZWOfcqeA0IINz+SgQtUDVEUB0bYFpMHrBjX7u1HUtKHMEzpFxObIug3MZMi536roW0GZc/lQQW387CAqngj8XfZ9gnKrbTJAlcNkzAr/AZcgE2fqgOfpHOzyhq4YlH/rwtC/yVKmE5ej/1aiQKlVfd7/3hGGZKlX7rC9HQW5IJSzhqRL62tdUqfrKqeuKL0eBsYXMFkiH+NoJiNrPzdfuq546OWGPtUC69nFINXpsiPdlO33hPbjTg+naz2o0D137uZ5TwDyX0b1mv0Er/x59AM4TbL+d8PF3wfH+Vr+uV7EWjPnAb2PbJCXdPOy1fjdwLyktPZDmUwAsItIuWpshSItN2AFRWiaEHsQyv39Pq4fQeAfVLG7jD3FLno22Omq5QeBjWC/fuHNKakEU3lvg6AICclG2tRbIjoY/UdhLLpMn5zrIZzrJBZ1kMx3kgw6yQZ5sUCAX5MkEOTJBnpzLEQQFstkiWZcnG+TJuJwFuZmiBdBBJvraHJkgV5fBdKeCUVcXiJ2exQxOPfLMwOwswVqUPT7zbje2nPn0YNd758+IA/wZwW90L2NjhvquZE8YlXSPZtDrv5ePMumWYfZUwzLVsGzBclglpEqlOkKVMtWwQiUcoeJHCKslKuEIVV+iUrXHl8MS1ei+cjhCuTpMKTxJNRyiVD1JyQ9TCStjsvP12f3ax4CvRgFz9H/nLNn0s1gLfB54AXj4jP9BzeQd+AzBju8TPvheG4zV2iD4LSzwX4ENBkvDNmRXYQOxdqO9geUsFACLiLSTULMN69T2iLw+7oU06AS2F+dXaOWBm3dRyaXHbXg4zuDXAduAD2FZp9OcygxGWcFskKEz209Xbh4dmX46st3ksz0Ust0Usl3kM3bJBXlymaJlUKllZbMELkcQZMkEUUaYgCDIEBDgXJbAWbbYucypLG7gglMZRzlHvlZqHeJ9ldBXTpVeh75KGFajzG/1VNY3DCtUfYXQVwh9maqvUPVlKmGZcnWESjhEqTLCSPW4XcrHKVWPM1Q9TqlyguHqEYYrhymFw1S9t9w4YZTFb+g18xLsxMx+bFJyizkonoCRrlptPgThZF80U34C/BV2IuAakt9GUsC2sroWK+NOyzRraSEFwCIi7cI76H4H3knTnKemcVjP702ko3QvBO4HvkQrD7B9YJUDHcdxC5/HLXsq2oM0FkuwctNxtj3yVH2JHB3M61rNwt6N9BcW0pntp5jpI5/tJh90ks92kAs6yGc6yEZBryRMlMnOuAA7DJ3+yRbvPZVqiXI4TLl6knI4RKk6RKUyRMlHGePKMU5UjnCsdIgjw69x6ORLHCu/hXdVsi7PJIndIjZg6RlsKvvItBc9FdWMlULvvs7aEnwGjg2CC1tR+RNime//hg0RTPhgOsAqfj6BZYH3xbsUSSK9M4iItIswQ3DeHYT3fQiqsWyfkSTzsQPWLXEvpEFPY6XPT7bm6azXl6CKW7YXt+4RC3yHu+LqH89i2aX3AadtgBpiPZ+dmQFW9l7IhrnXs7TvPLryaTivIa3gnCOXLZCjgM1sOrvjI4c4dPJFXjv6Y559+272Dz1HNRwhE0z6mrkUKwPeC9wzIwufikqeYPsPLOgtdeB/fCWEWfzRuZBtepKzAnwLWAn8e6w3Osk6sVLo64CvAkPxLkeSpnV7m8k5u/GzK+NegoikhQ/wr22wDMHsVQumfg1YGO9SGnIY+HPgr4Hhpj9bOW/lznNfxc17Bbf2UTjZGw3dafqzn815wK9iWfu6aU42rbgj08fmOe/ioiUfY/nATvKZjrN+I5GJ5LOd9HcsZkH3eorZXo6OvMnx8kE4s5d6PEuwY+cfYi0LrRVmLAPsvJ24GjiAf3uR/f0G3oLj5v0RV4BXsD797SQ/hugEeoEngNdb+cS3fe/WVj6dnANlgEVEpN2sxPb8XRbzOhoxgk1a/RLN3rajkgfvcIufhdwIbsODVikw1BP31PAilvm9jjEH1dWwRD7TzbqBq9i+8APM607LLDNJuny2i/XzrqYSjvDIG2UOnPwJuCzBxGXzOWx7rsewPbrjySx6Z/3AhZO4rXfBS9vwQz1waDHkhyGo0KRA+GUso7oB+3tNMgdcivUCP0UcJywksRQAi4i0m3KhlQNSkiYL7AJuwA5Wk+5erKfwteY9hYdSJ27p05Ar4dY8CjgYjga6xhv8Ouzn9V7GTJgNfZXAZVjUuZ7zF76XeV0KfmVm5YIi6+dezVDlKEOvv82xykGcdziXZYKe4MVYf+mPgPtatdZxVXK44hCc/wPcwaX43oP4wwvh8AIonGzW+8DDwF9i25QtbcYTzKAO4APYvuo/iHktkiBJL18QVAItIlOUqcLReSR/WGdTbMVKabfHvZAGvAz8Ebbf78xPsnEeKgUY6cQt34tb/zBu7qtQ7oAwMee/FwC/DrybMcckpXCIweJSti/4IGvn7Dq1dZDITMplivQU5lGqnuCtk89H/cATnjsLsBkDAfA4cKQV6zwr76BUhOJJ3KLncflh6DkMQ71WGp2pzPRbQQV4FegCLiD5JxrnYW0mP6RFE6FVAp18ejcREWkrDrdiT9yLiEsHlvlNemkeWLnz3wK3MtMTZZ2Hag6O98PiZ3Fb7sOt/ZFtkVVKVO9sDrgRKyk9bQKRJyTjsizs2siaOVcQOJ2vl+bpKy5i2/ybWNG7ExcElMNJW/Fz2HZd78MCwXg5b/3BJ/pgYD9u7Y8I1j2M23Kvfc7P+OH+Yaxt4/tYQJxkRdLzviAtogBYRKTdxLOHaxKchx3oxH9AOjGPbXn0FeDNGf3OzsNwF27+S7id3ydY+YRtbQTNOAiertXAx4EVo3c5wrBKJRxhsLCcFX0X0Z2fE9f6ZBaZ372O8+ffzGBh5am9iScxgO0NfHnzV9cg521I1lAPDL6OW/o0bss99ooz8ye/nsP2B07DGdfN2MmKiUeEy6yRuHdDERGRc5DDDnCuiHshDXgG+CK29dHMiTJAbsE+3LqHcQtfgGzZDnx94srh+7DevAsZU6AZRtXgy3vPZ9XAJSp9lpZwLmB5/w42DFxLT34+lXAE/KRB8IXAh7FS/gSJqkBKHbjBN3Db7sKdd4cNwpvRJ+FO4JtYRjjJcowOxEp6yba0gN5VRETaUWVWvccHWM/vVYwZpJRAR4BbsL7fmSkd9M6yvv0HCK74pu3pmy1bX2Dysr41F2LZ38HRuxyhL4NzLOhYx8qBS+gtzI9rfTILFXN9bF5wA0t7zicgoOrDs4/CMh3AzcDPktTBspU8bmA/bu6rBOfdAeXiTL4/HMEqWdLQ9Loey9gn7GSFxCGx74wiInKOnCfYcXuSg5+Z1gt8BNgW90IacA/W+zszGZNyATqPEez6B9z6h6D7MORGrAwymRywCvggsIW67K8DKmGJLFnWDV7Jst7tyv5Ky83pXMHmuTcyv2M9VT9C6CfdUmgR8FGsFDqZzerVrF0G9hNc/G2CrffYCbKZ8Ty2NdLumfqGTZLDKoQuY8zMAZl99M4iItKOOo7GvYJWccBGrPe3P+a1TOZF4O+YiQNF7yA7QnD5Nwm23m1bnuSHLbOTvHLnejlsGM37Oe0YxFH1FQKXYUHnOlYOXEpXQb2/0nrOBazsv4i1c66kmO3DU4HJ+4F3AP+GpG8LFAbQeQzmvEaw7e6ZbI+4A/g6cGgmvlkTLcSGl62KeyESLwXAIiLtyAfgZsVewPOBm0j+Ac0QliW5DSif+7dx9nPNjRBccCvkSpbxDTNJD3xh9GTFTZwRKHjK4bDvzg36zXNvYF736hiWJ2IKuS7WDuxiZd9FZMhS9ZP+yXYAPw38VHQ7ucLAXi8GXye4+qs2Ib6SY4J9jxtxDPgWFghP4/Wt6XLA1Ywze0BmFwXAIiLtKFsi2Pm9JJfCzpQt2DClJE/39NgelP/MdKY+ewdBheCi7xJceAsEod2X/MC3poCVil479hOhD8mSrS7oXDe8avCSsJjpaf3qROos6t3IhjnX0JOfjw89fvIAcQHwOazENiV/lB43/yWCa/8Wt+Kp6VaQ7MG2RnpxxpbXHHOA92A9wTJLKQAWEWlXblpn9NNgDrALO5BJ8gHna8DfcK6lz95ZxiZTtqxvdiSNP9ss1iN5Rqm6J6QcDvmBjmXDG+Zcf7S3uCjp+4rKLLGsdwdrB66ikO2mGg43EgRvAX4OWNn0xc2I6GWzksOt/DFu1RP2WhOecyvzD0n+VOg81oZxJcl+35AmavvUwCwSYMMXsugPWmQiITZ9t8o0a74kdhdiZYdJHnldBn4AfA8YnvJXewfFE4Aj2HYn5IbTOtxsPvBJYNPpdztCXwUfHp3fue7tFf0XFrNBIZX/QGk/vcX5bJxzLW8ef5rXjj2BvX1MGBwWgfdi2dD/Cow0f5UzpFTErXkMcPgDy2Cky15/pnay7RA25O8C7GRXUi0GrgFuJ/kZa2kCBcDp1gWsAJYAc7Gz6l3Yq7MO7EXO5LCA5Ch2hvo14FmSP7jjHDkrgc60ZUItj030PJ9kn/TbjfX+7p/yV4YZ295oyz24BS/BSGdag98C1nd3A3BabXPVV6j6sp/XufqttQOXH+kuzF2Hjk0kQeZ3r2P94JUcKb3B0ZE3yGU6mOQlZyG23c7j2D656THShVvxJG7dw4R7L4fX1gPhVIPgJ4FvYP3+y5qxzBlyBfAu4MtAKea1SIvpTSad8tjAl+uwA4odwDxGT0s6FACLjKd21OKxM/NPA9/BejP30m5vgkEFN/gG/ticdhyIdRFWwpbk7SyOY79f9zHVPX8reeg+jOvfbycwSsU09fqOtQX4FBYY1HF4XyHr8kMbBq8N1829pi8T5JI9QEhmnXy2kw1zr+XV4z/mWOkA3oc4N2mJ8MXAp7Etgl5p+iJnjLeTpkO9BBt+iAf8qxsgqE4lCPbAP2JZ4E9hJ8CSaCU2j+A7wOvxLkVaTQFw+vRiUwY/h+15OQf9HEXORRG4BFiHBVJ/jJWptkcQ7B3kh3CbHsA/8EHrG20fGWyIyU6SPcviDuBr2ITUxoUZ6DyC2/Agbu6rMNw9nZ68uHUB1wNXMaZ2tOpLAOXFXVsPrxq4rFjIds0n2eXsMkv1FRexdmAXh06+xNsjLxLgcBO/9ARYguIx4AvYFPgU8TDSjdvwILgQ//JmyE5puPMBLLC8AHudTqod2NCybzHVk5SSakk+cJAzzcHOpv2vWNnGAhT8ikzXIHag8ltYT1BqI40zeAflAm1YELIWO2jpjXshE3gVO6h6empf5qHUgVu4DzfndTjRZ9uWpNcu4CNAZ/2dHk81rPhipru0ce71uUU9mwaxk1IiyeMcawauYHnfThwB3oc08Lq6BPhZ4Lymr68pPIx04tY9glv+1Ll8g7uAfyLZfdCrsD3Jten4LJPqd9VZphP4IPA7wOaY1yLSjq4GfoFk9yyJ7bF5I1ZWm1RV4Bbg1ql9mYdyEXoOQv9+K3tO37TneoPAzViW5TTVsEQuKIYrey+qrh64uCeXKXa3fnkijesqDLC6/yLmd9ruOSHVRr7sAuAzwKImLq25Sh02HKsy5W6Td7Cqqkehsf9ZMShg7TSbUUw0q+iHnQ4Blpn6JWB5vEsRaVsZLFt1GcntWRI7QfFerAImqZ4Dvo1lgRtXKUDnUYKt9+AG3oRq6quB349VV5z2D/F4vA/9QHFxuGX+e7L9xaVJ7uMWOWVp7/msHdhFzhUIfUNzFfLAh7GWjc5JHptclTxuzeNQmnKL/tPAV0j2tki195R5cS9EWkcBcDosAX6GZPdRiLSDQSwTnN6z9e0twKY+byW5k59PAv8CPDylr6rkcMXjBNvugt5DMNJBykvXV2MH/mvq7/RA2ZcoZnuqK3ovrC7p25YPgkz7tB1IW+vID7Cy/yLmd6whwFHxDbWNzgU+QcqP4dzyPbj1D091HsERLAv8GMnNAndhJ+rWx70QaR0FwOmwC9iOfl4izVbEtm6YG/dCZoTzkBshubHilC3HMilJ7td6Huv9bXzbIx9A9zu48+6E7sOWZUl36XMv8FFsEu5p71veh/hqhbmda9zmeTdkOnP9mmMhqTKvay3r511PZ7afaliiwdfXXcAHSPN7SzWDm/+StWZM7eTcK8DXgX3NWNYMWYudoNAcgllCAVU6XAUsjXsRIrOAw7LA6d+KxdkwpfDJKyHTHoOtsczvVSS3RP1tLPv7JFM5QgwD22ak70C7DC07DwuATzvY9zb6ir78Qr+m71IWdG/IttHJGZklCtkuVvdfwsKuzeSDIt5XaeBvNo/NcflA0xfYLD6AoEyw5V4Y6WIKr1Mj2OviI01b2/R1YMNlk1xdJDNIAXA6bAcG4l6EyCyRoV3eAMMMHJ2b9mxizSBwKckuT38Cy3S80/BX+AAKJ+sOKlNvCfBzWCXFaX9H3od4Qr+0dxvr5lwTZDOF9vg7k1lnoGMpG+ZcQ29xIaWw4R2OVmEnhraT1vcY52HhCwSb7p/q69UB4F+BnzRnYTPiKqxqRS0Zs4AC4HRYiv4gRVqlLaLFU4Kktl1N2fnAdSR3kMxB4Hamkv31DvInCXZ+D/JD9nH6XY0NlDmtisJjWbKB/GJWDVzC3K6VbfGPldkpCLKsGLyYRV2byQZ5wqi+YRIOK7P9JMlu45iAs5N2i57Hbbo/mlXQkBC4E/hB05Y2fb3Yz2d+3AuR5lMAnA7qSRCRc9A2MUYWOzN/Hsn8R1WBB4DvAA1NxTklCKEwNNXBMkm1HfgQ42TpQ18lG+RZ3X8Fy3suwLkk/hhFGteTm8Oa/stZ0LGOaliKSqEn/b2eg5VCX0NaExveQRjgFj+H2/hg1BPckNexAPi55i1u2i4EriStPxtpmAJgEZF2VMkTPnojZKYWjyXUGuzAJKk1wseBu4HHG/4K7yA/RLDje1BJ/XZHYJn592J9dKf9g0If4ggYyC/2qwcvcwNdSxX9Suo5F7Bq4GKW9W4nQ9DotkgAK4HPYlUtKeVGhywGYaPVKxXgPmyLuKS+MW3FAmBtzdbmFACLiLQr3xYv8Xlsb+YL4l7IWYTAvcA9NFz6HEBhiODC7yYznz11Gax/7v1A3+mfclTCEYqZbtbNucYt6t4Uw/JEmqOY62FF34Us6NyAc47Qlxv5MocFWTeT7P3MJ1bJ4Ra+gNv4AITZRt9v3sBaRfY1dW3nLoMFwWfMMJD20hZHRyIi0rb6sIPFVXEv5CxOALdgvb8NcFA8QXDBrc1cU6stAD4C7Bj7iZAqGZdjfuc61g1eSWeuv/WrE2mSwGVY1LOZtYO7yJKjGo7gGouburB9sq9l6oFWHqu46GjCpcBUyn/LBdySZ3EbHgJ8I5lgj+0JfCvQ8PSwFluD/VySOm9CZoD23xMRkaRy2MHItrgXchZV4FHgQSwQnlypQHDxt8E1XDZYr4iVFzdcazkFLrqUsW1LGh0GlwNuxEqfzzhwrlRHGCwuZd3gVQx2LldORdpOV2GQFf0X8Pzh+3j9xF6qVAkayy9txaZCPwY808DjO7EhTedFt2fydaD2918CDgMvAHuxrd0mVirilu+B4334l7bYTIOJvY7tlX4dkMSSkAVYAPxNGn1dl9RRACwi0o4yDZXiJV03cAPJzf4eAr5Bo1t7+AA3sH+qpekdwGJgHTZcqoPmB8A/xgL7Rn6J1mJTbVeM/URISOACFvVsZM2cK8ll0r+9tsh45natYcPgdRwZ2c/R8lsUMg0nD6/D/n7+IxMHW/1YyfQvY4FzlpndsaB2aspjJ/aeAf4Je317lsl6dst56DoC+WEb6Df57gO7sROHaxkzMyABctj/47XAyzTn9VZipgBYRKQN+beW0wY7Os3Fekvnxr2QcXjswPB24GhDDx/pxF30HdvyqLGpz91YX+1nsABzauWJ5yaDBb//EettnsgANvV55+l3O0JfpeJLLOpcx9r+XfQV09vqKDKZYraHNXMu4/kj93P8nYN4X8W5hv5U+7DA9gGslWJssBVgQ7M+g+2vvWbmVj2hC4DVWCD4p9jwqrMHguUCbvlTkKngn99hg/0m3n/+bWwY1sXA5hlb9cwZxFpvfgzsj3kt0gQKgEVE2o13+L2X2YTO9AqwQSRJzv7eDrza0KPDLG7Bi3a78QzwJuBXgMunvLrpeTdwEvs37p3gcTuxg/Ixjb2ekDJZ51jRexEr+i9utC9SJLX6Opawtv9y3hl6lXdKb5DLdOAaK4XeiAW4TwEv1t0fYAHiL2ET1lt9InAA27LpGLZ10RtnfaTzMNSNW7YXDi3BH1g+2Q4EFSwD/DjJDIA7sez8d1AA3JY0BEtEpB3lh+NewXTNw/bKnBfzOs7mJ8A/Y4HixJyH4W7cyiegeLzR3t8CFvhun84iz1EGeB/wG8CyszxmOXZwfNrBq8NRDct4Dws7N7Fy4GK6C3Oau1qRBMgFRVbPuYIF3RsBprItUg64HvgAp2/1thD4VaxEOq4qmDxWhXMpk20N5DxU8lPZ03w/cAdWZpw0WSz7vQ5NLmhLCoBFRNpN+oNfsJLfq4GeuBcyjhGsh+0prF9uYpUcbtlTkB+x7UIaswEbxFI410VOUwH4BPB5YP6Yz2WxoVcfZpyDw6ovUwi62Djnehb3bG36QkWSYqC4lFV9F9OfX0wYlgmp0mD81A98itFqjwDYxVmGy7XYIuy1qHfSRzoP5QKEDYUXFeAHwP3TWl3z9GBVLoviXojMPAXAIiLtxHn8Ty46lwnDSZLBet2SuhfjXixzMfmZBudhuAsWvAgdDWd/wQ68Libeg98u4HNYIFxf5rwJuAnLUJ3igEpYIiDDkq7NrBy4mGKuu2WLFYlbJsixqv8SlvVuBw9hOPHsqDG2YD31A1jQdTPJqIDpxipRJg+Ay3ncyieg+0ijrR4vYqXQDcxRaLkAuATLBEubUQAsItJWPP6NVs1JaZqF2BCWpEZPDwN308iUsXIet2o3rvsdGwzTmC5s66eFkz2wBeYDv4gdmAdY9vfDWMnmGcrhED35uWyadyNzOle2bJEiSdHfuYQVfRfSW1iIx+P95EUikRzW6/szWMb1MuLP/oKd21pII8F4mIV5L0HhRKMn+zwWAD9EI9U0reWw4DeJPcoyTQqARUTaTbYU9wqmI8AyjEk5+BtrP3awdrChR4cZGNgPxYYPCB3Wd5ak7PdGrDzz/Vjgew02vse2cgAAIABJREFUvfYU7z0VyhSzvSzr3cmKgQvJBEnb3USk+ZwLWNa/k5X9FxG4LBU/pS3plmK9978OLGnKAs9NN7YtUHHih3moZqFcnEq1y4+A24BJNxCOQTf2fqRBBm1GAbCIiCRJLQDeEfdCzuJO4IdMJVtRzU5l8nMeOB872EySC4HfBX4HK9Ws4/CEVCpDfk5xud807wZ6C2PbhkVmj/7iYlYPXEpvbr6dxfJT2pJuM/b3Flf//3iKWFtK32QPpFIg2HwvdB5t9HVvBKuqeWFaK2yOAMsC75zsgZIuCoBFRCRJ+oH1QEfcCxnHCaz0+dmGvyIMphL8gh30bsSGgCVJF9aTfA1jsiGekKqvUsz1srJvJ0t7t+GcDi9k9nLOsahnEyv7LiQXdFAJS0xxX/akVH/UFLCJ8JMHwD6A7ncgmFL/80+w19bJp+q3Vq0i5xKSWZEk50jvUCIikhQB1vua1J6rZ7Hpz41tsFwu4NY/ilv0/FT6f/PYFkNJyv7UBNhBYN3BuSP0FSD8/9m7zyDJsvPM7/9z7r1pyle1NzPtxqPHz2AAEMAAhCO5S7dLQiS1q12FpNgIRciEdiWFVhFaSd9kPq1iNzZCIemLYiVyKZFaiSQIQ2CAAUgCmME49JjucT3TZtpUV3W5NPeeow8nsyu7prsrsyrNzcrnNyh0dlZW1qnqNPe57znv4a6Jx8w9c8+acrx5rxyRnW66dJB75j7HZGEvDtdZ/M2fZgBuryu/s3SY4c8ROkJf7XRgfbCL8L6kF7YdRAFYRGQnaW/7ibyKCFP/Hhj0QG5hiTD9+d22v8IbiGpgO+rtMkk+Or+2yeNxjEcz7tjMM/7A1ENg8la8Euk/g2HfxP3cNfkIY9FU40TR0MbgCDhIu40J0wL28W932gzrNeDn5O+XZIFj5PfErGzBUB8piYhIiyjFvfg1SAuDHslWlQln2g8OeiC3cBn4DqEJVnu86XT6M4Suy0NTaUh9DUPE0ZmnzbHZZ4htHgvXIoMxWdzNvXOfY7p0kNTV8LnLdh3ZS1gK0R6bdbod30fAc3TyGts/B4Gnyee+9LIFCsAiIpIHFjhOONOeN54w/fkU7Ta/8gYKVUhqnRwEWsIeoEORIj0OPH6qsD+7Z9ezfvf4cZV+RVoYYzk49QgHJh6iFI3jO2uGlTeTdLQ1nQnd703bP/N1wv7q73c8st7bS9iZYHbQA5HuUAAWEZE8KBGmP+dh79uNLhEqE+1tfQSQFjBHX8UcerOTivwt1tjmlSfNahSiMidmP+MOTz4y6AGJ5NJYYYoTs59mT/keUp+GE0fDKSI0KWzv9SmLsI99G6KOtoE6BbwO5G0vv4TQ/T6P70+yBQrAIiI7RTTUa8wmCV2G83iA8Q5h/e9SR1/lovDRwVcAaePPXHM4jCHbXT5ae2jXl+xUae8QhHaRQTDcNf04h6ZOEptkmKdBG2A3nVSBs473Al8B/hI42+kX9sFuwhZ92uB8B1AAFhHZCYzDXz0ILh70SLZqBniEjqbY9YUjVCXeovdnFxwwD1R6/H22yZO5OjOlQ/UHd315Zd/EvY6hqFqLDEYpmeTQ5CPsKR3DYHG+o8Z4eWEIU4F7OQ3YAc8TmmHl7UTgBPAkcGDQA5HtUwAWEdkJojr+jU9BrdzJmqu8aK7/zeOBxXngp8Byn77fReBan77XlnjvcT5zu8rHzD27Pl9M4jEdS4hsYs/4cQ6MP4AlwuUu27UlIZyobL8RFkC946aMbxECcN7OEowRGmHlcZaSdGhoSwUiItLKQFKFemnQA9mKWeAx8lf9hXAg9tf0b03aQuN7/iJhXXTueDzWGCYKc/F06UCCTqb3hw+Nx5x3gG+ciAjLHjwe5x3epS1fYDA2IjLRjTswxBhrMRiaExqMibCmo6n6sgUTyW5myoexxoJzwzhnYgU4Q+iI3yaDOfwm/vx9nXyflDDr5jxwpJMv7DEDHCXsh/zjwQ5FtksBWEREBm0/+QzAnhBG36R/i6tXgW8AnyV0Hc0dg8F4Y/HOZb5urRmKptXd58H5FIcHn+HI8M6R+QxPhvce7zOczxoBdf1yCLIZvvF3vAtf792NMJu5GnVXI3N1Ml9vBOCU1KXgw31kja11wtfUyVxzCXk4J2FNQmyTGwM2JiIyMQZL8yFtbYHYFrEmJrIRiS0T2RhrDAbbCMcWY8Jl27hsCMHZNi7f9Hnb+BwR1kYYE2GwmBHeIzq2BeJoaLeoWwP+FfCv6aQZoDeYB/8Kf+HeTrdEepWwFvgu8nWCbZywDrhM+J3IkFIAFhGRQdtD2P83b0eHVwiViNU+fs8M+BHhYPN+YK6P37s9JtQc59fO2UtLb3Fo+uFBj2idb/7hboTJsPWMC4G0ET5vfA4fLnsXrsffCJe+5Wsyn5JldVJXI/N1nE/Jshp1V8E1Amrqajc+nK+RuYzUVcPXUCfLUjJfJXMpjpS6q+F8lcyneJ+SuiqZr5ORkbn1MOwNcNP2OT78nIaWbXWarZU2nKfxBoxpFBt9uOzhpvKjCf9njAmBpXE5NpbIxESmhLVxI0wXiE0BaxIikxBFRQq2SESCjQokJnw+igrEUZHEFIlsgSgqEpmYxBZJbIk4KmBtgcjEIUCbUJUOQdo0wnLzusZlazDefvzzJgoV7Zxn6+XaFebXPsR7h9n6YD1hNoqhf6+Xy8AfAf894WRg+4zHn/pMp+EXwrZzPwX+Fvl6XygCDxG26zs14LHINigAi4jIoB0A7h70IDbIgJfY6kGONxDXQ2fuWqnTddkV4P8ADgP/gE7X3PWYwWBtzJW1d3n10v9LMRpnbvzuls+GP+/Et9zC4ddv7f2NT9zULbdxMSMET+ezEDxdGsJoI4BmLsWThupp43apr+OalVQaQdZXyFxKRkqa1ch8rRFOazifkroadSqN+3eN6q1rNC/aEJyb4dm7sLazWcVt3qYZuBvBGt+M4dmN264HctcItb7xO2r8Mloqpzf9fm+qqH48Vn0sFPsNf7/xnXzLyYPw79EMwmBD4MQ0pk9HNz7XWtlthlLb+PuNynAzrJpmwG1Wk8PnYxsT2ZiEIrEtEdmEyBaITZGIUJ2Oo1A9jUyByBZITOM2tkAclUIYNxFRI3Rbm2BNRGTjxn3FYawm/GTeN391rb9Nc9Pjcv3EAesB7k4P6+bvtvn4bfw7G6CarfL2/I84e/0FHBnWbvnwOyP0CThPmCo8TlibGhGCYty43Pyz2Phzs9F/7CcB6oQlGX8C/FPC9kQd8vjz926lL8UaIWxfBg51/n17pkCoACsADzkFYBERGaRZ4D7ydZYfQgj9MVs9yElq+A/uh9ISZvc5SDveOeMi8C+AKeDvkautNwyRSai6FU5fe57rtSvMlg4Q2xKFqExMKYQHY4lNAiZiY+jKXB3v08bU3VAR9YD3dTKXAY2pxI3bZD7D4XAua1RMw/ThlAxcCJk3rsfjGsHVN76uORXZNYOqq+PIQkh1WRiDT9c/71Mc9cZ9NH7qRnhqDU4hHDaLqM3r1v9sXn9zNDXrFUsTtczv3Hi7fLgRkBuXQ1hvVJ99bT1k+41V6PXr1q/3N6rsNO4jhOUwXTq6EVQjrInDdTZuTLVuVotjoub0axuuD8E7uul2GBsCsIlvXBeZOFSobdK4LiYiwTSmhTe/P8Y0qt/rly1x47LFmNan43rF3tF4nPmUelahml2nki2xUr/GxeW3WKicv8XjoSOWcOz+PPBnhKDYDMAx63uJNy8nhEdaTOgpsL74+/ZSQpW5Rqj+vkHYCq5zSRXiKmRbenk/SzgJuYd8vT8cb3zIEFMAFhGRQTpGOKOep3VeAIvAK40/O2ccLM/C6hSYD7Y6htOEygvALxEWd17g5gJqJxzh4HiKsLZuG5Vlg8WyWl/k9PwPiIwlsUXiqExsCjTqxDcCSesxtwdco1LrblwOldX1dbLN8JrdCMC+UaU0hpYplabxv42/DrOeRz9Wkw6fW69zrg/PmHB/1iTYxjmHtsPKLda33v4r8xd0b8esR/zmbOkGv/GGH09WfvPKn7/p/8NjAJ+CqQGOUDRvCdWYlgnf/qbv0bz+xqxx41qqvWBNRExCZJMQsonCv3VjGrVhfUr2+vpl07htjDFgiTC0Ng3zZKShKRnhxIxzGZmrUHUrVLJl6lkVYyNimzTWX2+ZZX3JyEvAH9P+Eo12O52FNQPbZTPcq1/YavgFOAf8kNALIU9LQaYIAXiC/u0OIF2mACwishNE6TBufwShy+dDtH9w1g8eeBt4d1v3YjOw2z6OfA34HwjNuGxjXOtdjjpTJRy0/W3g4HYHBobIhupbCAGONF2+kTZurDu9ZdhrTg4FvG+Z6suNrwr3E4UJuCa5Ea5uvrfbBclbxFZz67/cHOqGJ5gOXhuBv42mV7f+d2r+a0f4jddtnNF9x9c9/7FHoAOcr2N82pj57W8aZ+tE6JsnovvG/279Mxnjb3x183FvfGM1RFRoTCPvynm+AqFL/AnCCcTfJ3Rn3kx/txUyHq7vaqxD39J70zxhHfB18hWAAY4S3rt+PuBxyBYpAEtXrK/V2mphQoZf80BB//59F1dxr3wRVqZD5XG4HCN/08mWCdOfzw96IIQn1lvA+42/Z2yvAvwwsBeY7MroMDdvofOx6uCdDnxvtY5VBD52gqL10sb+XV35Nrd+vPqNl9votdUaccPJoZ4oAPcC/xC4B/hnhLCYH8aHk4Bb5wknIc8SAmeeHCE0KXyLsFZahowCsGzZ+tSjjcdiQ1mFkq5orO9qdhVVGO4P40OjJW/B9Pck/zZNEA5s8rS+C2AJeIGwDnd7/Pr00W2qduE+9gO/QQjBPX5yblwPK5Jnt368mttczpFZ4HcIDfP+J8IWav3as/z24hruZ1+B6th2ZyYtEKZ6PwLMdGVs3XE3oXdFEQXgoaQALFvQ2MPQOTwZFktiy8RRCcvHm53IKAhrslJXoe7WyFwdvG1snWHJ7aHDTjKc05+PEw4k8rb+9yph/e32ziYUKvjTT0FSxRx4B+oDzfkTwK8Df5+whlBEdoYS8EVCGD4M/J+E6cODk8WNxn/t9Ny6oxXgJ8BXyVcA3kWowOft5K20SQFYOuLJqLsaRTPGnrEj7Bo7ylRpH6VonMgWGo0hhvJAXLYlvMllrk41W2Gldo35tbNcWjtDJV280W1TZIN7CM2Y8hSAM9a33+iOegEq4xDVw5pg1/cfdw/w24Ru0kf6/c1FpOci4ElCMNtH2EbtTQZxQJZUcC9+DVantzsFGkI3/pcIs3Ee2PbYuuswYW3yYE82yJboiFTaFraHSJlO9nFk8glOzH2GQ9OPMFXaP+ihSc5UaktcWD7FOws/4r2FnzK/do6MlEghWNbFhArwAfI1ReAyYS3dQlfuLani33kc/8ZnsCefg8l5KC+3dDHuuYPAvwX8e+RvrbWIdNdR4D8mzKz5nwm9DNK+j6J7M5Ja1wFvtflfr+wmvKa+Qze6Zktf6WhU2uJvhN/9PLr313lo3y8xVdqnNZ5yS6XCJMfmnmH/1IPsH3uAFy/+ERdW3yB/7187hM2GcQp0TGiAtXvQA9ngIvAi3dzewmZQWsK9+SlIE+wj34M9Z8M0wd46DvwD4O8STjSIyM43BfybhDD8T4FvEqYS90f334+qrM/K2dfNO96mPYQdDH6EtkMaOgrAsqmwtrPKRLKbR/b9Go/s/zXGC3nrSC95VI6nuH/Pl8iMIz1f40rlHbzPbu4aK9tjHSzugVpx2ELwBKFKkQx6IBtcBE7R9S1DTJgCHdVxr34e8/D3MXveh6xnP/5DwH8A/Bb5O8kgIr2VAM8SQtohwpToqz3/rr15P3KE1+T3yVcA3kWYll1GAXjoqBQjm3JkFOw4d08+wYO7v6zwKx2JowL373qW+3d9gcQW8X6ouhTnX1LFn/4kLM0N2xZIhwkHEHlSJeyz29sDxUIF/9rn8JeOQtKN5s4f8wjwnwN/B4VfkVFlgE8A/wj4Twg9F3qrN+9HzQD8XrfusEvGCHsxlwc9EOmcArDckceRuTozxYPcN/cs02XNopPOFeMJjs48yZ7yMSKT4Hz/lyTtWN6EEGWHKvwmhD0UZwc9kA0uEaba9X5bi6SKP/UZ/PkT3T5x8SngvwJ+l1BlF5HRdgT49wknxT5Fr3suGN+L73CO/AVgCBXpvL2PSRsUgOXOPOAdM6WDHJp+WJ18Zcumige4a/JxivEEmVMAHnEThACcpwqwIzRaOU2/GppEGf7tJ7t58uLzwH8N/Cb5m1ouIoMzQ2iG94+BXwHGe/Jd0gQOnobyUrcb/VUJzbDyNtV4krDWWuu6howCsNyRx5OYApPF3YwVdJJLtq6UTDI3djRMg8aRr8a/0mfjwH3k68y5Az6kr1uHeEgq3bijiLBP5n8LfAW9t4vIxxWAXwb+G+D36MW+ummCOfw6xDVwXS2YeMLr8+lu3mkXjBP2A54c9ECkM3qTlDvyeBI7RslOYfRwkW2IbYFSPI01MV57RY+6CcLaqTxNKWkeYH0w6IF0KAJ+iXBQ+3n0vi4itxcT9gv+x8B/SLe7wxsPlQnM8Zeh1NXt3ponKM+Qry2HmuuAu38yQXpKb5RyR4bQxCi2xUEPRYaeIbEJGIP3CsAjbhehO2meLBGmQA/T/PwI+HXCtOfer+0TkZ3iKCEA/xNC07zucTFm73vhsu9azPCE1+e3yF8APooC8NBRAJY26JhKukWPJcEStuXIU+fMYaz+loGvA/8F8NSAxyIiw2cXYY/wfwL8DaBLlQ4P1XHsJ54PewJ3rwq8QJgC3ZPW+VtkCAF4asDjkA4pAIuISD9NEbZAytO0EkeoLHw46IG0qUhodPUPCdMZRUS2Ygz4VdY7x+/tyr16AxPXsI9/K+x/3h0OOA/Md+sOu2QvoP1Bh0ye1l+JiMjON0XYliNvAfgMYYpd3hUIXVz/IfAYmlYhItuTAE8TlqXcB/xL4OdstxlgFsP4Yre7QV8jbId0mPy89o0RZjUVyVd1Wu5AFWAREemnKeBuoDTogbRwwPuEfYDzLCFUa/5L4HH0Hi4i3WGAY4R1wf8d8AW6sbVPFmOf/GZojtUd84RO/WvdusMuiAiBfHrQA5H2qQIsIjLMXNTtM+y9Nk0IwHl6/1kBPqJv2x9tiQF+DfjPgCfIT/VDRHaOceBrhJNrq8CP2e7rYlwNa4GzrrzkXyOsA14mVF7zoNnXYjf5P4kqDTp7LCIyrAoV/Bufwl85BNHQNC+eplvrzLrnAvlbV9bKAl8G/iPCVMUuhl9P2PDO48nIfErma42POs6neFxj67I8nx8QGRbN55vD+bTxnAvPNeezG58d4POtua/4vw0c3/a9GbBP/nm3OkJfJyxXWe3GnXVJBOwnBGDlqiGRpzPwIiKy8+0lXx2g64QDqoVBD+Q2LPAM8J8Cn6WL4dfjyHwd7xzgiUyBQlQiMgUsBocj8zXq2Rqpr2NNhDFx+FMFaJGOhMCb4VyGwxGbmMSWMCbBAJmvk7kaqVvD4YlseK7ZwRyqW+BvA68C/wtQ2fY9OgvRtncwygjLVVa2PZ7uOkjoqq0XxiGhACwiIv1SJkwVSwY9kBZrwDvkMwAb4EHgHwG/SJcOrhwZzqdExBSjSQpJiWI0xni8i4nCXsrxFJGJSX2NSrrIQvUCy/Ur1F2FelYldRW88ViTYIlQZVjkVgzgyXyK9xnWWBJbJo6LFGyZycIuJpPdxGYMbwx1t0IlvcZy/RqVbIW0EYZTX8NgiExMn/PVbsJJt+8Ab2zrnoyHiWuwOtWN9cBXCVOh8+Qg6xXgbMBjkTYoAIuISL/sIRwo5Om9Z5VwcJfHtVt7gd8DvkIXGtKE6ZUOg6FgS8wV7+Lw5OPsn3yA2fJBivEEsSkRmQRjbKhWUaeSrrJcu8zlpdN8uPxzLq28zmp6De8dqU+xxmJUFRa5oVntxQMGYhszlexn//hD7J96iD3lY4wXZhsV4AiMwfk6ztepZqssVi5yefkM55dOcWntNJVsicynGAzWRPQxCJ8kbLV2mu0Eu6iGffR7uB/+ZjeW61QJVeBP041GXd0xiyrAQyVPByEiIrKzzRFCXZ7ee6qE/X8rNEs2+fEU8LeAye3cSXNNYeqrFEyJQxMPc3T2KfZPPMhc6W6mSvsxZrOla/dxcOITHK08w3zlPS4uvcHZxRe5vHaGuqsS2QIWizFWQVhGlvcOh8eR4l2dcjTFgYmHODT9GPvL9zEzdpCp4gGK8fgd7+fQxMMsTz7Kiblf4MrqO7y38AIfLr3E9folrHdENsb0Z7npPYTt1v6AbVU2DdQLXRoSFeBdQhV4d7futAtmyU8gl03k6SBERER2tllCFThPU6CngF8HHiIc4KWEbZHSlo96y+fqLZ+vEwJzfcPXNW/TvN4DtcbHEu1t4bELeJawNck2hCmYeM9c8S5OzHyae+Y+x13TjxJHne1ENVaYYawww4GpBzky9TSHJh/m/PKrnFt6nUsrp1lLF4mjIpEtKgLLyPE46q6C8xlTxf0cnHiQgxMPcWjyYfZPnqQYd9D6wMBEaS8Tpb0cnn6EgxMneXfxAc5ce57zS6+SuiqxLfXjZFOJsG97ifB6tnW+EYKjOtsslFYIe7Yvkr8APEm+tmiS21AAFhGRfpkhHLDkKR/NAP9uy9896+E1a3y0BuAK68G20ri+Rqgkp6wH3bRxXa1xf81pe98ETrF5pflR4BeALZdNPJ7M17EmZl/5BCf3/jIP7Pky44W5rd7lDROl3TxQ+jLHd32Gc4uvcmb+Oc4tvcZ89Rxr6XUiE904QPe5KqqLdI/B4MhIXRUwTBb2sLt8hLunnuTeXc+ya+wokd3+ofbeyXuYG7uLvWP38Mql/4d3F37MmlsmNqV+vJg2Z+4sbete4hrm8Jv4S0fDtkhbVwPObXs83TdDOMF7mXzNJJJbUAAWEZF+mSZUNvPE8PFAHtF5lTq0Ul4P0L7lo/n514A3CWuONzsCPAHcf4uxtcmTuhoRlrsmTvLEgd/m2NwzFKLubp1ZiMY4NvtJ9k3ex+XlM7x+5Vu8t/gTlmpXqGcVjLXEJtn6jyGSSwbvM+q+BkDRTjBXvov7557lxNxnmS4doBhPdPU7xlGRI7NPM1ncSyma5vX5b7OWLjeWH/T0+TVB6N3wDlsNdt5AUsUcexV/8Z7tBuCMEICXt3MnPdCc4RSz3Wq59JwCsIiI9MsMYcrxTtTOgrwy7a0Rs4QDztmtDiZzKRbDwYmTfPLQ73F09hki26OZ58YwlsxyZPZp5sbu5tjSp3jj8nd5b/HHrGTXyDwYEzWa94gMN+89nrBnr8UwW7qLe2c+zz27PseeiWOU4t69xFlj2T1+jE8e/jtYY3n18p9Rc2sYm2B615G9TJi5s71g5w3Ui3RpjJfJX+f+ZgU4QgE49xSARUSkHyJCoMvTHsD9tkiYNr3ZEWCR8LvaUpcbjwMcu8vHeerA1zk29yms6c/b/WRxH/cV9rKrfJRDCyd54+p3Ob/0GpmvgzHY/jTuEemZjBTvUiaSXRyfeYZ75j7HwamHmSzu6dsYZsuHeOLg16lnFX5+9RukrkrBjvVq3m2JMHsnIT/BrgJcGfQgNmgu8VG2GgL6RxIRGUbehGYi25tK1k9lQqgb5bmwzXXEm4nYYjdR7x01t8Zc8SCP7ftVTuz6TN/Cb5Mxht3jx5kpHWbX2DFOX/0BZ6+/wJW1t0k9LdOwtUxOhkVjyrNbpWDHOTT9GMdmPsU9c7/ArrGjbXRR775dY0d4dP9vsFj7iLNLL1L3tcZyg64rEAJwnqZwZISt66qEE4Z5MMU2TlxKfykAi4gMo0IV/85j+I+OdmNfxX6YJpwhH2XNZlrt3G6VG7uItic0vcpIbJGj009z/+5fJIkGV3CPowJHZ55id/k4e6+d4M2r3+H80ikqbhlL3JiSnbedp0RaGTwZaVbDYpktHuLI9FM8uPurHJ5+lKTDTurdtn/yAR7e+zdZrF7kauUscdSTAJwA4+QrAKeEadDXCdOO82AabYU0NBSARUSGkXGwNgm1EhQqgx5NO+YIBwijyhOqFe1MIawR9ris03YXaINzKc6nHJp4hPvmnmW8MPgdQoyxTJZ2c3Lfr7B3/F5eu/QnnLn2l6ykV0l9FUsBa0Z5UoDkmfPhOVWwZfaWT/DQ3q9y7+5nmSjszsWa9sgmHJl5krMLL7Jav0bdV7DEmO4+pyJCXsjTE7UZgK+RnwBcJLzPDf6BIZtSABYRGVbGgRmK6pklVH+72xZ1+DS3VdrsH80TKsA12g7AHkdGbBPumnqMQ9OPDWRa5u3EtsDBqYeYKO5m//iD/PzKN/hw+ZWwTdPWd3oS6RmHx/k6Y/E09819kYd2f5X9k/dTiMcHPbSbTBR2cf/uL3Bp7TTnll8lsbbREGtHawbg+UEPZIMp8rXPvdyGArCIiPSaJRwY5OvIsb86qQADjU5Wbd/YERnLruLdHJh4iFIyuZUx9phhqriPh/Z+henifl6f/wveuvo9VurXiKKCGmRJLng8matjMRwYu58H93yFE3OfY658V65OKjUZY9k/eR/7xk/w0cobeO8gB9XpHssITbAWBz2QDcaASeDCoAcid6YALCIivdYMwN3dhHb41GmvCVZT21MOnU+JSdg/+RC7x451PrI+iqMSR+aeZqp8gKnCXt648l2urL1DnRqxLWAUhGVAnE9JXZ2xeIq7ph7jE3u+xvG5z3R9/+xuK0YT7B2/n6nCCyzWLuJx+X0e+a7NpF4grAHOkxL52+tebkEBWEREes0SzoprCnR7TbA65n2GjcrsGT/BVOlAL75F182WD/P0wd9lunSQVz/6U84vv0bFrRBbVYOl/zJfBxyzxYOcmPkMD+/7VQ5MPTDoYbUlsgX2jN3LXPluFmsXcD4jMj3bF3jrjIPiKmRxN5bvLABLXRhVN5VQs8f6a5xQAAAgAElEQVShoHcYERHptYjQAGuUA7Aj7F1ZpwdHpd57ClGZ2eIhkigvu4JsLolLPLjny3z2rn+H++eeZTyaInN1nG979rfItqWN8Lu7fJSnDnydT9/994cm/EKYBj1XOshkcT8OH6ZB5423ML6Iffg5SLvyGrVE/qZAFwiznSTnVAEWEZFea1aA8z2PsPd6UgH2ZEQmZjyeo1wYvmMvayIOzzzCWDLNVHEvr1z+ExZrHxFT6PsexjJawtZhKQbPXROP8MT+3+LY3KcpxsN3rq5cmGWisAvjwRufzw3GvAnV3+6oEqZAO/JT0FMFeEjonUVERHqtWQEe7KaZg9fpGuA2eDyeyBQYj+eIzfD+iufGj/BE/NuUkmlevvjHXFl7DywKwdITHo9zdWITc3TmKZ7Y/3WOzjyFtcP5eItsQjmeIomKpK6Wv/DbfQ5YJryu5mXaS5HR3u5vaAzns1xERIZJRJgWtuNbk96BpycBGLwHayMSO0FkhntLofHiLh7d9xsU7BgvXPhDLq+dwRmDHemHjnSbx5G5OgU7xonZz/DUga9zaPrhQQ9r2wpRiYItU3dhSne+tu7tiRXC0pK8BGBNgR4SCsAiItJrltHeAqmpJwE4ZGuDtRHGDP8BbyEu84m9v0xkEl64+AdcXD1NhidSJVi6IGxzlFKKJjkx+xmePvQ77J8YnvW+d2IwWOzOj73rlgkhOC9V1wJ6rxsKeZkzLyIiO5clHBiMuho9CcDgvcO5Gr79rYNzLY4KPLD3Szx98HfZWz4BPmt06RXZDk/qahTtGPfOPsszh/7ujgm/AO7G8yScFBsBq+SrE3SCAvBQUAAWEZFeiwgHBqPMESrAXW6CZQCDI6PqVsjczgmJsS1y7+4v8PTB32FX+QjOZ7gdEvBlEDypT0lMkRMzn+bpQ19n78SJQQ+qq1Jfp+6qje5XIxGA1whV4LxQAB4SCsAiItJrCQrAnlD97XoF2BqLc3VW61dJ3Vq3736gElvk/t1f5In9v8Vc6RBptrN+PukXg/Mpxmccm3mKJw/9G+yduHfQg+qqzGespUukro43IxJ/QwBeIT8NrxWAh4QCsIiI9FoZBWDo0RpggyUjZSW9xmp9odt3P3BJVObBPV/lwV1fYiKZI3M1vM/L8a7kncGQ+RrOpxycOMnj+36Tg1OfGPSwum6tdo3l6lUcHoPJTSLssQohBOdlaojWAA8JBWAREem1MRSAIawB7smBmsFQz6rMV85R34FV0nIyxQO7v8LRmU/R6OE76CHJkPCEtbET8S5O7v4V7p55ErPT6qPes7B2jqXqRYwxGDMyh/c1wjrgvOT9mHDCV3JuZJ4hIiIyEIZwRnzUA3BzCnRPWBOR+pRLy2+xUDnfq28zULvGjnJ89tPMFA8BHu/zUvSRPMt8jYId48jMMxyZeZI4Gt69sm8ndXWurL7LtbUPQx9oE5GfTNhTzQpwns6Ijfp73VBQABYRkV6yqAIM4Wi0So8qwJFJ8NS5sPw6l1fe7sW3GLjIJhwYf4DDk49giUldfedV8qTr6lmFcjLDPbO/wEz50KCH0xM1t8KF5de4Vv0Qa8JmSCOiSgjAeUr7edmTWO5gZJ4hIiIyMBEj05PljlJ6dqBm8d6zWL3AxeU3WK1d6823GbDx4i5my3djjMX3rqAuO4jzKUVbZs/EcazdeXtJe+/4aOktLq2+Q0qNETu0rxOmQecpAO+8KQY70Eg9S0REpO8Mofqr95twsNazAzVjIlLqvH/9BT5YfBHn8zQrsDsMobpl8Lk64pWcM2CJBj2KnlhNr3F6/ntcq5wltqVRqv7Cemf9PL0cjPpsp6EwUs8SERHpO0uYErbzSi+d62GlwhOZmMjEXFo5zVtXn2NxbeetBa6mq1TqC3j8qB3oyxaFLtAZK/WdNyvCuZQPFn7G+ws/YTVdIDYJxozUZJs6YRq0ArB0RO8eIiLSawZNgXb0oVGLJSIj4+z1lzh16Zus1RZ7/S37yLNam2ex9hEejx2dTreyDcZEpK7KYvUCaVYb9HC6xnvP+aXXefmj/49rtYtEpjDoIQ1CnR7PrNkCTYEeAnr3EBER6b0aPewC3WSMIbFFFuuXOHX1W5yZf37HbIvkved69SOurr2HcxnWxLk66pV8imxMLV3h8vIZKun1QQ+na66unOXnl/6MD5dexvmUyI5k7yVH/qZAj/rJ3qGgACwiIr1k0RpgCFWKPuzbE9bIRkRcWXuPFy78IW9d/QH1rNL7b91jqatxee0drlU+BDyGkdnqRbYhMkWq2Qrnrr/EYu2jQQ+nK66tnOXVj/41b85/j7qrjGr1t0kvAtKxUT8gERGR3mquAd6ZHWjal9GXABzEtoDBcGHlFD+98PucuvwtVmsL/fr2PXFp+TTnll6m5tdCI6zRWusoWxSZiMzXuFx5j/OLr1JNVwY9pG25vPwOP7v4R5ya/yYr6RWsSTCjs++vSFeoKYmIiPSa1gD3aQp0k8cTR0UyV+fc8mvU01VWqvM8sOeLzJYPNQ6Yh0elvsRbV77L+aXXiWyh0dFXB/zSnsgkVLM1Ts8/x97x4xyZ/eSgh9SxWrrKheXXefWjP+XMwvOs1RdC12djGeHngmeEf3jZOgVgERGR3kvpQxOsmxkim4CHK2vv8dOLv8/l1dN8Ys8vcWDqIUrxZPh8ztWzCqcvf4+3F37EarpAEpUHPSQZIh5PZAtkrsYHS6/w+pVvM1U8xOzYoUEPrS31rMpq7Spvz/+QU1e+yUerZ6i6SpjloUZwWeNDIVg6ogAsIiLSe31aA9wqHBNGpoCzdVbSeU5f+wHzlQ84OHGSI9NPcGjqJOPF3dicVoTrWYW3r/6Qn136I65Wzzamdot0ymBNTOprvHX1OQrROE8d/F2mSnsHPbDbylyNhbXznF18kfcXf8qF5ddZql3C4UgaSxyEqPGhX4Z0RAFYRESk9+r0vQLc5LEmDgHA1Ti/cor5tQ+5sHKKXQtHmCvdxUzhEOOF3YwlUxSiMawtEJmE2CZENiEyCcb2t9q0XL3KW1e/x2uXv8HFlTcblbwYFXukcx5jLIkpsZIu8vMrf0bmU07u+RUOTD04mBE5R0aKy+qkvk7qalTTZVbq8yxVL3Kt8gFX185yefVtFtbOk1IjjkrE2ma2lZbXyJYoAIuISK9pndZAKsAfF9kE62NSX+HcyinOr/ycoh1junCAiWQP5WSGQjxOZGMiUyC2CbEtEJsicVwkMUWSqERkCyS2RGyLJKZAZIvENz4K4UDdFrbUqGq5epnLa2/z7vyPOXPth1ytvI8lIrZF9DCS7YqjIsu1eV679KcsV+e5b9fn2TdxH3Plu7F2CzMhPGSuTuqq1F2FzFdJs1rj73UyV6HuK6RZjczXSV2d1FdJ0yqZr5G6GqmvkWY1atkSy7V5FivnuV67SN1XMSYmshGJKWHUu3Yjgxr6yhYoAIuISC85QgOoAVU/c2Mrv4Oupz2DCaHUGIy3eByprzFfPct89YNwC2PwvlFWaQRYA+DD5xJToBBPULLjFKNJCvE4xWicQjROKZ6gEI1RSCYp2glKyTiFeIzYFohMjCHCmghjIiwR1li892S+Tt2tslS9zLnrr/He4l9zde09ar5GZBKs1jpKlxgMsS1Rc2ucWfg+l1bf4vDkoxydeZLZ8t2UkkkiU8Q2HvvOObxP8Ticz3BkZD4lczVqbo1qbZlatkolXaaaLVHLVqmlK1SzFSrpCjW3RDVbppquUvMVnE/DM9v49Se4D5cNPvznG8sXGg3ftNb3thKggKrA0iEFYBER6aVmAB549XPAOp0C3ePKhmms+w1TisPht8N5j/eucWDuoXEgHmr44VZ1KqxlyywZizFRY0siizW25XLL9TYiMQWKdozYlklskdiWiaMysUlwPqWSLrJUv8RyfZ5atkbdreK8a4RmHfxLdxljiUxC5jMWaxdYuXaN967/NWPJDFPJQSYKu0lsEbyn7qqhgusqpFn4c80tU8vWSH298bxw4XnjMzyezLv168jwrvXvLSeXbsS2MJO3+Z+1UWONr0GzHu7IEl7EFIClIwrAIiIivRVyY2cBuEhf3qPDwXU42I6IbncYueH69cCc4UlvhGNwoXrlfcvtfDioN3Gj8mtvXG5u4ZK5GqmrkPkMayMiExMZrXWUXjJEJsbjqbs1qul1rtcuc9V8SBIVG1ttcaPq63yK965RAa7jXBZmUjT+C5cBY2+EVwMYYzA2atxfpzlN4XcI1QY9ANmcArCIiPRaxmhXgB1QpbPfgSXHa9uagfmWS3zN+kH7xy553wgTWSgwtwRwaxMizWaUPjMYIpMQRXE4rePrVLIa649ec1PHZWMMsSmCNTfqs2bDPUrfFMjfFOj6oAcgm1MAFhGRXtIU6PUKcKe/gyEt/5jbXzL5OlIVWdes2HZ2aKzH80DF5C8AqwI8BHJ7dllERHYET6h+jnITLI8agYmI9IIlXwG4MugByOYUgEVEpJcyYI3RPiueoZMAIiLdVgLK5CsAawr0EFAAFhGRXhvl8AuhApwy2tPARUS6rQyMk688M+rvd0MhTw8YERHZmWqM9kGBpkCLiHRfMwBHgx5IQwasDnoQsjk1wRIRkV67APwh8B5hepgBEsJ7UNS4HBFOyiaNP1uvb25YG7dcjjZ8rvU2tuW65n0NWooCsIhIN5WBMfJT0KsBK4MehGxOAVhEZBgZD1kCLg/ZblMXgX9GOEjxrAfdZghuXo4Ia7oSQmfPUsvnSqx3/Gy9XNxwm2LL1xdarm/eptxyfTMs25bLhvXgbFo+b29xfXSL29/qcnMK9JB2dRYRyaVmBTgv6qgCPBQUgEVEhlGawJ6zcH0XrE2AzfXy0mYAbFVt82ubYdO0fEQtly0fD6vmFp+3t7ivZgXZsh6mmyG8ebk1MJdaLhcbH3Hj+tKG2zfvZxa4DpxCB0YiIt1UIl8BOCU0fZScUwAWERlGaYI5+DZ8dAx/fQ6KO3bnBc/gpg63hmTDzRXj1utbg3TEzaG7QGh+dQVY+Njd10u9/ylERHamEmEKdF6oAjwkFIBFRIaR8bA2jjn0FqxM4Ven8l4FHkbNyvXG6nV32Drmnp+By8vyNRGRodKcfZMXVWBp0IOQzeldV0RkWLkY9nwAhWpYDyzDJUswB86A11uxiMgWjBOWneRFlY/N9JE80ruuiMjQ8lAZx9zzAkxdVZAaJsZjPvEDqBcHPRIRkWFkgCnyVQGuA8uDHoRsTkdLIiLDzFmYvgTGaSrtMEkTzNxFwjGciMgIMB7i5k5421YCpslXlqmhKdBDIU8PGhER2YrqOPbk92FsUVXgYeAt9vFvD8sWViIi22ccrE7jXn0W4q40bZwgBOA8WQOuDXoQsjkdKYmIDDtvoLQMVtvMDgVvoKwigYiMGGehMhEqwds3Q5gCnSc1tAZ4KCgAi4jsBPUS9rFvQ2E1BCzJpyzGPvFNiHrTWFpEJNdM13YrmCN/AbiCKsBDQQFYRGSniFJIaoMehdxJXG+sgRMRkS2KCAE4b1OgV1EFeCgoAIuI7BRZjH1c1cXcqpewj31HVXoRke2JgFnyF4CvE9YBS84pAIuI7CTehmZYki9ZHNb9dm/6n4jIqIrJ3xRoT+gArRf5IaAALCKyk3gbqozqMJwfaQLFtbBGu3xdnbpFRLYnAvYQGmHlxXXC9GcF4CGgd2ERkZ0mLWB2nUd7zA6ah3oBSiuYR78D5WVw8aAHJSIy7GLgADA+6IG0WACuAtmgByKbUwAWEdlpjMc89EOoFwc9khHmoV6CsSXMI9/FjF8PlWAREdmuErBv0IPYYAG4AqjL4RBQABYR2YmyGHPoLU23HYhm+L2Offg5zOQ1nYwQEemePDbAWiQEYFWAh4COjEREdqIoxRx/GSpjhN4c0h83h18m5qFaRv8GIiJdYYGDwOSgB7LBImEKtLZhGAIKwCIiO5Gz4MGceEnrTvspLYbwe/L7MDkP9TIYhV8RkS4pAneRrw7QsD4FWi/4Q0ABWERkp4prmANvQ3VcIawf0gRTWsY+8r0Qfmuq/IqIdFkzAOetAnwNmB/0IKQ9CsAiIjuVs5BUMff/ldag9pqLobiKefS7ML4QpkEr/IqIdFszAOdpCyQI058rgx6EtEcBWERkxzKhCjx9SYGsl7yFuBr2Xx5bbJxs0O9aROQG4yGudeOeCoQAnKezuiuE6q/2AB4SCsAiIjtZFsHEAubB5xshWLrKG4jq2Ce+Gfb5TQuDHpGISL4YD9Ux3CtfhGjbuwRNkb8tkC4Cl9GZz6GhACwisqMZiOshnLlo0IPZeWyGfeLPobgGmZqNiYjckrewOrXdfhQGuJv8bYH0EWENsCrAQ0IBWERkp0sTzK4LmAf+EmqqAneNcdgnvwGFalhvLSIit2e2nQ8ngPuAse0Ppms8cJ6wBlgV4CGhd2wRkVFgHCQ1sNmgRzL8vAHrsE99I/xOvRn0iERERsEscA/5CsAZ8CGhCqwAPCQUgEVERkGaYPa/jbn3BaiWBz2a4eUsRGmY9pxUBz0aEZFRMkf+KsDNAHxl0AOR9ikAi4iMCm9DF85CRVXLrXAxJI2GV4U1/Q5FRNrVndlHc8AJIE8NLVLgHKAzokNEAVhEZFSkRcyhtzBHTkFNVeCOZAkkFexj34LiSjiZICIim/MGlnZttwGWJXR/3tOdQXXNPFr/O3T0Di4iMjJ8CHKlZRi7rhDXFh+2NiqsYh79DowthUqwiIi0JyvgXvnCdqvA44QO0Hnr5HgWWBj0IKQzOvoRERkl9QLmrjcwe85qLfCmPNSLUFrGPPJdzMQipMmgByUiMmT8dnsmGOAAoQFWnqY/V4F3gMVBD0Q6owAsIjJKjA9bIc1cgqmr2r7ntjzUSzC2jH34OczUfAjDIiLSb839fx8gXwF4GXgbVYCHjo58RERGTb2AOfwWZuoq1AuDHk0+1UtQXsKefC6cKKiW0RIvEZGBsIQA/OCgB7LBGqECrAA8ZBSARURGjfFQGcPsfydUNlUFvllaCOH34e+H8Fsrb7d5i4iIbF0MHAV2DXgcG60QAnBt0AORzuioR0RkFKUJ7HsXimuhMZYEaYIprWAfeQ6mrqjyKyIyeHuBI4MexC1cBS4OehDSOQVgEZFRZDxUxjHHX4LJeXWEhtDdubiGeeS7MDGvyq+IyOBZwtTnowMex0Yp8B6wOuBxyBboiEdEZFS5CGbPg3Xh8iirlSGuYh79CxhfaDS8UvgVEdm2ZFszhPMagOeBNwjrgGXIaDNDEZFRVh3HPvQ87tVnoTIBxg16RP3nDfbpPwk/+9j1sAZYRES2zxvcS1/cznuLBe4HDnVvUF1xhRCAVQEeQgrAIiKjzFsYX2Rkq53eYp/48xB8MZDpbVFEpKuWZ7aznGQfYf1v3qYpXQXeRA2whpKmQItI34xoxMq/WhH72HegsAreDHo0/eMt9olvQnk5TAFXN2wRke6zW67+xsDDhBCcNx81PmQI6VS33JEHMp+SUWOEDoulRzJfB+8xRo+mfDGQVCFKBz2Q/miEfPvEn4fwO0qhX0RkeEwAnyR/058rwBm0/ndo6XS33JHBUEtXqKTX8Yzg2kDpmtRVWUsXcT7D6HRK/mRJqIZG9UGPpLe8BQP2iW9BeUnhV0Skl7bXSX+aEID3dGcwXfMBYf1vZdADka1RAJY7Mhjqvsr16lVW6wuDHo4MsWp9iWurH1B3FQwWTYjOqdLKoEfQOy4C47GPfRvGFrX1k4hIr1XGt/PVh4ET5C+vvEdY/7vDzxjvXHl7QEneGMAYFivnuXD9FN6rCixbs1j9iHPXX6KWrmCtVl/kkrfYx7+1M4NhFkOUYh79dtjjd9S3fRKRblkCLoKmyX2McbiffWWrM20mgMeA2e4OqivOAu+gM/lDS0ehckcGQ2RiFqrneWv+++wdv5eZsbwtxZC8q7sKH15/mUurZ6j7GpHVNjO5lSWY6Uv463vYMe/taQKFKubk9zDTV6Gux18OLBGqKKuE7q6tR8gx7Z+gj2m/O2zU8r3u9OA2je/f7jFSJ7dtjqGT294pPfiW25pNbtvU7u1kc28D/woYB/4eMDXY4eRQVIcs2cpXHgY+Tf5+p3VC+L0y6IHI1ikAyyZCAK5mS7x//afsnb+XR5K/QSnJ2+uR5FXmUs5ceZ43r/wFFb+GNZGOvPLMeMzD38d/7/cgGfblTT7s6VuoYE5+HzN7CWqlQQ9KgjPA/wi8D7T+o9jG39sNiWWgSAiCm52xKTY+4M7VOgskjdu2E5bjltveiWncb0J7Ab/Q+GgnADfHu9n9+sZtS23eNiL8jiM2//3axhjaObZsnmRoZz1M87bN4L7Zv0fz9u1o3m8nt23evgL8c+BfAJ8CfoP8hbVhdhB4kvXnbF6cI5z4UMV/iCkASxsMkS2wVL/MSx/9IRZ4cM9XGSvMYswOnCopXVNNl3l3/ie8eOGPuLD6JhiDNZp6mntZgtn/Dv7KYTBD/B6fFqGwhjn5A8zsRaiObbchi3TPVeCHhADcqhmKOgkl7TYVsKwH616EqHarr+3+fJ2MwdDeSYNmqG3nfj3rY+12oGyeOIhpLwDHhOB+p/t2Lbfb7La+8fkCm5+QaI6veUIibnyvReB5wiyGCpBt8nNI+wxwlLD/b5444BTw7qAHItujACxtsSYG75lf+4CfXPwDrlY+4J6Zz3Jg6kHKhRl19ZWb1LM1Li+f4Z2Fv+bM/A+5svY2noyILU2Dkn6L6ph7f4o/dy+UlhnK2ZJpAoU17Ceeh7kLUFH4zRnHrQODQ5UV6a/NQnvrNPPWKek11h/DY5vch3TmMPA4+av+rgE/J1SAZYgpAEubPNYkEBmuVT7ktUt/xqXlM+ybuJfp8gFKdgJrop2yYlC2zFFzayzXrnJ5+W0urLzOSnoNayyR0brLoeEseIM58hr+wj1gh6ywkcVQqGJP/kDhN786WTcr0kvtnnBxqOtvZ5IKW+wl8TjwWfJ3UqEGvE6YwSJDTG8+0gGPJSKxZVJf48OVl/lw+WUSU6AYTxAZPZxGnSOjlq5R86t4DJYQfK3J23uYbCquYQ6/iX/v0caWQUPyb+giiOvYk8/B7EWFXxHph06miY8G6/BnngS3pZlfJ4H7yF8Avkho3idDTolFOmaMJTIGvMGTUfd10nQBNBF65PkbfWjCWl9rYj0qhpWzENcx9/wEf/Zk6OSZd96CzTAPfw9mPoKawq+I9EVz7bE0GRdmEDnb6evwYUIAztv05xrwMnBh0AOR7VMAli0yRCYBk9Cc3uLxijrCzb1gFD6Gl4Gkitl1Hn/mkzC2kO8qsA/NYc2j38VMXYZ6GT3+RKRP2m1CNlriWliS0j5D2ProE+Svor4E/AQ4P+iByPYpAMs23HxwqUqfrFPw2BGyCMavY+7/Ef7txyGpDXpEt+cN9vFvweR82PpIj0ERkcGJ61uZgVMkrP09Qf6mP18HXiQEYRlyeTu7IiIiuWHCGfzxRchyPLvPeOwT34KJhXyPU0RkFER13Mtf3MrWc3cRqr/jvRnYtrxN2ANYZ1d3AAVgERG5vTTBzF3E3P9XUM/bkqwWY4uhAZaISP+1uw/0aDAe1iZDX4b2lQjTn/O29y/APPACcG3QA5HuUAAWEZE7sxkUKoMexe15g/vpLzf/MtChiMhIsmgN8M1Mx9t57wG+RGiClTcXgb8CFgc9EOkOBWAREbmzNMEceAdz70+hVh70aG6tOoZ74WuAUednEem3CHWB3g4DHAc+RagE5817hArwEGyHIO1QABYRkc35xnrguJbPbtDGQ3Uc9+JXw7YbNhv0iERkdGgf4FadV3/ngC8A+7o+lu1bAk4BlwY9EOkePVlFRGRzaQFz+C3MsVcaXZZzyDhYm8T97CuQJhClgx6RiIwOTT2BxvrfqU57MtwHfA2Y6s2gtuV9QvW3OuiBSPcoAIuISHuczX+jKZvByjT+5S+Fpl2xZqyJiPRNXMG99jlYnWq3EhwDjwAPkL9GYhmh+vvTQQ9EuksBWERE2mOz4ZhaHNfxS7P4V74A1XKYti0i0juOEJYE0+kewPcCXwQmejemLasSAvCZQQ9EuksBWERENmczWJ6Dxd3DEYKTKn5xD/7VZ6E63gjBeSsuiMgOkQI603Yj/Ha0BvhJ4HPks4nYe4QALDuMArCIiGyuUMHPH8Cfv3dIphUbKK7hF/eE6XjVcUi0hEtEesKjNcCh78JHx6Ay3m4FeBZ4BjjQ24FtiSNMff75oAci3acALCIid2YdLOyFK4ehuJrPLtC34kMI5tq+EIIrY0MS3kVkyHhCYBptcQ3//klYmW6nCmyBTwOfJZ/Tc+rAj4G3Bz0Q6T4FYBERubOkhl+Zxl88NnwB0hsorcLCPtyrz4Y1wdHQ/Ax5PCgUkY9zhGnQo82bMNPGtnUuYIrQ+fmh3g5qSzxwFngDdX/ekRSARUTk9myGX9iD/+ABKK0MT/W3lTehcr24J4TgehGsjlVFpGsyQsVwdDX3im+vR4QBPgF8CsjjvnoV4DngnUEPRHpDAVhERG4vyqBegKuHhjs0egOFNbi+G//KFyFLOm3U0m8rqPIgMizUBCup4t99FH9tbzsheBr4NcLWR3m0CHwH+GDQA5HeUAAWEZFbsw6u78Kf/iSUVxj+Gblhep5fmsO99CXwtpOtOvrtInB+0IMQkbbUgeVBD2KgrIPFPaHh4Oavq/cBv0iYBp1H7wAvo2ntO5YCsIiI3Jpx4CwszeW9WtqZuA4rM7iffWXQI7mTD4HT7NzGOkV0DCI7R4VQNdyJ2u9wbbN23itmgS8D92xvWD2zCPwV4SSk7FB68xERkY8zDlamca99Hgqrgx5N90UprE7iXvxaXqvA54D/C/gTYG3AY+k2R6hu78AHloyoVeAyO3Ma9AwwzmZTgIxr97X0AeBvEqZB59G7wLcIy1Bkh4oHPWnQ3YAAACAASURBVAAREckpF0F1bOfun2sdrI3jXvga9ok/J5wTzk0Yvgz8S0IX0mng84MdTtekwE+A/xu4MuCxiHTLdULX4DXy0dTJtXxkrFdxfcv1vvG51r+7DR8AlwgzUm4/HbhQxZ9+Cn/h+GY7BUwQtj16jPyuqXmD8Bq1E09mSIMCsIiI3Mw4WJvCvfTlnRt+m4yH6hjur34DykvYx74DWRwqxB4GeIzW/MW/DPzvwGHgeB+//8YzAb6DyxuvazYIWgFeA/434I/R+jrZOa4CrxPWAd+psnmr58jGv7d7uU4I3NWWy61/rxIq02uE51+NMFW7+VFtXLfa+Hv9Np9fJkwHvkNF1IXXTReF185bs8AnCdXf8u3va6DeA/6SnTudXRoUgEVEZF0z/L741Z217ncz3sDqFO4Hv42Zu4h58IfhYC6phmZZg9v+aY0wDfoXgbu5+X17KwfNGy83D6Rr3HyQvNZyfZX1g+Lm31sPlqt8/AC7eZs6IeimjcsfAW+i6orsLBXgFcLMjYOEyuoK6+Gy9fnQDKk11p9Hrc+h2oavqW34mrTlz3rjezW3YWo+11zL5ebt3Ia/N6u/tcbltOXP9hkHLgkB+M4zaCaALwKf7uj+++slwvZHbe3lJMNLAVhERAKbhXW/L36t3b0cd54oDfseP/e7mIOnMcdfCb+LpBIC8WCC8HlCxfRu4Bg3HzzXNlyub7g+bbmuyvpBdcZ6mG39utbbpRvuq/W2zYPwyoavbX5eZNS8TXiergFvAT8jhODW52LKrZ9HG08YtV7X/Jr8nZG0Yea0f/OT+HP3QaFyu1sa4BngS0DSr+F1KANeJDQfzM1aGOkNBWAREQnT1pZnQuV3VMNvk/FQXMVfvgv/wQOY4y9j9r8LxRUoVCGNGcDU6L8gHAzfy81VpSrr1aHWj9bPb6zOikj3LQL/K/B9wv6xZwY7nB5rht8zT+E/eACKd+xpN0nY9/exvoxta14mrP3Va+QIUAAWERlpBuIq/vpu/EtfymtH5MGwDsav48/dh3/nMcx9P4bpK5jpyxDVIO1rr5vLhOpSc57hxg9Q1UJkkBwh+H4w6IH0nPGQ/f/s3febXFd+5/f3OfdW6NyNBho5EIkgwUzODDOHQ85Q8oxWGslaaZW11io867Xktb37+C/wPvbjx7uyV7LG0iqspJkd7WikmeEk5kwwgCCRASLnzrkr3Xv8w6lGIgE0uqv6Vvi8nqfY3dWNuodAV9X93HPO9xvijt6FO3k7tExeb3WMAR4BHqN29/5G+MrPu6jFmXapOAVgEZGmZSA1gxtdjvvoSf91M+37nQtn/Ox42xju+F1QzMC2tyEzhek76f++Fi8Iz+7XExFJTljEDfThjt0N7aM32hqyDPgFfPujWnUeeANfo0CagAKwiEgzcsYvWRtZgdv9hN/f2uxLn6/HGQgLfrb84/v839et70BYwKw+BLGFUgZNwopIQ7MRlFIwuNa/h1w//Ab4ys+PAZlFGd/NKwKv4at46wW8SSgAi4g0G2cg68NvvOdxP4N57dYVcgVzsTWUO/SAPxksZCCVx6zb5/8uixktJReRxlNeIeQOlYteZa+79Bl80b5fxrdxq1X9wHdohqXrcpECsIhIM5kNv8Mrifc8BoUshCraOy/liqfu4wd8leiZDkzbGKzbB/kWH4YVhEWkERgHpTTuyL24s5shc8Pwm8W3b/sJYFELJtwEB+wD3uFS73VpAgrAIiLNorzs2Y2swO15FAotflmvLEx6BpzBHbsb1zqOGeuDJWcxK45Crk0hWETqn3Fg40szvzeuhH8f8FWgu+pjm79z+D7rZ5MeiCwuBWARkWaRmcGNrsDtfrw885sngXY+jancOolS2rcEGVwDYQmzvByC4yDpEYqIzE8qDy7A7X2w3O7ohu8bWeAn8dWfa9k+4If4VnLSRBSARUSaQaqAG+27LPwWUfitAhP7E8RiGnfwM3DsDtj4IWbZKci1grNJj1BEZO5SOV8oMUrjRlZAMKctM18EvoLv/1urRvDFr7T3twnpnVhEpNEFRdxYL+6jz/sCTdrzW31BCQotuLE+3MHPEr/5s5BrL+8b1pJoEall5fZvmRni3Z/HDa7BjSyfa/hdAfw8sL26Y1yw94Dvo9nfpqQZYBGRRmYjmOzBffQURIGqPS8mE/s91vk2iK2vuI3D3vOi3zcc6S1YRGpQeop47+MwscRv4Qjm3CIvg1/6/BiQqtr4Fm4SeAX4CF2RbEp69xWpKnfZK6u7+DLrPvF66y7771WfOfeJ+z7xGOWfsTYkMCFa2iqAD2DTncS7nvZLb9XnNxkmhiD2laGdId75RbAx9r4fqUCWiNSWdA637zHoX+9fn8qtj+boDuDXgfXVGVxFRMDbwMuAqkA2KQVgkQpyxBcD65UR1Pg7jCl/dXVAvXTPJ6KrMZfu/ZRcO/snLRZjLbErEsU39YYljcg4yHUQ7/xS+Wv9TiTOOH8rZgCI338Ge/8Pwc5eHNOFKxFJgHEQWwiLuP0P4c7fMp/VQmuAXwTupbZfzCbwha/eTXogkhwFYJEKccREroSLI6yxWBMS2BSWFJaAwKYIbJrAhFj89wKTxlqLNSlCk/I/f/HPZspfB4QmxNoMoU1hsITWf98aP+MbhhlSNsPIzGl2nf97hnOnCW1L0n8lkhTjINdO/P4zCr61aHbWt9BCvPMZ7L3P+xZVqYL/eP3emiIilTEbfDG4U7fjTmz32zZuPvxa4El826POSg+zgmJgF/AGmv1tagrAIhXhSJHhlq4HWNGxHQMExmIuhmCLKQfcgABDSGBDApPC2gBLgLUpAkICE2CswdqM/z6WwAZYm8aaEGusD9EmgzXm4nXW2EXsLz5P5ByRi/XkblY28suedyr81jzjfAh+4+egcxC7/VXA+v3BapskItVkIzDgTt+KO/QAZGYW0hf+XuBXgY2VG2BVDAP/AOxNeiCSLJ0jiyyQowRYlmTXce+Kn2VT76OJjOPc+D52Xfg2E4V+UjaTyBgkYUEJprr8smeF3/oRFvy/2+v/FLPsFGb7a/6+KFTbJBGpMOcvnE9140b6fPjNTi/kAXvxS5+foLaXPsf4vr/P45dBSxNTABZZoCiOSAUha7rupa99WyJjyBXHODbyNuenDlCKC2SCtk8ptCUNLSzCRI8veCX1xzjITOMGV8O+RzDr9/h+whlVixaRCgmLEBs4v5l476OQykN2igXk1hTwU/ilz+lKDbNKzgN/D5xIeiCSPL2riiyIAwwtQSerO7bTnl6awAgcZ8b3cHj4NYpxnsDW+nuQVJaBVA43vhS36wt+xlCzv/UrPYMbWYE7uxmz9gDm1h2+d3Axo73BIjI/YRFwuIF1UMji9j8M2QnK1TkX8sjbgH8GbKrAKKvJAR8C38G3QJImpwAssgCRK5GyGVa2bae3dd1skedFNZUb5NjoO/TPHAFjCUxKs7/Nwhk/Qzi6DLf7SYhTYNXnt74ZvzevfRR3drP/vLsfs/SU/7d25mIVaRGRazN+K4Ut4c5tglIKd/AhwK82qcBq5V7gN4GHF/pAi+AUvvLz8YTHITVCAVhk3gyluEB7Zgkbex6iM7Nq0UfggOOj73Ji7F1iExHUdN95qShn/EnM2HLiPU/4UBQUkx6VVIoz0DLp25GcvB1u+RBaxyEOMOv2gyn3dDb4Kq6lDFf3CheRJuUMZKd88C204I7c498jMjOVOkIW+GngF4D2Sj1oFb2GL36lF0kBFIBF5snPsQYmoCuzklWd20mHi992aDx3gSMjbzA4fZQgSGOx6PW9CTjji5YMryDe+xjks+UlbtJQnPH/rqkC7sytF9uVUMz6mWHw97VOYNbt9XuFoxBK6UutlkSkebjyrG9mBs5uxh38HORbfWX5yoVfAzwI/A6w+Ff+b95J4EfljyKAArDIPBlKLk972Mua9nvpyPYt+ghKcZ6jQ29wfuogkYlJoWqxTWF22fPI8nL4bV1I6wqpB7MntbNfnth+2fcsZKZgugMKWczS07D6sA/Bl37Ih2btIRZpTLMXy7JTcHqrryMwuNZfEMssqMLzp9kE/Bpwf6UfuAoi/L7fV5MeiNQWBWCReYqjAp1tK7ml5zNkgrZFP/7ozFkOj7zMWP4coc3WdO8BqRQfft3YMtyex8vhN09td56Qikvlr/w6DnAn7vAfx5dhRlZeWTk6CjG3vgPZSci3oN8XkQZiY8hO4vrXw76HcZNLYGKJL54XVLwmRBvw88B/C9RDs/JjwPfR7K9cRQFY5Cb5hYUxadtKX+smlndsxSzy7Ots26P+6SOU4hJpq72/TSGV9+F39xM+yIQFFGYE4y6F4lwr7sxWrtgK4ayfEQ5KmDteKxdKc+X7tXdYpG6FRdxkN3z0BK6YhfGl/qJo5Wd9Z30F+BWgo1oHqKAp4JvAO+hFTq6iACxyUwzOlYiJWNaygTUdd5AJFr/+Q//UUQ4MvsRMaVxtj5pFWMSNL8F99Hm/nFV7fuXT2BjsJ5fEu9E+wOB2PeXbZDkL2Qnsna9ClPJ7iaMUOk8UqQfOz/BO9uB2fx5m2n0RxHTF9vl+mvuA3wBuq+ZBKiQCdgPfBoYSHovUIAVgkZvkXIRzJZa33cqqzjsxZnFnf2cKY5wcfZ/+mcNErkRo1RKl4dkIJrtxHz4FpZSqPcvNm10KOd5bvsPAZDfxjp+CUgrTdxKz9V3ItfpwLCK1KSxCoYX47WcA41cDXb0tovLWAf8CX/yqHpYdXQD+DjiQ9ECkNikAi9wERwxANuhkeftWuloWvwDiqfFdHBl+k5gS1tTDFhxZEBPDTAfxrqchCqqxp0uayWz16FmT3YDBndmCO7sZs36fryhdyFAf57kizSV+58sQB74GhHGL8Z7QA/wc8FWgu9oHq5AdwLeAyaQHIrVJl3lF5swQxyUMAavat7Oy7bZF77s7mR/i+Ni7DMx8jMNgja5hNTTjINdOvPNLfomqjZMekTQaG/tQ7PwSaHd8O/FLv+QryF4My1oWLZIcd7GCe/z+M5Brg0K5FZqp+nuCBb6Ib3m0vNoHq5CP8EufTyc9EKldOnsWmSMDRC5POmhjfff9LG3biDGLOUPiODbyFifH3qPoCoRo6XNDMw7yrcQ7nwGc+rpK9c3uDbYO9/H9uAMPY+98CTqGfFA2Tq2UpLZd8TrpfDV0Q7nwm6mT319XXnzh/L58GxF/+AWYKdedWrz3AgN8Hvg9YMtiHXSBInzP3+fKn4t8KgVgkTlyxBgT0p1ZyYqObWRTi1sEcXjmDEdG32I4d4rApjBanti4TAy5tkvhV2RRlYNuUCDe+yhEIfbe533/6XS5uqz2CctimQ18s+H102Y9DX6VTK710sr9MI87ch+ERcz63b54YGbaX8yZfVmtmd9jB9b5j6U0FNOQzuH2P4QbXplU0cPbgd8FHqN+Voy+Afwjfg+wyDUpAIvMUTHOkbHtbOj6LL0t61jM/XHF0gxHh17n/OQBSi4iZfXUbVg28nt+d34p6ZGI+PARFol3PQXGYe95DoII2sZ8eIjr5bxY6sLVe9RNDLl2/3G2tc90V3lm9/KLgzHkOok/fLLcHg7AXHw8d2YrlNLY7a9Cx/Cl4Ns2etlDJFBTw0b+/6OUhokOH3pP3Y47eZsPvbaUVPhdhZ/5fYb66PcLMAj8DfAeunIsN6CzaJE5ilyJttQS1nd9lvZ036Iee2jmJIeHX2E0f5ZQs7+NKyjCVDfxB0/72Q4te5ZaUS60E7//k5Cewd75ip9J6xz0YSSJ8CC1z5T3mN/wPcv536GxPq7ILqkC7ujdfhZ33T7AEe97FCaWfDIs467d/zaI/YqGgw9eNpPssHe9eKmQVOdgORg7cEH1Lu4E5T7cs/+/QRE3shx38EEf3oMSZKZIsAhdL77d0c8CnUkN4iYVgGeBF4Cql8SW+qcALDIHMSVSpoWlLZvoa9+0qK2PZorjHB1+k4GZY8TEBHVzMVbmzkCYw00u8X1aXbAYxU3qScCls8FavCrgLvtYi+OrnFQe4oD43S9D+wjm1h2YsABdA34Wq9aCsPplV0A5rMUhl369jb9gZ2KuGdRMDDPtuPGlNy7gZxwUsrg9j11Z1diZ8r+hwZ3b6O9LFebZ79Z8ooVcvOvpck/sScztb1zsiW1ax6FzqPz7XN5LPO/l0pf/XYEbWu3vm/3/tZG/tY5ftkc5sfCbBf4J8JvAyqQGMQ8HgL8EjiQ9EKkPCsAiN+BcTCnO05Ndy/qu+2lN9Szq8S9MHuTg8EvMROOEJqO534Zj/Mnc2FLcR09ClC4XbGl6FlgCrC9/nC25XmsBM8bPOERACZgGpsq3SWCmfH/jMOWZtkIL7t0vQ+8ZWLvfh4auAb/XMuml0WERTIQ7v7GG9nnWqTjAtA9Dz4VLFzhshBtYV27Fc41wG5RgaBXuxB2XLUu+DuMgO3Xt76er8DSa7Z8bhbjZmgulFPSdhLX7/UWdKMQsPQUtUz6gFtPcOKCWQ2853F78u7IRbt9D/mLC1f+/yRfossCXgH8JbE54LDdjCPgG8HbSA5H6oQAscl0GR0zsInqza1nXfQ9hsHjVl6cLIxwf2cHgzHFiF5Gy6UU7tiwCZ3xhobGlxLs/74ND0PQzVgFwF/AQsB1Yg+89ORuAa21q3OEDcIwPujP4EDwDjAMj5Y+j5c+H8HvVBstf1y8TQ8s4brIHPvgibsUxzNLTmCVnoX3EB89iZvFO7J3xs4Nhwe/5LKZxhx+ovVnpehOlcEtPY1Yd9uEQICzijt4D053XWa1i/MW8trFaCHfXZ9ylWeXMDG5sGQyturg/123YjekY9mF49SF/gcUZ/HJpC6UMV8yOp2dgZDlurA/SM5f9XTlI56jRa2KPAH8A3J/0QG5CjF/2/E38a67InCgAi1yHIybG0Rp2s6LtVrqzqxZ1/+3J0Z0cHn6TyBUJrdoeNRRn/CzaWB/xnsch36Llmn6m9yngl4EnqZ/9Z9fj8PvTJvCVSc/g+1OexC/XO40PwsP4UFxnJ3HlQkNtY/6E//wtuFWHMd0DUEz7fZvpGd+3tFqvnc74GcZMDk5vxc20405u9zNumRmg6Z9XC2NmYKIXt3cFV4S8VP7ae24vV+vh92rO+Nnr2aXYmRk4uwUXl/cFF1r875szzIZds25veYk4/s+N9hEfeLC8x7c097+r5NwN/C/4tkf1ZB/wdeBY0gOR+qIALHJNhjguEVOkr207azrvIxW0LNrRx3P9HB19m4HcUawxGMp7kaT+XZz5LYffmfZLS/GaVwc++P4esJX6qTx6IwbIlG9LgdvwgThfvk3iQ/AeYGf54wX8rPEY9dLLcjY0tI3B0Bpc/3o/85pvhVQes3mnD8qFbGWPGRb9MtIzW3Cjy/1S06kuH7prO3DUD1eeya3GEuR6MHuBZfbLE9vLRQrL30vlfPulywKwG14FU93QMk6C+3nnaivwb4CfoA4Ge5kJ/NLnH1N7K4OkxikAi1yHo4QFVrRvY2XnbYtW/CqKSxwbeYsTYx8AMdakUfhtFKa8xG4pbs/jkGvzJ1B1dd5Rca34wiu/hw+IjcziC83MJsE+YCNwH/7vYAw/O7wTeBPYBQxQL9OYrrz3MSgC7tIe3GIGwgJm29v+Z1wAhcz8K53bGLKTuP51cOBB3HgvjC/1F5YUfKWarr5Y6Qzu+F1X3heU6uV1fS3wr/EVn1M3+NlaUgK+h1/6rCe83DQFYJFrcC4CY+lJr2Fl+220pLoW7dgj06c4MvIWI7lTBEEaa/RUbRipPG68F7fnCR9+wzx1cJJUbXcCv0vjh9/raS/f1uD3Pn8O+EngBLAfeBcfiPuTGuDNuzRz5s5v9HtFC1k/M9w+itm6wxd9u1k2wo0ugz2P4gqtMNrnQ0l2Ej2XZNEZd40VPDX/u7gK+H3gl7h0Qa5e7MX3/D2c9ECkPumsWuQaIlckMCFrO+5hVcf2RTtuMZrm8NCrnJnYizMOaxplJagQFnET3bgPn7y0j6z2T5KqrQN4Angg6YHUmCXl2334pYn78CH4A+Aj4EPqab/wbBAeWO9ngMf6cBM986vQXG6Zw/jScs/U2Qmgpn8uiczVKvxFx9/AvwbXk2HgPwOvJD0QqV8KwCLX4IjJBO2s7rqL7pY1i3bcoakTfDz6OpOFC6TD7KIW3ZIqshFMdeI+fNq30VDBq1m34Ss+q8rbtbXgg/AdwC8CrwPPAe/hC2ldSG5oN2m2ynlsYXjV/B/nmrNuInIDK4BfB34L6E14LDerCDwL/Fd8/QSReVEAFvkER+RiQpthWcsm+to2L9re36nCMIeGX2EodxJnDQb1r2wIJoZcG/GuL/o2IkGTFpP5dLcA29D03Y1cXkzrJ/Cz5geBH+BPCA/gi8LURzEY4/Q8EFl83cCvAf8CWJnwWOZjB/D/4uskiMybArDIVRwQxQVaM8vY0P0ZurOLM/vrXMz5yQMcGnqZmeIYqaDetuTIpzIO8q3EO5/xex9tfRT1XUTd1N8sRNJC/LLF+4FNwJeBl4Fv42eFc4mNTERqVS/wm/jwe0vCY7lZDn/B7z/jX+NUFVQWRAFY5BMc4OgIe1nbeTctqcVpRTqeO8exkbcYzp8BYiwWp9f4+mYcFFqId/4ExMbPBMvV0tRfAZZaYYCe8m0Tfh/1a8B38HuFtc5eRMBXm/8V4LeBzQmPZT4mge/ilz4XbvCzIjekACxyldhFtAZdrGi/lZ6WBexRuwmRK3FqYhdHRt7E4ZdfK/zWORNDvsXP/Drm3+5FZG66gMeBe/FVtX8IvAh8TL30EhaRaujDV3r+XWBLwmOZjwj4EfC3+AJYIgumACxyGUdM5Ap0tWxm45KHaUn3LMpxR2fOcGzkXYbzp7EEGBuiFT51zEZ+z+/7z6CtrbLIOvD9hB8H/hH4BvAOOnEUaUZd+Jnf36M+Z37BV7z/Gr4nukhFKACLXM5B4EKWtq5ndcddWFP9vvBRXOTI0JucGvvQh1+j8FvXghJMdxB/8EXf4kUzv5KMbuBX8RW2/xYfhI+iZdEizWIJ8M/x4XdjwmOZr1PAH+F7oC+6f/Ov/2Bef+7f/k//Y4VHIpWmErMiF8XEJqIrs4rV7XfSmupelKMOTh/n2NgORvNnCGwKYzRjWLfCAm6601d7jkOFX0maBbYC/wr4d/hiWfXW81NEbt4K4F8C/z31G35H8Ht+nwWmEh6LNBjNAIuUxTjiqERf91bWdt23KK2PCqUpDg2+xIXpwxhrQF1/65SBVA4menAffQFKabBq8SI1oxf4aWA9PhB/A7UREWlUq/H7ff876rPVEfh9v68AfwqcT3gs0oAUgEWAcpUiMkE7y9u20tu2vvpHdDEXpj7m6OhbTBWGCIOWqh9TqsAZyMzAeC9u9+eh0AKBVplKzTH4AllrgXXAnwM70X4LkUayDvgf8O2OliQ8loV4F9/vd1/SA5HGpAAsAsRxjLGWZS2bWdl2G9ZU/6kxWRjk8NDLjOTP4Iwrz/3qXLS+zIbfpcS7H4dcG4Tq0CA1bSnwW/hZov8P3z94OskBiUhFbAX+AL/3vz3hsSzESXz4fT7pgUjjUgAWAWJKpMiypvNu+toWp1Di+YmDHBl+nXw0SWgzKPzWGXdV+J3pgFQ+6VGJzEUGvx94Lb7AzLeAsURHJCILcQ/wPwNfBVoTHstCjOHD7z+g9m1SRQrA0vQcfva1NexidefttGV6q37M0ZnTHBt9m/FiPwBW9ejqzKVlzz78tvs9wNrBLfUjBdwP/K/4PqF/BgwkOiIRuVkGX+n93wLP4C9u1atp4L8AX0cX5KTKFICl6UWuRNq2sKr9Dnpb1y9KFeYTYzs5NvIWEVG57ZHUlaCEG16BO/BQOfzmUfiVOrUZ+H2gB/iPqDiWSL1I40Pv7wOfB4JER7MwRfyS5z8Bjic7FGkGOvOWJmeI4gLZzFI29jxEZ2ZF1Y84PH2S46PvMlIotz3S7G/9CYqQb4XxXmiZQOF3QbT2P3krgN/Gt0j6v4DDyQ5HRG5gCfAz+B6/91P/b0LvAn8M7Ep6INIcFIClqTkcgQnpzq5kRcc2UlWuxBzFRT4efp0zE7vBBJi6vmDbpGyEG1qJO3IfZKep//OOxAXoL7EWdAO/jj8v+D+Bg8kOR0SuYR3wC8BvALdR/6+fh/Ezvy8DcbJDkWahACxNLY7zdKSWsrbjPjrSfVU/3tD0cY6NvsNo/iwpm6X+37eakI0hCmGqsxyAZYFC6nvpXiNpBX4F/2/yvwMHkh2OiFzGANvwqzV+Ab9yo95PIi7gZ37/HsglPBZpIgrA0sQcJVegM7OKDT2fJZNqq+rRZorjHBh4if6pQ2AsLMJeY6kwG8HYMty+x3wRLKmEkPo/iWskLcAv4i9K/G8oBIvUiseAfwU8jV+xUe9G8eH3L4HJhMciTUYBWJqTczjjyNh2+to3sax9U9X34l6YPMSxsbeZKo6QCtLlvr9Sd0ohlDKQUgCWhtUC/ByQB/4PtCdYJEkd+LZlv4UPwelkh1MRE8Cf46vPDyc8FmlCCsDSlJyLiYjoa9nMmva7SNvqts0bz13g8NCrDOdO4oxDE151yMQw3UX80ZMKv9IM2vAzwZPAH6LKrCJJWA/8LPBrwF3QEFUzc8C38f1+Tyc8FmlSCsDShAwxMc7FrGjfxqqO7VhTvS2IzsWcndjD0dE3KUTThFazv3XJGV/5WaR5dOAL7UzglyqeT3Q0Is0jhQ+8vwL8MrAs2eFUTB54Fvj3wKGExyJNTAFYmlCEM442282q9m10tlS39dHQ9AmODL3BWL4fh1Hbo3pkHBSzxLu+AGnV6aiwUtIDkOvqwVeHngD+CFDlN5HqasP39/094GF8cbpGUMD3+v33wAcJj0WanAKwNBlDKS5iTcDK9jvoa9uKreLTIHYRJ0bf5+joW8QUCGymaseSKnLG9/wNi1d/xAzGJQAAIABJREFUJ8Tvx7Kon+18xPiZDv3d1bb1+FmoE8A/AJ94IojIgllgDX658z8Dbk92OBUVA2/glz2/nvBYRBSApbkYIHJFUjbD+u77WdK6AVPFasz9E0c4PvYOE6VBrEmVZ391rl93ojTx7icgfcXe3xRwD/A4sBw/k6l/3Llz+BmBR9Gm+HpwB/C7wElgR8JjEWk0KeAR4FeBn6JxljzP+hAffp9PeiAioAAsTSYmJjAperKrWd5+K9mwvWrHKkTTHBl5lTPjH2FNisCEKB/VKwep/NV3hsB9+LYU68v3xYs5qgZRSHoAMich/mLFbwP9wLFkhyPSMJYCXwF+E1/ludEuCO7DF9J7FvX6lRqhACxNpRjnyAYdrO/6HEta1lXvQM4xUJ79HS/2kwpaMSZAAbjhhMDl69q1wfvmBVyaPW+0E79GkwZ+Ht8W6T/i9wWLyPykgG3AL+G3GKxNdjhVcQj/WvF3wFTCYxG5SAFYmkoUF2jNdrOh6zO0p5dU7Ti50jgHh16kf+YY1qaxVK/KtCQqwle1lPmLkh6A3JQOfFGsY8B/SXgsIvVqKfAkftb3UfzzqtEcA74G/DUKv1JjFIClOTiITUTGtrO8ZQvL2jZiTJUm65zj7MQBjo7tYLo4QiZow09safa3ATn0DyvN51Z8j+B9wO6ExyJSb27HX0T6GWAzjbly6BzwJ8BfAeMJj0XkExrxSSfyCTExpThPV3YFG7o+S0uqu2rHmshf4MDg84zkzpT7C+tpJiINxQCfxxfsaUt2KCJ1oxtf3fnfAb8DbKUxTxDOA/838BfAQLJDEfl0mgGWpuCIieOInpZ1rOm+m1RQnXZEUVTk1Nhujo3uoBjPkA5amNsEobnOV5c4XPnRHM7FF+9xV3zNpc9dTEwMGDK2lcCm5zgeEZHr6ga+CrwFfActZRe5FosvmPjTwM/h9/02ar2DM/g9v18DhhIei8g1KQBLw5sNh61hDytbb6Uzs7xqxxqeOcnh4deYKg5jTYAluBhAZ8fig6njUpy9+muu/NrFxOX7rTFYAqwJsYQYGxIQEpgAYwKsDf33y/cbY0mFWSwB4/nzTBVHwYBp2PdeEVlEG/F7GPfii92IyCUG3yHgEXyhq0eBzkRHVF2n8cue/wyFX6lxCsDS4AxxXCJ2JZa3bWFN593lWdnKK5SmOTryFsfG3qDocliTohjnytF1tjuOwRgwzoKxWKzvQ2wsBoMpfwSDtcb3DXYGyp+nTZp00ELKtpC2baTCVjK2jYxtIRVkSYVtpG2WdNBKOmgjnWqnNdXDZH6A989/g4mxQQwWo6JcIrJwFngI38LlPwGjyQ5HpGa0Aw8AvwJ8Gd/Xt5HfeM8Afwz8Kb5NmkhNUwCWhueICEzIyo7bWdlxW1WKXzkXc2HiICfG3me6NI41IYFJAa5c/spgMKRshvRsWDVtpIJW0jZLJmwlNC2kgyypoIVU0EI6bCVtW/3PhC0+0AYpDKGfXTaXfeTS7K8xAYENsITYIKRQmub4yHuMzJzHALYhtxyJSEJ68S1c3gNeTXgsIrXgTvyM73+D3+ebTXY4VXcCv+z5z4HBhMciMicKwNLQYiKMsfRk1rCyfRvZVHVWHzkck4UhWsMl3Nb7RbJBG6mgjTDIkLJZwiBL2mZI2QyBTRPYFKFJY02a0KQIggwpk8KaFEFQ/p5Nl38+BGPmtWzZxY5TYx9yYOg5RvOnMTakcbceiUgCDL4q9FeAg8CFZIcjkpj1wD8BvgQ8DFSv12LtOAz8Eb7a83DCYxGZMwVgaWixK2JNyLqOe1nZdlvVjmMwLGu7hdZUN5mwvTyLmyUVZAltltCmyiH2k3+ymganj7Cn//sMzBwFHFbhV0Qqrw0fgHcA30p4LCKLyQKrgAeBp/HLnVfT+FeaY/ze/68BX0fhV+qMArA0NOccrUEXq7ruort1TdWOY4xlafsmllbtCDdvpjjBoaGXOT72NqU4R2gbfRWWiCRoG/BF4HU0CyzNYSVwG/AT+OrOG5MdzqKJgA/wy56/BUwkOxyRm6cALA2r5EqkbJblbbeyvG1z0sNZVLGLODr8BvsGnmMmmiQw6aSHJCKNbbY38NPAN4FioqMRqQ6DX/FwG/BP8Ssf1gPVqa5Ze4r4lR7/AfgukE92OCLzowAsDcnhiOIC7ZkeNnR/hu7s6qSHtKguTBzkwNCLDOVO+vZIVSj8JSJylVuBZ4AXgPMJj0Wkkgw+5G7D979+Gv/73pPkoBZZAXgRv+f3xyj8Sh1TAJYG5bBAZ2oZq7vuIBO2JT2gRTNVHGXf4PMcH38PjCOwjdx5QURqzH3A/cAP8UslRepdBrgXH3ofAT5HcwVf8GH3e/hlz68BpWSHI7IwCsDSkCIX0RJ2s7L9drozzTP7G8Uljgy9zscjrzJTHCUTtJV7/rqkhyYizeEW/AzZu6gfqNS3TuBufOD9AvA4fvlzs5kAvg38IfB+wmMRqQgFYGk4DkccF+hu2cLGnger1vqo5jhH/+Qh9vR/j+GZU6SDVoxR+BWRRdWKr4i7CRhAL0BSf5bif3+fAH4WH4KbtYrkCL7K8x/i25yJNAQFYGk8LsYS0tu2npWd27GmOZYAT+T62XPhB5ybOogzDmtS6NxTRBKwGj9jdgB/Ai1S61L4Zc0bgJ/BV3beQPMtdb7cBeDPgD8BTiY8FpGKUgCWBuOIXURPZjWr2+6kNexOekCLohQVODq2g4MjL5GPpkgHLSj8ikhCuvAtkZ5FAVhqmwFW4Pf2Pg18FgVfgI/xxa6+jgraSQNSAJaGEhPjXMTytq2s67ofTKP3ovfOjO9mT//3GS8OYE2IIcARJz0sEWlOBrgTuB34EF2Nk9pj8QXbHgE+g/99vQ0/E9zs3uVSj9/JhMciUhUKwNI4nMMYyASdLG/fxpK29UmPaFGMzpxl/9BznJnYTYAlsGmFXxFJWg/wAPAycDbZoYhctBrYDtyDD78PAcsSHVHtKOCrt/8panMkDU4BWBpG7CKMCehr3cKKjm1N0fu2FBc4NPgKx0Z2EBMTGF28FpGaYPDhYjt+CaWuyklSluGXOW/Eh95n8NXKW9B58Kwh4LvA/4NftaE2R9LQ9MSXhhETkyLN2s676GvblPRwqs7hOD32IYdGXmEkf5ZUkMXQHEu+a4gFmqPKWvUYtES2Ud0NbMPPAisAy2LK4tsY3QY8BTyG/13soDlbGV3PaeA/lW8nEh6LyKJQAJaG4FyMMYaO1BJWdW6nLb0k6SFV3ejMGXb3f4cLU/uxNlD4lXqlX9zG1YIPIEvwFWVFqq0Nv7f3MXz/3k342d8e/AVLudJO/Kzvt4HRhMcismgUgKUhRK5EJmhjVfudLGldT6OfU88URzk48DInxj8gH+VIB61oEm3ROfwJw7Hy1xGa5boZs7+wbUA3jf6kbV5bgK34nsB6fkg1rMEvtb8D//t2a/m2HIXea5nGV2n/S+Cl8tciTUMBWBqAIXYlOtK93LrsKZa0rL3q++6KaBjHMb5dUgnnYhxx+XNHTHTpvjjCEePi2FeXJsa5mNjF5Z+77GddhHOOyBUxJqAz00dPdg2BrfyeXBdHnB7fw4Gh55kujhHaNAq/i8BG4K7IaEX8Xqmv4We4FIBvToz/O/wy8JWExyLVsxm4C3gLPT+kMtqAdcB6fMuibfjl9nfgX4sNuqB2LQ5/0fZZ4K+A99EJhDQhBWCpew6HxRLYgJLL0T91mNjFRJSIogJxHFGMizhKxFGRUlwCYiJXIHIl/7MuT+wiorhE7Irlz/3HOC4RuxIRJeI48ve5EpErlv98RBwXiVyRXDRBV2YV96z4aboyq6qyOXRg+ggHBl9gMH8M5yICm67CUeQKYQF734+Jd3wFwuLsvRGwr3yT+VuGD8HSmNbg2yGFqLCOzE8Wv0qkE+jDz/Z+Dt++aAuQSW5odaUE7AX+Avgmqs4uTUwBWOqeAQKbYSI/wBsnv4bBUHRFYhw4h5/tLV/gdA6MK386OzPscDiMm/3s0vfBlUv0lL/jwFz+U+7Sz/sgXGBZ60b62reSCir/npwvTXNw6BWOjrxOHJewVk/hRWNiyE5BMXPxd0gqwi/JkEYV4ivuLsUX2xG5kTS+H28WfwHlTnzborvwKwq68fvLs0kNsA5N45c6/xHwCjCV7HBEkqWzZ2kIxlgKcY6pmePEcQkfXd1lhaFM+ecuXxVVvo8r77v0I5f+rLn8583l37v0eUSRZa0b2NTzCD3ZVRX5/7qcczFHht/g8PBrzJQmCIIURtubFoczkJnG3v0S8VtfhbS2S1VQgJYrNro+/D7gc/iVEyKzgvItxM/kbsCvGLiLS/t4e8u3xq9uWXkOOIOf8f1r4CP0HBRRAJZG4QBLyrax0Pa/c5uKuvKnYiICF7Ku6342LXkEYyq/+Hlg6ij7Bp5nYPoo1qZV9XmxOf+LZTr7cTOdfkZYROaiBx9mdqCZJ/GFqTrws7trL7utBlaWP19f/hmZvwj/nPsbfI/fU8kOR6R2KABLg3GLvpYyJgLnWNqygfVd99OeWVrxY0wXRtjb/0POTn5ITInQaOXXonMGWsYx23bg3voqtIyhiUuROenFB+A2FICbTSt+yXIXfga3Fz+ru6F8my1ktTqR0TWuQeA5/H7fF9H+e5ErKACLLFDsItI2y6aeR1jTeU/FHz+KSxwffZdDwy8xWRwiZVsUu5ISB74a9LITML7Ufy4iN9KJXwJ9s1fuLH6PuF7yknW968oWv2c3g//3bcFf6OjAz+auxs/orsGH3fX4/eBp1KKoGmJgP/B3+PB7ItHRiNQoBWCRBYhdhMXSk17Nhu4HqjL7e2HyILvPf5fR/HkCm8YsdI23zJ+z0D6CWb8H985XoH306tZIIvJJBh+A2ub48y34Sr99+GWcKpKWnBDIA0fxfc9nC1Rl8DO6y/CBtg8feNeVbz34f8dM+ZZGRauqbQx4Hfhj4A38v5eIfAoFYJF5M5TiPG2pJWxe8jh9bVsrfoTJ/CAHB1/g9NQeHI7QqOVR4kopTHYKVh/CDa2GQCvLROagHR+S9s/hZ5cAvwM8jMJv0iyQwxdPGgBW4ENvO5cqMc/O/LaW769GB0C5vkPA3wL/Fd/qSESuQwFYZJ58/+GAJS3r2NL7GK3p7oo+fhxHfDzyOgeGXqQQTxNatTqsCc76md9lJ+HMFmgf0yywyI1l8Eth00BhDj97J74asNSG7fh9pK1JD0SuMAk8iw++LwLDyQ5HpD4oAIvMUzGapiu9nM1dD7O0dUPFH//s2B729z/HcO4Ugc1iCNBkSI0opjE9F2DNIdy5jdAypRAscn0Z/H7QDmDoBj8b4/uWSu1Il29SGxywC1/d+ZvAPnSCIDJnCsAiN8n3F/b62rawZenjhEFltzaN5y6wd/D7nJ7YjbVpAptC7201xFlI5zDb3gZncf3ry72BFYJFriGNr/7bzo0DMKhqrci1nAXexLc3egGYSHY4IvVHAVjkJjnniF2RnswaNnR+jp7WtRV9/GIpx8GBlzk29h5FlydlM4pVtSgKIShhbn8DnMENrIV0LulRidSqFH7v6FyX0OplT+RKBfwe+r8E/hHf17eY6IhE6pQCsMhNMThXIiZibdfdbOp9mMCkKvbozsHZib3sH/oxI7nThEEao04RtSsKwUaY7a/B3sd8UazwRtsbRZpSiK8WrD2kIjfvFPD3wLfxBclGkh2OSH1TABa5Cc5FYAxL0mtY3/0AXS0rK/r4IzMn+Kj/u1yYPgQGAgItfK51cQA2xtzxKuz+PG5kuSpDi3xSCPTiqwWLyNyM4Jc5fw94Bd/XV6cFIgukACwyRwZDIc4T2hS39DzEmo57CEzlnkIzxTE+HnqNYyNvU4oLpIMWvcvVi9iCcZi7XsR9+BSMLQMbJT0qkVrTiS+GJSLXNwl8iA+/f48vcqXlziIVogAsMkcxMQDdmRVs7HmQ7grO/sauxMmxD9g3+CIz0QTWhuVSW4rAdcMZiFLYu18g/vApGF8KJk56VCK1pAO/F1hEPl0eOA68BHwdeJsbtw0TkZukACwyR8U4R2vYyZaex1netq2ie3OHpo9zcOglzk8fACA0aRR+61SUwt7zAvEH5RBsFYJFytpQKx2RT1PCL3d+Dvhr4B18T1+dCIhUgQKwyBw4HMQxPW1r2Nr7BB2ZZRV77Hxpiv0Dz3Fs5C3AYStYVEsSUkph732e+IOnYVzLoUXKMui8Q+RyJWAceBFf4Opd4CigNw2RKtIbkcgNOBylKE97eim3dH+Ope2bKvbYcVzi2PDbfDz8OlOlEdJBW8UeWxJWSmPvfYF411MwuhwCbd8SQUugRWaN4QtbvYhf8vxRssMRaR4KwCI3ELsIR8yK9lvZ0vtEBUOqY3D6GHv7f8BQ7hShbcGvdlL7y4ZRSmHvfhH30ZO44ZVqkSTNzqAl0CLDwB586P0e8F6ywxFpPgrAItcRExPHRTrSy9jQ9RmWtm3EVCigThWGODD4PKcmd1OM86QDdQdpSHGAufNl2PM4bnS5CmOJiDSnYfzy5ue51M83l+iIRJqUArDINRliV8LhWNNxN5t6HiZlK9PBI3YRJ0d3cmDwOWaiMUKrSZGG5YxvkbT9ddwrvwipfNIjEhGRxTMGHAP+EXgWH4KHEh2RSJNTABa5BkeEi2M6Uyu5pedzLGldX7HHvjCxn739P2a00I8lxJoQFXtsUMaBAXf4PghKSY9GREQWRx7fy/d7wMvAAWAgyQGJiKcALHINUVzAmoANPZ9lQ9dnMKYybY+mC6McGHyZkxMf4IzBmgCF3wYWlHAHHsKd2QzpGbTHW5qYQz1NpfFN4vv3vgq8CbwPjCY6IhG5ggKwyKdwOAyGrswKNvc8RHfLqso8bhxzePBlDo+8Sj6eIrQZxaFGlsrj9j2KO7cR0jkUfkVQOXRpVCeBvfgevj8CPkB7fEVqkgKwyFUcUIryZINWNnU9wqqOOyr22OcnDrB/6HmGZo4TBJmKFdSSGpTO4fY8iuvfoH2/Il4R3/dUpFHkgDPAx8APgB+Wv55CS7tEapYCsMhVnIuJiejMrmBL7+N0ZJZV5HEn8gPsHniWc1MHMCbAElTkcaUGpWeI9zwO/evV/1fkkkk0AyyNIQecB94AvgPsAAbxwVdEapwCsMhlHI7IlehILWNj14P0tW/CmIXP0uajSY4Mv87RsR3kowkCm63AaKUmpWeI9zwBA2tV9ErkShNoD7DUtxy+b+/zwFv4is4n0e+1SF1RABa5nHPgSvS23sKW3i/Qmu6uyMOeH9/Pnv4fMJ47i7Whlj43qtmZ34G1YNXvV+QqmgGWenUAv7d3F7AbX915EC1zFqlLCsAil4mIaE33sr7jHlZ0bKESRYtGc2fYN/g85yb3EwMhqQU/ptSgVB6397HysmfN/IpcJQJGgJmkByIyBxFwDr+39yA+/L4KnCh/T1c4ReqYArBIWUyMcY41bXeyuecRQptZ8GPmS1McGHyJj4dfJSYitAq/Dcc43+po/yO48xsgVPgV+RRFfA/U6aQHInINsxdpBvHB9zX8Uue9+CXOmu0VaRAKwCKU2x45R2vYw4bu+1neefuCHzNyJU6MvsehoZeZLA5jTQhY9B7aQEwMNsbtfxB3bpOqPYtcWxG4gIoESW2J8L+b48Ae4AX8TO9xfO9eVXMWaUAKwCJA7IpYUqzvup+1XfdRgbpXjMycZv/g85yb2OerPtsQvY82EBsDDnfos7izW8p9fkXkGgr4GWAFYElahG/HNQbsBN7G7+s9ji9oNZjYyERkUSgAixDjHLSnl7BxySP0tt6y4EfMFcc5MPBjjo+/R2RKpEyLCl81EuMgtrgj9+JObYPMFJXYLy7SwIrAWXwlaJEklPA9evcC+8q3w+WPwwmOS0QWmQKwNL1iVCQTtLCh8wFWd9xBYBf2tIhdiROjO9k/+AJThUHSQSsKRw0mVcCd2YQ7fge0jYPTv6/IDeTws2taKiGLaRw4jQ++R/Azve/hQ7BWI4g0KQVgaXKGGEdHZjlblz5JV3blgh9xYPIIe/q/x0j+DIFNofDbYIyDmTYYX+aXPSv8iszFFHA+6UFIw5vBh94x4BS+bdE7+KXOZ/AXYLQXSaTJKQBLE3NEcYGWsIN1HfexouM2jLELesTpwjAHh17h+Pj7lOJCefZXGkpYxI0uwx27C9pHFYBF5uYcmnGTysvjQ+0M0A+8j5/h/RB/wWU2DBeSGqCI1B4FYGlqJZdnRXYbt/Y+SWuqe0GPFbuYYyM72D/wHPlomtBmMBicLjY3DuNguh0ubITslMKvyNxM4vdaqgewVMo4cIxL+3kP4pc6D+CrjU8mNzQRqXUKwNKkHBExrUEPazrvYVXXdswCSz9fmDjA/oEXGM6fJDAprAkVfhuNLUGxE3fqNmjT7K/IHA3iA4p6AMt8xPgVBMeBE/i95CfwS5xPlO9X4BWROVMAliZkcHGJiDwru+5ly5LHSQctC3rE6cIoewd+xKmJXRgbYo36/TYc4yDXjjt2N2QnFX5F5m4YOIBmgOXGcvjfl0FgqPzxJHAUX8TqML6auIqpici8KQBL03Hl2d9s0M6GrvtY2bFtQY8XxUU+Hnqdo2NvMxONa99vozIxAK5/A2QnUHEzkTkbws8Al5IeiNSMAn5FwDR+b/gkPvjOBt1D5dsAPuwWy38mSmKwItJYFIClqRgMpSgPxrCu/T7Wdd5HKsgu6DHPTx5m7+APGMmdIrQLeyypUcZBoQW37xHITKPwW1FaKtH4TuL3Zc6VQU+yRhBfdivhA+w4fgZ3dhnzCfxe3pP4YlW5y27FxR+yiDQDBWBpOjFF2oIlbO59jGXtWxb0WGO5c+y98H0uTB0idjEpu7Aq0lLDjMON9vnWR1JJCsCN7Rywn5sPM3oxrT8RMIpfttxfvg2Ub+fKtzFg4rLbOH4GWK8DIrJoFIClqZRcnpRtYW3HPazpvIvUAvb+FkrTHBvZwZHRN8jH04Q2XcGRSk2JUsS7noJ0/vJ7DdAKdHLptbTeT+IM/v8hjz+ZrdYsnMEHojzQVsXjSPIOA3vws4BzFeOXxjr8rOGn/VmDf97pPGZxDJZvk/h/m8nybQIfemeD7WT569HL7h/BB90i9f8aKSINQG8cUrcc4JzfDuQrOBvMDc6jS1GBpS0ruXXZU3S3rFnQ8c+M72H/wPNMFgfKR9aERcNyBnJtYK/YfhYCdwFfAPrwgbHeT+4MPmzkWJwAHAEPVukYUhs+xs8A30wAHgf+Ab8fNH+dP5sq3/TiWz2WS1WYz3HlzO0EPtwO4Zc4u2vcRERqigKw1C0LWJvFuZiSyxO7COccGMpB2GCMKU9pGWIXkbYtrG6/k3Vd9yxoxnYsd4FDQy9wZvIjnDFYgkr9b0mtMp84jwuBO4F/Dqxf9PHUv9m/0NkZPodmghtNCV/9+fxN/rkR4M/R70MtuTzMXv1RRKSuKABLXYpdRGhT9LZsIBO0MVMcJheNUYgKRETlt2WHK59Xl+ISLi6wrGMbW5c+RWtqybyPXYry7B94jiMjOyi5IqHR0ucmlgJaQFdAFsCh6sCN6iNgL/Or3KtqvyIiUhUKwFKHDLErERPQnV7JbUu/SEumnVJcIB9NkytOkSuOk4vGyRcnyJXGmS6NUyhNs7HnQVZ33klg5/erH8VFjo++y6HhlxktnCW0aU1bNbcSfommzJ+CTmOKgR3MPwCLiIhUhQKw1CVrQqK4xFDuGCaANZ33XvH9YmmafDRDIZqmWJoiH01RciW6sytpTXfO+7iDk0f54Py3OTOxh4gISwzOYZzBWDDOgLk8Dl++K1kxWUSaxjjwLr7ljYiISM1QAJY65MoBuMD56QN8dOF7tKeXs6J968WfSIWtpMJWoLdiR41dxGRhmNiV6MmuwRhLKSpSimcouTylOEfJFYidA2OwWMBgjcXalPYJi0izcMBBfPVn9XIVEZGaogAsdcoRmABHmhOjO+nOrKU7u4Zs2Fq9I7qI7pbVPLDyF5gpjlGIppgpjjNTGmcmGiUfjTITTVEo5YhcEeciX5gLv2+4EE/jVwVqJlhEGtoE8DxwPOFxiIiIfIICsNQvYwkImC6Ncmx0Byvbb+fWpU9gbXVmWq0J6WldRU/rapyLiOISsSsRlW+xKxC5iGKUI1ccp1CaIh9NMzJzihPj73F++jDORVijp52INLTzwAv4vrEiIiI1RWfiUuccqSDLcO4Yeweepa99I72tG6pyJGPspV6/JiCYQxul6fwoH+W/w1RpiNgVtQxaRBpdHngH3/5IbXJERKTmqHm81DWDn5ktxAXOTu7h4OBL5EoTSQ8LgHxxksPDL3Ng5EXG8hcwWIzRU05EGtop4Lto9ldERGqUzsalAThCm2EmmmL/4IucHv2Q2CXbdWM8d4Gd577FW2f+grOTezFYrNHsr4g0vA+Bt1DxKxERqVEKwNIQAhMAjpHcCQ4Mvcjw9InExjI8fYKdZ/+O985/g6H8aQKbxmrmV0Qa3yngB/g9wCIiIjVJe4ClYQQmJHIljo6+ybLWW+jOriEMbrxPt3Ic/RMfs/Pctzg4/BJTpRFStqVc9Epb4USk4b0C/BDN/oqISA3TtJQ0EENgfFXoQ8Ovcnz03cU7tIOTIzvZceavOTD8AlOlUUKbKS97VvgVkYZ3El/5+UzSAxEREbkeBWBpMBZjQs5PHeTA0AuMzZyr+hHjOOLjoTd45+w3ODzyKjPRBCmbUbuj5qErHNLsCvilz88nPRAREZEbUQCWhmNNQNHlOTn2AQeHXiJfmqrasQqlKQ4OvsK7Z7/OsfF3KLgCoc2Uqz0rFzU4AwTlm0gzO4Sv/KzZXxERqXkKwNJwDIbQZhjPn2f/0HOcn9hflePkS1McGHyRHWf/ijOTu3EuIjQpDKYqx5OalAZSSQ9CJEGjwD8A76OrfiIiUgcUgKUhGQwYGJpfMJQwAAAKP0lEQVQ+wd7+HzEyfaqij58rjrH7wnd45+zf0j99lIgIozZHzWZ2Blivo9KsHLAL+Daq/CwiInVCmxSlIRkMgU1TiHMcG3ubFR1b6Mj0EQaZBT/2RG6Ajy58l90D32M0fw5rAgLt9xWR5nMC+Etgb9IDERERmSvNXEjDMhissUwUB9g38Bynx3Yt+DFHZ07x/rlv8kH/txjOncbatIpdiUgzmsK3PPoukE94LCIiInOmACwNzYdTw5nJvRwceomx3HxX6Tn6Jw/zzplvsKv/20wUBkgFLVjt9xWR5vQ28DfA0P/f3p392HnfdRx/P2fG4y0lW6FSVVGQEBJk6SJuKmgRS0HiimsQ4l/gkmuQEBUgJBYVASqINkLQogoV0SUJdZK2SdqmiRvHSl3SkoZ4i2Nn4sTxbOdw8YxblyqNHS9nxvN6Sc/FnJmRvjo6c+Z8nt/v9/3OuxAAuBwCMDe8hWGx6WzaM2ce7cipB1rbeO2yfn863ej55UM98r8f7eDJ/+jc2tkWhj2aXQE71Xeqf66+MO9CAOByCcDc8IZhoYWFxc6sPNeR0wc6fvbpLrVZ6cZ0tWfPfLWHn/uHnn7xv1rdONfiZHeTwZ8OsCOdq/6p+vd5FwIAb4ZP8ewIkxaaLCx2/NXDPXXy051dOfWGv7O+vtKRFx7skec/2jPLj7Y+W21pcZ/wy8UmmQN8pfxBbR9r1Werf6ne+E0UALYgHzzYIYZ2DXta2Xilby0/3LfOPNLa9PX7tqyuv9rhk5/t0aP39OzZx5oN05YW9tn2zP+3q9o/7yK2OXOUt48nqg9XT8+7EAB4s7SvZUdZmOzp5dUXO3Ty092+95294+a7f+Bnzq2+2KGT93bwxCc7df7b4xbq4crHJ3HDmVbPVQ9XP7b59aXtrWeoNhqfr9urt20+xtb17epvqwer9TnXAgBvmgDMjrI4LHV++mrPv3Kob5w60C173t5Nu9/63e+/vHKyJ098qoMnPtXy6rEmLTYZdm2u/Mo2O9dQa3tq6dzFD65VX6yOVvsaXyBeJJdmaByds1r9bvVb8y2HN3C6+lj18Yw8AmCbE4DZUWbNWprsbn222pHT9/ej+3+yu972Gw3DQsvnj/XYsU90+IXP9cr6i02GXS18d8avXLOjLaw1/MwXm33z52qyceHR9ep/qmf73uqlF8qlGRpXzKfV+/K8bWUrjeH3b6rlOdcCAFdMAGbHGYbFJk1bXj3RkdMPddued7Z7cX9PnPhkh0/d12vrL7UwWWpwRJ4LhmnDbceare2u3d+3CjydV0k3kI03/hHmZNrY8OqvG3c6AMC2JwCzA82aDAtNh6Hjrxzuy8/f067FPX37pS/36trpFhf2anbF95sNtbja5O4DTQ//fC2szbuiG4k7TVvTSuOooz+vjsy5FgC4agRgdqRhHIzUufWXe2b5SzUMNZu1S/jl9QzT2rdcGwsCMDe61eoz1Z9VB+dcCwBcVe68s6NNhkmzYWhWDcOC8Mvrm01q79km7/r82BALbkzT6tPVh6qv5nw2ADcYK8DseBP3gbhUw6wWVy5uhAU3krXGbc9/Wn0lZ9wBuAH55A9wqaYLdfOphjserJW9864GrqZz1b9Wf1w9mvALwA3KCjDAZRlqYX3sBj2bjKvCsL0tN4bfv6q+PudaAOCasgIMcDk2FhreerThp79aK/vmXQ1cqePV31V/lPALwA5gBRjgcm0s1K7ztX953Aq9qCs02860eqb6SPX31an5lgMA14cVYIDLtbGr4a3PN9z5YO1+rdaX0iyXbWSl+mL1h9WHE34B2EEEYIDLNquVvQ23nGxy50PjeeD13fMuCi7FK9W/VX9Qfbzx/C8A7BgCMMCbMYwhuFuPN7njC7X0Wq3vmndV8MP8d/UXjZ2e76vOz7ccALj+BGCAN2uY1fl9dduxJnc9WEvna0NrBbacc9Xnqw9Vf1I9Od9yAGB+BGCAK3EhBN9yosldD9Ti6jgvGLaG71QfrX6/uqd6ab7lAMB8WaoAuFLDrFb31s0nG+4+0OzgL2/OCJ7OuzJ2rteqh6t/rO6vjs61GgDYIgRggKtiVmt7Gn7kVL37/mZP/ErNhjEcw/X1ePWJ6t7qYLU633IAYOsQgAGupvWlhpvONLz7vqaPf3De1WwH7hBcPYeqA9Vnqi9VZ+ZaDQBsQQIwwNW2sVj7l5u8596mj/+ardA/3GrlCXrz1qtvVE9U/9nY3fnFamOeRQHAViUAA1wL04Xad7bJez/X9GtC8A+xXJ2u9s27kG3mbHWy+krjducDjc/l+hxrAoAtTwAGuFZmQ+29KAQ3cyb4Bz3buIL59kwmeCPTxoD7zcZtzp+pnq5eqFbmWBcAbBsCMMC1NBtq78ubIfiDukP/oK9Xj1bvr5bmXMtWNN28TjR2dX6kcY7vNxpvHgAAl0EABrjWZpPat9zkPfc1feJXx+3RE0c0N52qHqp+s/rZOdeylaw1ji56ujrS2ODq8XR1BoArIgADXA/ThbrpdMO77m928JdqY1ctOK656fHqI9XvVe+Ycy3zMm3s2vxC402BZ6rHGlfHn2yc6wsAXCEBGOB62djVcPOpuvtAsyd/sdZ21+LavKvaCk5U91S3V79d/fh8y7nmNhpXcc9vXi81Bt6D1dcaV3uPbX7PCwQAriIBGOB6WltquPVE3fVAs0MfqNU9tbhaDfOubN6OV39ZPVf9TnVHtafa1fZ6cqaNs40vnN3duOhabRxR9Fzj+d1vNp7lPdoYgpcbV4FtDQCAa0QABrjeVvY23Hq87nyo2aH31+rezRC84x2rPlY9Vb2vurv6iermxv9Xl9I9bGgMzReC87Vsu30h1F4Iu+erc5vXK9XLjYH2xYuulzavMxd9DQBcJwIwwPU2zGplX8NtRxvu+ELTp35hcyXYbtfG+bYPNnY7/qnG7dBvqRa69AC82PVZOV5v3KJ8IQCvNp7Vfa16tTEEX1jZdYcDALYAARhgHoZZnd9ftx9tcudDTQ99oNaWNMb6ntXq8OYFAHBVTOZdAMCONczq/L669ViTOx8cV4CnC/OuCgDghiUAA8zTMKvVfXXL8Ya7HhjnA8+8NQMAXAs+ZQHM3azW9jbcfLLhXZ8fv55tp8bHAADbgwAMsCXMan2p4S2nmrz7PgEYAOAaEIABvt98k+fGrrrppSbvudd5YACAq0wA3h72zLsA2EEWm/d743Sh9i83ee/nhGAAgKvIGKTt4VS1e95FwA5xujo/7yKaTWrfGIKnj/268UgAAAAAAAAAAAAAAAAAAAAAAAAAAAAAAAAAAAAAAAAAAAAAAAAAAAAAAAAAAAAAAAAAAAAAAAAAAAAAAAAAAAAAAAAAAAAAAAAAAAAAAAAAAAAAAAAAAAAAAAAAAAAAAAAAAAAAAAAAAAAAAAAAAAAAAAAAAAAAAAAAAAAAAAAAAAAAAAAAAAAAAAAAAAAAAAAAAAAAAAAAAAAAAAAAAAAAAAAAAAAAAAAAAAAAALyO/wPYZ1iIQ+1aMQAAAABJRU5ErkJggg==;" vertex="1" parent="1">
          <mxGeometry x="1990" y="1506.25" width="150" height="93.75" as="geometry" />
        </mxCell>
        <mxCell id="-L-Ys_6FJlGtnzZaTf8_-74" value="" style="shape=image;verticalLabelPosition=bottom;labelBackgroundColor=default;verticalAlign=top;aspect=fixed;imageAspect=0;image=data:image/png,iVBORw0KGgoAAAANSUhEUgAAA8AAAAJYCAYAAACtlI8BAAAgAElEQVR4nOzdd5hc13nn+e+5FTsH5JwzQAJgJsEsUrIpUdGSbaWRJY/lMA7rsXf/2PDszrM7ux7bM7bXOx7LliV7ZMmyJVuWZYoSKWZSTCJBEQQpJjATIEAQsbsr3LN/vLfQhUajuxrdVffe6t+HTz1VXV3ddcDurrrvfcMBEREREREREREREREREREREREREREREREREREREREREREREREREREREREREREREREREREREREREREREREREREREREREREREREREREREREREREREREREREREREREREREREREREREREREREREREREREREREREREREREREREREREREREREREREREREREREREREREREREREREREREREREREREREREREREREREREREREREREREREREREREREREREREREREREREREREREREREREREREREREREREREREREREREREREREREREREREREREREREREREREREREREREREREREREREREREREREREREREREREREREREREREREREREREREREREREREREREREREREREREREREREREREREREREREREREREREREREREREREREREREREREREREREREREREREREREREUkpF/cCZHL/6f6r416CiCRNfhj/zMX4VzZBbiTu1YjI2QVABshGt2sfZ4BOYE506Qf6gB6gt+52J9ARXXcC3UA++n7F6DoXXTeiCgwDZWAkupSj+04Ax6Pr2u1jwFHgHeBIdDkMvA0MRd+vCoTRpRJ97Bv+PyTSRv7H3/6tuJcgk2j0xVJEREREGuOwALcWyPZhgWstuO2OLl119/VwZqBbjC75uusOLOANZmCdHgt+y1jgOowFtSN1t09iwfBJLCA+iQXEteD4RHR9PLq/FiwfjR4bomBYRBJEAbCIiIjIuclhwWoPowFtFxbwLgAWAvOBeViWd250PRg9Pm4OC6rz0cd9U/z6EAt2DwMHgUPAW8B+4EB0OYRljeuzy7VAujq95YuITJ0CYBEREZGJOaAQXWpZ2AXACmBZdFkBLI3u72G0LDnDaNlzu7WeBVgwPwiswQLiWjl0JbouYwHya8DLwKvR7X3RxweBUt1lBGWMRaSJFACLiIiIjAoYDV5zWLC7Jrqsja6XYtnSTizjWytbzsWw3iSp9TiDnSyoqQXItT7j+n7jd4CXgBexoPj56PoEo6XZZRQUi8gMUQAsIiIiYpnd+cBqYCWwHMvsLmR0UFWtlFnOTa2neawyNlSrVkr9FvAm8AoWGL8IvBA9RmXTIjItCoBFRERkNioAS7AgdykW9NYuS6NLEvp0Z4McVjq+YMz9R7Ay6drlRSwofg14Pbpdat0yRaQdKAAWERGR2aCX0UzuAqyceQuwObo9Bx0XJU0fsC26gGWK3wJ+AjwD7Imu9zM6gEv7wonIhPRCLyIiIu0ohwW9vVg2dyewHQumFmK9vbWLpEMOWAwsAi7Gtmk6jvUQPw48BjyJTZ+u7V+skmkROY0CYBEREWkXtWnNi7Fg9yJgBzahuR/LKCrgTT/H6OCxOdjPdwfwIayP+HlgN/AI8ATWT6xSaREBFACLiIhI+vUBW6PLFkYnNS8DBmJcl7ROT3RZimX5r8T6hl/DBmjtBn4EPIWCYZFZTQGwiIiIpNFSYCOwLrpej/XzLkbHNzLa770D6x1+GcsGP431DT8H7MUmS4vILKI3CBEREUmDAJvavBjbqmgncAUW/HZixzSZ2FYnSZbDqgJWAO/B+oYfBe7HeodrmeKDcS1QRFpHAbCIiIgkVRbowjJ5W4FrsNLWtVivbxHrBxVpRDa6dAA3AFdhWy3tAe4E7sOyw0eBk4CPZZUi0lQKgEVERCSJ5gIXAtcCl2Alz3Oxfl+R6cowOkhrAXA+8PPYAK37gduwwHgorgWKSHMoABYREZEkCLCs7vlYafN2rL93HTAY47qk/QXAvOiyESuvvxHbb/hR4IHodhllhUVSTwGwiIiIxCmH9Waej5U57wQuBebHuSiZtWq95kuwkvsXgIewQHgPo9sqhTGtT0SmSQGwiIiIxGEQWI5Nbr4KeBc2qEgkKRz2O7kG+Bks+P0+ViL9NPAq1issIimiAFhERERaJYvt1boaeDfw01jJaS+WCRZJqixWnbAJ+CRWFv0vWDD8BnAsvqWJyFQoABYREZFmy2OB7yXAe7HhVitQmbOkT0d0uRkLiF8E7gZuwbLCJ4BqbKsTkUkpABYREZFmcdj05muAqxnt8y3GuCaRmZADVkWX87Df8Uew7ZTuBw7HtTARmZgCYBEREWmGDcDF2ETna4H18S5HpGnmYgHwVdH1D7AS6YeB12JblYiMSwGwiIiIzJQslhG7AOvvvQHbY9XFuSiRFgmw8v6d2H7CtwDfBfYC++JblojUUwAsIiIi01UAFmHbF30U6/WdE90vMtsE2P7VS7Be4TuBrwO7gQNAJbaViYgCYBERETlnDliMbWH0QazHdxmQiXNRIgnRCawEPgZcjpVFfxO4CzgS37JEZjcFwCIiInIuFjJa5nwR2sNX5Gw6sB74NdjArPux0ug7sKnRItJCCoBFRERkKpZg2awbsOFWa1CPr0gjMsAOYAt20uhSLAh+CO0jLNIyCoBFRESkEfOxA/efAj6A7eObj3VFIumUxwLgrdiJpK9jfcJPAUPxLUtkdlAALCIiIhOplW9+EPgwlvHtiHVFIunnsB7hi4CNwHuBrwK3Aq8AYXxLE2lvCoBFRETkbFZjU51vwvb1nRfvckTajgN6gSuxE03vwzLC3wHejnFdIm1LAbCIiIjUc1i583uwcudd2BZHQZyLEmlzGWyi+gJgLRYQ/wtwO3AS8PEtTaS9KAAWERGRmn5sD98bsJLM9WjAlUgrZbCS6HXANqzv/g7gR0ApxnWJtA0FwCIiIlLAyp3fA3wcuCDe5YjMehlsSvQOrArja8DdwMsoGywyLQqARUREZrc5wHXAp7Gyy954lyMidQrAu7H9g28Bvgw8jvYPFjlnCoBFRERmpyK2DctngHdh050zsa5IRMaTAZYCP4eVRf8T8A/APqAa37JE0kkBsIiIyOyzBLgZ+AhwGdrWSCQNurGy6OXA+VhZ9O0oGywyJQqARUREZo88cDm2n+/7gWXxLkcmUAZG6i6l6Ho4+lwpuvbRpQpUoq8No9shlj3MYcPMfN3HmbrbeazUNh9dithJkQI6VkyixVg2eHN0+RawN9YViaSIXtRERERmh8XYtka/AFyMjgHiUgGGsEC2FtjWbg8Bx4FDwJHo9kksw3ci+vhE9PiT0ePD6PvWAubac5SxoLgW4AZYAJzDAtxcdCkAnUBX3XU31gveg00G74/urwXFtUsHo8GytslqvfOx4XUXAF8C7gPeiXNBImmgNz8REZH2VsAOlD8JfBArf5bmqjKasS0xGuQeAl4FXgMORB+/DRwE3sKC2hIWwFai7xOOc127Pd1pwA4LXAMsG1x/nWU0S5zFguUeYBCYC8zD9otegJ1cWQQMYAFxLZtciD6W5ukBPoD1838F+CrwfKwrEkk4BcAiIiLtqw/4EBb8XoRl9mTm1cqQj2PB7UtYoPs68EZ038Ho80NYoFufAS63fsnAaOl0dYprqGWOi9GlE8sCd2KB8TLsRMsSrF91BRYsF7HgWntLz6wstnfwb2LTor+AbZk0MtEXicxWCoBFRETa0zZGs75rY15LOzqABbavAq8wmtl9i9HM7jvAUSzIbSfl6HL8LJ8vMlo6XcsYz8WC4GVYQLw8uvQ1e7GzyBxssN1K4O+xIVmvxLkgkSRSACwiItJeeoAbgJ8Hbow+lumpZXZfw7K6r2MBby3ofRkLeNst0D1Xw8Cb0aVeHguElzGaGV6KZYoXRZfFqGx6OhxW7bEcWAf8NfAA2i5J5BQFwCIiIu1jFZbx/RyW9c3Fu5zUehs4HF32A88CTwJ7gOewAK/Wo1th+r24s0WJ0bLwH2HHoVksC7wxumzAArf5WPZ4EJ3EORcLsAqQFcAXgTuwqgWRWU8BsIiISPplge3A57EAeDDe5aRObauhw1iw+xiwG3gKC9iGGB1qpWB3+jyjZdQAx7Cg+D4sS9yBnczZhg1w246V9fYwOmBLJlcErscmRX8F+BvgBfQ7LLOcAmAREZF0q02B/QXgUlQ+OhUngKexbOTjWMD7Jta7+w6W6ZXWqGInGoawLaDeBJ4AbsG2ZFoEbMG2/LkQC+oKsaw0XTJYNcgvYxn2PwPuQkGwzGIKgEVERNLJYQe2Hwd+BtiEputOpor17NaC3eexic2vAPtQhjdpavsfg/28HgJux7LBK7By6W3RZRD9/k9kPjYRfj7wZeDbWKm/yKyjAFhERCR9sli2tzbleV68y0m0KhbcPoeVfz6JBcB7sAnNoKA3DTz286r1YoMNzDovuqzDTgitw7LFCobPlAOuxoLgRcA3sL8L/f7LrKIAWEREJF16gWuAXwWuQ+/l4xnBBv7sx0qcHwTuAfaiSc3toBaw1SZz34K1ApwP7MJODq3CBkHNQX8j9QKslPx3sTLyLwKPYMPcRGYFvSCIiIikx0Lgw4z282XiXU6ihMBJbA/eh4HvRdevYtsYqZ+3vR0D7sX6ub+IBXdXYUOgzsNOHHWgzHDNAPApYA3wx8Ct6G9EZgkFwCIiIsnnsID3U8DPYj2QYkawPtHd2FYvD2J9va9jQZHMLiejywHgGeBfsX7hy7FgeCMWCGuStA0Ruw7Lki8B/g47gSTS1hQAi4iIJJsDLgP+LXATMDfe5STGCBbg3A88ipU3P4VtZSQCo3s5P4lVA9yOZYN3Yn9Tq1AVBVjp+O9ifcF/hfXKi7QtBcAiIiLJlQPeBfx6dK33bXgL2x7nMSzbey+2ZY7IRA4AP4gu67GM8OXYBOmtQHd8S0uEFdjrzHzgC1hfsEhb0hupiIhIMnUD7wN+B9gR81riVtu+6DksgLkFmwQ8EueiJLV+El3+EdtT+CZGM8ILYlxX3HqBT2P/D/4EO7mkvzFpOwqARUREkmcQ29/317Bs1Wx1Etur9BHgW8B92GTnoxN9kUiDjmAnVB7HtlS6AXg/9jc3l9l5nFwA3ov9+/8YO9mkXnppK7PxD1tERCTJlgK/CPxCdHs28tggq+9ifZtPAC+jKbUy8zw2+OkQ9jt3G3ABVn1xJbOz5z4DXIFlhOcAf4NNUhdpCwqARUREkmMTtsXRJ4H+mNcSl71Y0HsXNtzqxXiXI7PIUexkyx6s6uAi4GpsUvJsPBm1Dfj3WDvGF9GEaGkTCoBFRESS4VLg88CHgJ6Y1xKHPcBDWAbuNmxokUgcqsCPsd/Ju4B7sCD4ImBtjOuKw2rgN7Eg+AvYvtoiqaYAWEREJF5ZYBd2kPluoBjvclqqjG25shv4JnAntm1NKcY1idSEwPNY0Hcr8NNYf+w2bGrybLEYmxBdAP4CG0YnkloKgEVEROKTx7Y3+i2s1DIX73JaxmMZ3juAr2HbGb2NAl9JphHgFeCvge9jJ6o+gu0nPFtaFfqxCpU+4L9ge3CLpJICYBERkXhkgQ8Dv4JtwZKJdzktcxQrcf57LPB9DQW+kg5DWMXCf8e2CLoGC4SvYHb8/fZh0+m7gT/ApmeLpI4CYBERkdbrxA6cfw2bOBvEu5yWOIn1U34fy/zuwUqgRdLmGNYj/ALwJHAV8FNYj3C7/y33YK9deWyv4PuxUnGR1FAALCIi0lr92KCrXwfOA1y8y2m6YSxTdBe2p+j9KPCV9nAC61t/GOtjvwnbOmkN7X2MXQRuxlo2csDd2OAwkVRo5z9OERGRpOkGfgb4bWBDzGtptgpW3lzr870bKyEVaSce2yP3n7CTPDcBP4tlg+fRvie4ithAsCJW/n0XOrElKaEAWEREpDW6gE8D/472D35PAD8EvoSVPL+FyiSl/R0Gvgo8gGVIPw5soX0nu+eA9wAd0eV72MAwkURTACwiItJ83cBnsZ7fdt5HtIRtkfJV4LtYn6QOiBsVZsAnOGEYhOB0HmMSVWzrpL8AHgE+gGWE59Oex90OGwbmsP7nW7G2B5HEasc/RBERkSTpBT4D/AawKua1NNObWND7bazs+XC8y0kY76A60WGXww28CUFCWymDEH9sAIZ6xg+CHZBRBWydY8A92KCsH2OB8HXYEKl2tAv7LfDY64Amu0tiKQAWERFpnk7gk8D/ACyPeS3NUsIyXd8EvgHsi3U1sfBQzZ89e+sDKJzAzX8ZqmfZLSfM4DbfD7lhEtk2mi3By5th/0q7PZYP8AdWgPNn/x7eQbY827LIr2GtAE8Ce7G+2a1xLqhJMtg07FoQrHJoSSwFwCIiIs3RBXwCG3jVrsHvG9iB7hex6c6VeJfTBN5BJT/xY8IsbsGLUDg5fhAcZqD3EG7V7gm+l4dyEUod015yU4x02L9x8bOMG6CHGXh6kuA2U7Eg+WxZ5JogtCA7yeXgU/cI8Cw2Ef3fAJcAA3EuqEmujK5D7LVBZQGSOAqARUREZl4H1vf372nPsucRLJv1l8C3gFfiXc40OQ/lAoTjbOGaLeNWPTH+52qqOdzKH0PHMcv2nsFbgHiib+IMaZI5D9WcXcblcZvvZcLsdbaE6z6MPzZ49lLvIMSf6IPX10Km/nyKg+yIBcfpdQSbFv0EVhnyUez1od32Dr4SG4Q3grVDJLSuX2YrBcAiIiIzKw98BMv8tuPAq8NYn++XsP1Pj8e6mnNRC+bKObtdycGyvbied04PdL2zoG3FnrMEtqceaAH0SOfkz9u23OTZ65EOWPgCbvFzE3ybEHeiD99xzMqla7Jl/Cub4NjAmcFzPlUzl2onj/4I2zv4F4BrsYnK7eQ6rCJkGLgPK4sWSQQFwCIiIjMnA3wYC343xbyWZngU+Hssi/VMzGuZGu+sxJgo+J37Km7JT6wkuRqVMHceGyfT6yYPbKUxzk9eTg6QH8Gte/T0EuhMBVc8jj/Ze3oWOMzgn7nYguKk9k+Pbz/2t/QS8BS2P/iSWFc0s/LAjVgJ9BD22iGSCAqARUREZkYWG3Dz28D5Ma9lph0Dbge+jPX1nYx3OWdxtlJmH0DxOO782y34DTO47sPQv98mM9eywCMJ7b+dbcIASmO2zi0XYfAN3NxXTw+MfQD5kzDShX/60nEmUVsWn6BCAoPjENsv+0VsWvTPYb3B7VISnQduwl4v/h9sGrZI7BQAi4iITF8GK2P8bWBHzGuZaa9jE57/HHiaRA21qfWl1oLYAm7jA9B9eEwQ7CBTxg2+EZUyRz25I12oMjMtvP2cx9lKyi3YZ78HHcfOHK6VG4EXduAPLol6iqNe4mSVo+/H+umfAv4t8C5gMNYVzZw88EHgKPCfsUFgIrFSACwiIjI9AXA58OvAZbRP9sZjW7f8JfBV4EC8yxkjDGCkE7f8adzSvVZaGwbQ83a0Tc+YbJ93lh0+/c5WrVaaqZIHvGWHxwpCWP8gbmWnBcdBlfCJa6xf2XnAn95rHJ+T2MCofViP8Gdon+nxncDHsf7n38Omx4vERgGwiIjI9FwIfB54N5YJbgcjwL8CXwDuxUqgE8DZPrrVLG7+y7h1j1gQkx8aLYsNgwkmFUv7cuNmh6kCxRPQEc1qc55g+21WCeA8lDoIH7/essNnm0zdOiHwPKOZ0l/GTq4lrnb7HPRi28KdAP4QeDve5chspgBYRETk3K0HPof1/rZL1PUK8DXg77AptcnY2zfMQMdRgu0/sIxfpmzlrT4YP/ARqfHB6cn+juOn3Q4u/0c4OofwyauTUh59BPgH4E3gU8DNQH+sK5oZc7Gp10ewk2vvxLscma30jiEiInJulmAHc+/HshtpVyt5/ivgK8BbJKVGOFsiuOBWy/JmKnbxWFAsMlVjt7TKjcDgGwRXfQ1/YIUN08qViPnXv7aH7v7o8n5gHenPBi8CfgULfr9CUgfqSVtTACwiIjJ1g9jE1k8B82Ney0woYdNo/xT4Z2zvznh5BzjIDxNc8N3R4UY+7cf/kjh1v1Nuic1o8s9cDJnqmUO1WivETkr9HjYl+leAzaS/1WIl8JvYHuJfxwrVRVpGAbCIiMjUFIAPAb+GZTPS7ijwHeD/A+4jCVnfMAOFE+Ag2Pm9uIMQmU3KedsfOszgX95sPeVhJu6y6IPA32AT2X8T2EX6Wy42Af8OywTfigX7Ii2hAFhERKRxGeB92IHbipjXMhPeBL4E/HdsC5Z4g18f2JCr4knr9S0ejyb8irRQuYBb/Bxu1RP45y7A79sK+LhPxJwAbgEOA7+KzR3oinNB0+SwPY9/Gfs3PUjcrz8yaygAFhFJqzBzZi+bNNuVWOb3vLgXMgP2YFsc/R2WWYpXJQddRyBTIdh0P+RPKviV+IQBDPXg1vwIwILgaj7aMim2OK0M3IOVDr8FfAyYF9diZkCATc8/hAXBz8S7HJktFACLiKRRGEDvIeg4ZoFD/FNLZ4Ot2F6/V8S9kBnwKPAnWP/dUMxrsUC3cBK36QHc4Bsw3AmhDlEkbh6GunFrHrXX3OP9+LcXWe4y3tfcx4A/wMqHP0m6q1HywAewQV9/gAX2Ik2l1IGISBqVC7gVT+LmvaI9T1tjOTaA5kbSffK4ivX5/gfgb4k9+PVR8HsCt+0uXN9bMNSjygZJDuctE7x6N27H960/OBnbbu3D9gv+fax9Ic36gU9jGe3OmNcis4DeYURE0shFgUM1i9qmmq4X+Ag2+CrNPXcl4DbgfwP+FSunjE9UYkrxOMG2uy34HelAv8+SOM5DOQ/D3bj1D+OW74FyIe5VAbwNfBn4P4GHYl7LdC0EfgP4KdJ9klFSQL9gIiIiZxcAPw18DlgQ81qmYxgLen8f2+4o3iizmoXCEG7FHlzvQeg7ACOdcZeVikyu1IFb+xg48C9sh6AKuWFi3J73GPAN4AjwP2ETotNqLdZmchC4K+a1SBtTACwiInJ2u7CJz5viXsg01Pba/K/AIzGvxYa3Zcs26GreK1AqKviVdCkXcKt3W+Bb6sS/eL5NLI9vj+oR7ATXCeB3sSxqWu0CPosNxnoy5rVIm1IALCIiMr5NWDbisrgXMg2Hga8C/y+wN96lOCtxLpzEbb0LBt+0Emi8gl9Jn0oOt/wpm8HgnQXBHcfiDII9cCdwEmt3uIl0HucH2BZPrwO/h5V5i8yoNP5hiIiINNtCLAtxEzHWNk7TAeAr2LTnF2NeC1QzuPNvh0wFN7AfSur3lZQrF8GFuNWPWxC8bxt0xJoJBusF/t+xIPhmIBHNylM0AHwQ2xbpK9i/RWTGKAAWEUktb9mHUPMMZ1gn8OHoUox5LefqTeCvsLLnV2JeC1RyBNtvh4H9FhyUCyj4lbbgAwuC1zxuH76wHYonIKgQ47mzx4D/A6hgw/vSGASvBT4PvID6gWWGZeJegEzuxs+ujHsJIpJEYdb2TD0+CMPdKiOdGQFwLfBbwGbSmf19HfhvwBdIRPCbJ9hxO/S9ZcOvtMWRtBvvwHlc7yHc0mdsD+vDCyFTiXNVB7C2h25gA5C2/fIcsAjoA/aQov2Bb/verXEvQSahdyERkbTyzgav5Epxl9y1k83ALwMXkM7g9yXgz0hC8OuDKPi9DXoP2vArkXYVBhbwdhzHrX8It+i5JGyV9BQ2+f1vsAFZaRMA7wZ+Hlgc81qkjagEWkQkzXyg4HfmLAI+gR1wpfEE8T7gL4G/wEqg41MpEGy7A3oOWVCgMn2ZDbwDn7Fs8OYHAIc/sCLuTPDT2ByALPBRoCfOxZyDLqwdZR/wRaAa62qkLegdSURExMoE349lGtLY9/sqFvj+JXEGv97ZdNytd8Kc16MDf52gkVnGO6hkceseIbj6q1b+H18FhMdKiH8f+AfSmQleB/ws6d7jWBJEGWAREZntAuzA6mPAspjXci7exDIjXwLeiGUF3kXVCOC23IOb9ypU0tZymAjuLNeT3TfR7Xq+gdu1jye6TwMHJmV9wVRzBOfdQbj7OnhnAQSxJTCfBv4T1gv8MdLVExwAVwCfwybavxzvciTtFACLiMhstxTL/KZxv98DwJexnt/XYllBGEC2DEEFt3o3bsE+2x4m/c4WcE4UlE72udolwCbz5rGBpLXbueg6jx2j1e4n+jgffW1Q9xiir6s1nDqsiiHL6YFqiG0nU41ul6ML0X3D0f0AI9FjPTZJuBJ9PBw9dqTu60vRdaXua8YLlscLnsfeHu9z6Q+6K3mC7bcTPn4dvLPQ7osnEN6LZYIdVg6dpiC4APw0tjXSnwBH4l2OpJkCYBGRtAsz6gM+d11Y8PtTpG+rkEPYHpl/hpVAt15U1ulWPoFb9SQMd0I5sfv71gLP2nWABZ85RgPPDKcHoLUgNFf3cTH6uPa1hbrbta/L1H2/3JjH125no9vBmK/LjrnUgpTa52r/hjyjwXXtcbWPa4FyPY8FqiGnB7YwGhzXfnC1gLb2uPrguVJ3qdY9tv52LTiufV257mtLnB5U124P190uY0F2/eNKdc9RGue5fPR8VcbPYMerXCDY/gPC3ddCJQ9H58bVG7wb+APs9/j9pCsWGMRer38M/AvqB5ZzlKZfehERGSsMoPctODpowYi2QpqKPHAV8ElgbsxrmaqjwN9hwe++WFYQZgCPW/cobvlTcKI3+v1r+e9gJ/bzG8B6uTs4PfgMGM2eFhgNYmuBbS2Irc/A1oLcWgBcZDSoLdZ9n9rH9cFyfXAro8YGwPVBbhkYYjTIHWE0IC5FH9c/dpjRwLf+cyPR96l9rlp3XbvdgQ2CqgIHsZLaFxjNfjdPuUBw/h0QZvC7r8cfXgDZUtOfdhyPAb+H/b94D+maCbQW+DT2c3si5rVISikAFhFJs3IBt/4h/NF5cHgBOJ0Qn4INWE/Z+rgXMkXDwD8Cfwr8JJYVhAEW/P7Igt+hlu9D3Y8FvUuAjcAmYBWwAMsS1QLa+hqRe2YAACAASURBVExuLXMKp5cj1xvvfpVXzIwMo+XeUzX2zEo45nNjH1O7rgXF9QF3N7a3bIi1DdwNfCu6bn5ZbblgU6LPuwOeuAb/9iLIDRPDr9lDwP+FnUC6ivQEwTngRqycex92MlBkShQAi4ikmfN2QKVtZqaqB7gJO5BK03thBbgV+C/YHp+tVypCtoxb9whu+R4Y6mll8NsPrMZ6Aa8BlmM/yy4sm5Wmn6U0buxJiam84HVP8Ll12AyAy4C/Av6cVgRU3gEet+0uePIq/MGlUDgZRyvLfcD/jVUxXNrqJ5+GLuDj2HTrr9GK7L20Fb1RiIjIbPQubM/fiQ6Ok+g+rH/v8VievZLDrXoC8sO4ZXtbGfwGwE5sP9BrgZVYtldkujqAzcCvACexaeonm/6sPoCgittyD37PlfDWMiieiCMIvg07sfS/AFta/eTTsALbGmkP1tcs0jAFwCIiaVfLAvsAzQRpyFrswClNB3sAjwJ/CNwTy7OXC5b1XfGk/a6NdLUq+O0EPogNv7mK9J20kHRYBfwSVhb9r4xOyG6eMAOZCsHmewn37IKDsQTBVeCfsR7638EqLNLiGuDnsH5glUJLw1QzJyKSdpU8bs1jUDyuadCTK2Klc9fGvZApehb4z8B3Y3l273AbHrKsb6nDTri0ZthVPxb4/s9Y2bOCX2mmrcAvAue17BmrWciWCbbci5v3Mgy37MRSvSGslPgviGsv8XPTg50cS1sri8RMAbCISNqFWdz8lyA3gub1TOpy4APAvLgXMgWvA3+MDeqJZWQs5SJu4Yu2fUtrXQD8JjboSqTZAuzk2Cdo5WtENQu5Em7zfbh5r8BIJzFMU38H+Fvg68DxVj/5NKwFPgOsiXshkh4KgEVEUs9DJafs7+SWA5/FsjxpcQj4ArblUYsPSqPfq+Eu3JZ749hVdR5W4rih5c8ss1knVlb7EWyKeGtUcjZcbsu9uDmvWaVF672EDQL7DnGdbJu6ALgE+3kNxrwWSQkFwCIiMhvUpj5fR3pK5Y4D/wR8GXir5c9eKRBseJDgkm/j5r3U8qfHDmpvIj0/rynwE14m/mzzLo0+ahZYgGUVr8e2bmqNahYyZdzWu3FzXodyyysuwLYX+kNsW6i0GMRaJS6KeyGSDm34piIiInKG7dgBUpomB9+J9eTti+XZqznoPAa9B+MofZ4PvBubzptg9VUXvi6IrLv2jLl/9PaZ95/++dPu8RM/drzPuDPWWPc5N97949/nxv18dL8783PujF2LUhk47wQ+DbyMTRpujWrWpkNvuwueuBZ/ZC5kKi17euyH9QjwR1gP/oWtfPJz5LA2iY9iA7Hi2R9dUkMBsIiItLt52KCUnaSnSfoRrPT5UeKIHkpF3Ja7ofdQHMGvwzK/7wIKM/VN/amA1Ee3Q8tpeqhtI+rr/ld7Tn2y7n4/JhAdzdg6MmQcOAIClwECAueAAEeAcxncqc8HuNp/LkP9r2XgMrhxCvScCwjGvd9Fzzfer3ZI6Ku1f8Zp/zdCXz3jF8tHjz/tPh/io+ny9jXeHheGQAg+JPR+9LnwhD4kJKwLwGtrc7i6qPm00NqNDaDrHx+cus8e50772ibJYBng2gC6t5v9hKeEGXAh7rzb8buvh2NzIGjphP8QuAVYBPRh+yUnXQC8D3gMeJVWbGUlqaUAWESkHVTyBDtuI3zkPTZApfVTRJMqAN4D3Iz19qXBPuDPsInPzd+KpZ53ttfvpvtt6FU1lsOEddh+v+sne6DHRwFtOJp/9fUFvaNZWOfcqeA0IINz+SgQtUDVEUB0bYFpMHrBjX7u1HUtKHMEzpFxObIug3MZMi536roW0GZc/lQQW387CAqngj8XfZ9gnKrbTJAlcNkzAr/AZcgE2fqgOfpHOzyhq4YlH/rwtC/yVKmE5ej/1aiQKlVfd7/3hGGZKlX7rC9HQW5IJSzhqRL62tdUqfrKqeuKL0eBsYXMFkiH+NoJiNrPzdfuq546OWGPtUC69nFINXpsiPdlO33hPbjTg+naz2o0D137uZ5TwDyX0b1mv0Er/x59AM4TbL+d8PF3wfH+Vr+uV7EWjPnAb2PbJCXdPOy1fjdwLyktPZDmUwAsItIuWpshSItN2AFRWiaEHsQyv39Pq4fQeAfVLG7jD3FLno22Omq5QeBjWC/fuHNKakEU3lvg6AICclG2tRbIjoY/UdhLLpMn5zrIZzrJBZ1kMx3kgw6yQZ5sUCAX5MkEOTJBnpzLEQQFstkiWZcnG+TJuJwFuZmiBdBBJvraHJkgV5fBdKeCUVcXiJ2exQxOPfLMwOwswVqUPT7zbje2nPn0YNd758+IA/wZwW90L2NjhvquZE8YlXSPZtDrv5ePMumWYfZUwzLVsGzBclglpEqlOkKVMtWwQiUcoeJHCKslKuEIVV+iUrXHl8MS1ei+cjhCuTpMKTxJNRyiVD1JyQ9TCStjsvP12f3ax4CvRgFz9H/nLNn0s1gLfB54AXj4jP9BzeQd+AzBju8TPvheG4zV2iD4LSzwX4ENBkvDNmRXYQOxdqO9geUsFACLiLSTULMN69T2iLw+7oU06AS2F+dXaOWBm3dRyaXHbXg4zuDXAduAD2FZp9OcygxGWcFskKEz209Xbh4dmX46st3ksz0Ust0Usl3kM3bJBXlymaJlUKllZbMELkcQZMkEUUaYgCDIEBDgXJbAWbbYucypLG7gglMZRzlHvlZqHeJ9ldBXTpVeh75KGFajzG/1VNY3DCtUfYXQVwh9maqvUPVlKmGZcnWESjhEqTLCSPW4XcrHKVWPM1Q9TqlyguHqEYYrhymFw1S9t9w4YZTFb+g18xLsxMx+bFJyizkonoCRrlptPgThZF80U34C/BV2IuAakt9GUsC2sroWK+NOyzRraSEFwCIi7cI76H4H3knTnKemcVjP702ko3QvBO4HvkQrD7B9YJUDHcdxC5/HLXsq2oM0FkuwctNxtj3yVH2JHB3M61rNwt6N9BcW0pntp5jpI5/tJh90ks92kAs6yGc6yEZBryRMlMnOuAA7DJ3+yRbvPZVqiXI4TLl6knI4RKk6RKUyRMlHGePKMU5UjnCsdIgjw69x6ORLHCu/hXdVsi7PJIndIjZg6RlsKvvItBc9FdWMlULvvs7aEnwGjg2CC1tR+RNime//hg0RTPhgOsAqfj6BZYH3xbsUSSK9M4iItIswQ3DeHYT3fQiqsWyfkSTzsQPWLXEvpEFPY6XPT7bm6azXl6CKW7YXt+4RC3yHu+LqH89i2aX3AadtgBpiPZ+dmQFW9l7IhrnXs7TvPLryaTivIa3gnCOXLZCjgM1sOrvjI4c4dPJFXjv6Y559+272Dz1HNRwhE0z6mrkUKwPeC9wzIwufikqeYPsPLOgtdeB/fCWEWfzRuZBtepKzAnwLWAn8e6w3Osk6sVLo64CvAkPxLkeSpnV7m8k5u/GzK+NegoikhQ/wr22wDMHsVQumfg1YGO9SGnIY+HPgr4Hhpj9bOW/lznNfxc17Bbf2UTjZGw3dafqzn815wK9iWfu6aU42rbgj08fmOe/ioiUfY/nATvKZjrN+I5GJ5LOd9HcsZkH3eorZXo6OvMnx8kE4s5d6PEuwY+cfYi0LrRVmLAPsvJ24GjiAf3uR/f0G3oLj5v0RV4BXsD797SQ/hugEeoEngNdb+cS3fe/WVj6dnANlgEVEpN2sxPb8XRbzOhoxgk1a/RLN3rajkgfvcIufhdwIbsODVikw1BP31PAilvm9jjEH1dWwRD7TzbqBq9i+8APM607LLDNJuny2i/XzrqYSjvDIG2UOnPwJuCzBxGXzOWx7rsewPbrjySx6Z/3AhZO4rXfBS9vwQz1waDHkhyGo0KRA+GUso7oB+3tNMgdcivUCP0UcJywksRQAi4i0m3KhlQNSkiYL7AJuwA5Wk+5erKfwteY9hYdSJ27p05Ar4dY8CjgYjga6xhv8Ouzn9V7GTJgNfZXAZVjUuZ7zF76XeV0KfmVm5YIi6+dezVDlKEOvv82xykGcdziXZYKe4MVYf+mPgPtatdZxVXK44hCc/wPcwaX43oP4wwvh8AIonGzW+8DDwF9i25QtbcYTzKAO4APYvuo/iHktkiBJL18QVAItIlOUqcLReSR/WGdTbMVKabfHvZAGvAz8Ebbf78xPsnEeKgUY6cQt34tb/zBu7qtQ7oAwMee/FwC/DrybMcckpXCIweJSti/4IGvn7Dq1dZDITMplivQU5lGqnuCtk89H/cATnjsLsBkDAfA4cKQV6zwr76BUhOJJ3KLncflh6DkMQ71WGp2pzPRbQQV4FegCLiD5JxrnYW0mP6RFE6FVAp18ejcREWkrDrdiT9yLiEsHlvlNemkeWLnz3wK3MtMTZZ2Hag6O98PiZ3Fb7sOt/ZFtkVVKVO9sDrgRKyk9bQKRJyTjsizs2siaOVcQOJ2vl+bpKy5i2/ybWNG7ExcElMNJW/Fz2HZd78MCwXg5b/3BJ/pgYD9u7Y8I1j2M23Kvfc7P+OH+Yaxt4/tYQJxkRdLzviAtogBYRKTdxLOHaxKchx3oxH9AOjGPbXn0FeDNGf3OzsNwF27+S7id3ydY+YRtbQTNOAiertXAx4EVo3c5wrBKJRxhsLCcFX0X0Z2fE9f6ZBaZ372O8+ffzGBh5am9iScxgO0NfHnzV9cg521I1lAPDL6OW/o0bss99ooz8ye/nsP2B07DGdfN2MmKiUeEy6yRuHdDERGRc5DDDnCuiHshDXgG+CK29dHMiTJAbsE+3LqHcQtfgGzZDnx94srh+7DevAsZU6AZRtXgy3vPZ9XAJSp9lpZwLmB5/w42DFxLT34+lXAE/KRB8IXAh7FS/gSJqkBKHbjBN3Db7sKdd4cNwpvRJ+FO4JtYRjjJcowOxEp6yba0gN5VRETaUWVWvccHWM/vVYwZpJRAR4BbsL7fmSkd9M6yvv0HCK74pu3pmy1bX2Dysr41F2LZ38HRuxyhL4NzLOhYx8qBS+gtzI9rfTILFXN9bF5wA0t7zicgoOrDs4/CMh3AzcDPktTBspU8bmA/bu6rBOfdAeXiTL4/HMEqWdLQ9Loey9gn7GSFxCGx74wiInKOnCfYcXuSg5+Z1gt8BNgW90IacA/W+zszGZNyATqPEez6B9z6h6D7MORGrAwymRywCvggsIW67K8DKmGJLFnWDV7Jst7tyv5Ky83pXMHmuTcyv2M9VT9C6CfdUmgR8FGsFDqZzerVrF0G9hNc/G2CrffYCbKZ8Ty2NdLumfqGTZLDKoQuY8zMAZl99M4iItKOOo7GvYJWccBGrPe3P+a1TOZF4O+YiQNF7yA7QnD5Nwm23m1bnuSHLbOTvHLnejlsGM37Oe0YxFH1FQKXYUHnOlYOXEpXQb2/0nrOBazsv4i1c66kmO3DU4HJ+4F3AP+GpG8LFAbQeQzmvEaw7e6ZbI+4A/g6cGgmvlkTLcSGl62KeyESLwXAIiLtyAfgZsVewPOBm0j+Ac0QliW5DSif+7dx9nPNjRBccCvkSpbxDTNJD3xh9GTFTZwRKHjK4bDvzg36zXNvYF736hiWJ2IKuS7WDuxiZd9FZMhS9ZP+yXYAPw38VHQ7ucLAXi8GXye4+qs2Ib6SY4J9jxtxDPgWFghP4/Wt6XLA1Ywze0BmFwXAIiLtKFsi2Pm9JJfCzpQt2DClJE/39NgelP/MdKY+ewdBheCi7xJceAsEod2X/MC3poCVil479hOhD8mSrS7oXDe8avCSsJjpaf3qROos6t3IhjnX0JOfjw89fvIAcQHwOazENiV/lB43/yWCa/8Wt+Kp6VaQ7MG2RnpxxpbXHHOA92A9wTJLKQAWEWlXblpn9NNgDrALO5BJ8gHna8DfcK6lz95ZxiZTtqxvdiSNP9ss1iN5Rqm6J6QcDvmBjmXDG+Zcf7S3uCjp+4rKLLGsdwdrB66ikO2mGg43EgRvAX4OWNn0xc2I6GWzksOt/DFu1RP2WhOecyvzD0n+VOg81oZxJcl+35AmavvUwCwSYMMXsugPWmQiITZ9t8o0a74kdhdiZYdJHnldBn4AfA8YnvJXewfFE4Aj2HYn5IbTOtxsPvBJYNPpdztCXwUfHp3fue7tFf0XFrNBIZX/QGk/vcX5bJxzLW8ef5rXjj2BvX1MGBwWgfdi2dD/Cow0f5UzpFTErXkMcPgDy2Cky15/pnay7RA25O8C7GRXUi0GrgFuJ/kZa2kCBcDp1gWsAJYAc7Gz6l3Yq7MO7EXO5LCA5Ch2hvo14FmSP7jjHDkrgc60ZUItj030PJ9kn/TbjfX+7p/yV4YZ295oyz24BS/BSGdag98C1nd3A3BabXPVV6j6sp/XufqttQOXH+kuzF2Hjk0kQeZ3r2P94JUcKb3B0ZE3yGU6mOQlZyG23c7j2D656THShVvxJG7dw4R7L4fX1gPhVIPgJ4FvYP3+y5qxzBlyBfAu4MtAKea1SIvpTSad8tjAl+uwA4odwDxGT0s6FACLjKd21OKxM/NPA9/BejP30m5vgkEFN/gG/ticdhyIdRFWwpbk7SyOY79f9zHVPX8reeg+jOvfbycwSsU09fqOtQX4FBYY1HF4XyHr8kMbBq8N1829pi8T5JI9QEhmnXy2kw1zr+XV4z/mWOkA3oc4N2mJ8MXAp7Etgl5p+iJnjLeTpkO9BBt+iAf8qxsgqE4lCPbAP2JZ4E9hJ8CSaCU2j+A7wOvxLkVaTQFw+vRiUwY/h+15OQf9HEXORRG4BFiHBVJ/jJWptkcQ7B3kh3CbHsA/8EHrG20fGWyIyU6SPcviDuBr2ITUxoUZ6DyC2/Agbu6rMNw9nZ68uHUB1wNXMaZ2tOpLAOXFXVsPrxq4rFjIds0n2eXsMkv1FRexdmAXh06+xNsjLxLgcBO/9ARYguIx4AvYFPgU8TDSjdvwILgQ//JmyE5puPMBLLC8AHudTqod2NCybzHVk5SSakk+cJAzzcHOpv2vWNnGAhT8ikzXIHag8ltYT1BqI40zeAflAm1YELIWO2jpjXshE3gVO6h6empf5qHUgVu4DzfndTjRZ9uWpNcu4CNAZ/2dHk81rPhipru0ce71uUU9mwaxk1IiyeMcawauYHnfThwB3oc08Lq6BPhZ4Lymr68pPIx04tY9glv+1Ll8g7uAfyLZfdCrsD3Jten4LJPqd9VZphP4IPA7wOaY1yLSjq4GfoFk9yyJ7bF5I1ZWm1RV4Bbg1ql9mYdyEXoOQv9+K3tO37TneoPAzViW5TTVsEQuKIYrey+qrh64uCeXKXa3fnkijesqDLC6/yLmd9ruOSHVRr7sAuAzwKImLq25Sh02HKsy5W6Td7Cqqkehsf9ZMShg7TSbUUw0q+iHnQ4Blpn6JWB5vEsRaVsZLFt1GcntWRI7QfFerAImqZ4Dvo1lgRtXKUDnUYKt9+AG3oRq6quB349VV5z2D/F4vA/9QHFxuGX+e7L9xaVJ7uMWOWVp7/msHdhFzhUIfUNzFfLAh7GWjc5JHptclTxuzeNQmnKL/tPAV0j2tki195R5cS9EWkcBcDosAX6GZPdRiLSDQSwTnN6z9e0twKY+byW5k59PAv8CPDylr6rkcMXjBNvugt5DMNJBykvXV2MH/mvq7/RA2ZcoZnuqK3ovrC7p25YPgkz7tB1IW+vID7Cy/yLmd6whwFHxDbWNzgU+QcqP4dzyPbj1D091HsERLAv8GMnNAndhJ+rWx70QaR0FwOmwC9iOfl4izVbEtm6YG/dCZoTzkBshubHilC3HMilJ7td6Huv9bXzbIx9A9zu48+6E7sOWZUl36XMv8FFsEu5p71veh/hqhbmda9zmeTdkOnP9mmMhqTKvay3r511PZ7afaliiwdfXXcAHSPN7SzWDm/+StWZM7eTcK8DXgX3NWNYMWYudoNAcgllCAVU6XAUsjXsRIrOAw7LA6d+KxdkwpfDJKyHTHoOtsczvVSS3RP1tLPv7JFM5QgwD22ak70C7DC07DwuATzvY9zb6ir78Qr+m71IWdG/IttHJGZklCtkuVvdfwsKuzeSDIt5XaeBvNo/NcflA0xfYLD6AoEyw5V4Y6WIKr1Mj2OviI01b2/R1YMNlk1xdJDNIAXA6bAcG4l6EyCyRoV3eAMMMHJ2b9mxizSBwKckuT38Cy3S80/BX+AAKJ+sOKlNvCfBzWCXFaX9H3od4Qr+0dxvr5lwTZDOF9vg7k1lnoGMpG+ZcQ29xIaWw4R2OVmEnhraT1vcY52HhCwSb7p/q69UB4F+BnzRnYTPiKqxqRS0Zs4AC4HRYiv4gRVqlLaLFU4Kktl1N2fnAdSR3kMxB4Hamkv31DvInCXZ+D/JD9nH6XY0NlDmtisJjWbKB/GJWDVzC3K6VbfGPldkpCLKsGLyYRV2byQZ5wqi+YRIOK7P9JMlu45iAs5N2i57Hbbo/mlXQkBC4E/hB05Y2fb3Yz2d+3AuR5lMAnA7qSRCRc9A2MUYWOzN/Hsn8R1WBB4DvAA1NxTklCKEwNNXBMkm1HfgQ42TpQ18lG+RZ3X8Fy3suwLkk/hhFGteTm8Oa/stZ0LGOaliKSqEn/b2eg5VCX0NaExveQRjgFj+H2/hg1BPckNexAPi55i1u2i4EriStPxtpmAJgEZF2VMkTPnojZKYWjyXUGuzAJKk1wseBu4HHG/4K7yA/RLDje1BJ/XZHYJn592J9dKf9g0If4ggYyC/2qwcvcwNdSxX9Suo5F7Bq4GKW9W4nQ9DotkgAK4HPYlUtKeVGhywGYaPVKxXgPmyLuKS+MW3FAmBtzdbmFACLiLQr3xYv8Xlsb+YL4l7IWYTAvcA9NFz6HEBhiODC7yYznz11Gax/7v1A3+mfclTCEYqZbtbNucYt6t4Uw/JEmqOY62FF34Us6NyAc47Qlxv5MocFWTeT7P3MJ1bJ4Ra+gNv4AITZRt9v3sBaRfY1dW3nLoMFwWfMMJD20hZHRyIi0rb6sIPFVXEv5CxOALdgvb8NcFA8QXDBrc1cU6stAD4C7Bj7iZAqGZdjfuc61g1eSWeuv/WrE2mSwGVY1LOZtYO7yJKjGo7gGouburB9sq9l6oFWHqu46GjCpcBUyn/LBdySZ3EbHgJ8I5lgj+0JfCvQ8PSwFluD/VySOm9CZoD23xMRkaRy2MHItrgXchZV4FHgQSwQnlypQHDxt8E1XDZYr4iVFzdcazkFLrqUsW1LGh0GlwNuxEqfzzhwrlRHGCwuZd3gVQx2LldORdpOV2GQFf0X8Pzh+3j9xF6qVAkayy9txaZCPwY808DjO7EhTedFt2fydaD2918CDgMvAHuxrd0mVirilu+B4334l7bYTIOJvY7tlX4dkMSSkAVYAPxNGn1dl9RRACwi0o4yDZXiJV03cAPJzf4eAr5Bo1t7+AA3sH+qpekdwGJgHTZcqoPmB8A/xgL7Rn6J1mJTbVeM/URISOACFvVsZM2cK8ll0r+9tsh45natYcPgdRwZ2c/R8lsUMg0nD6/D/n7+IxMHW/1YyfQvY4FzlpndsaB2aspjJ/aeAf4Je317lsl6dst56DoC+WEb6Df57gO7sROHaxkzMyABctj/47XAyzTn9VZipgBYRKQN+beW0wY7Os3Fekvnxr2QcXjswPB24GhDDx/pxF30HdvyqLGpz91YX+1nsABzauWJ5yaDBb//EettnsgANvV55+l3O0JfpeJLLOpcx9r+XfQV09vqKDKZYraHNXMu4/kj93P8nYN4X8W5hv5U+7DA9gGslWJssBVgQ7M+g+2vvWbmVj2hC4DVWCD4p9jwqrMHguUCbvlTkKngn99hg/0m3n/+bWwY1sXA5hlb9cwZxFpvfgzsj3kt0gQKgEVE2o13+L2X2YTO9AqwQSRJzv7eDrza0KPDLG7Bi3a78QzwJuBXgMunvLrpeTdwEvs37p3gcTuxg/Ixjb2ekDJZ51jRexEr+i9utC9SJLX6Opawtv9y3hl6lXdKb5DLdOAaK4XeiAW4TwEv1t0fYAHiL2ET1lt9InAA27LpGLZ10RtnfaTzMNSNW7YXDi3BH1g+2Q4EFSwD/DjJDIA7sez8d1AA3JY0BEtEpB3lh+NewXTNw/bKnBfzOs7mJ8A/Y4HixJyH4W7cyiegeLzR3t8CFvhun84iz1EGeB/wG8CyszxmOXZwfNrBq8NRDct4Dws7N7Fy4GK6C3Oau1qRBMgFRVbPuYIF3RsBprItUg64HvgAp2/1thD4VaxEOq4qmDxWhXMpk20N5DxU8lPZ03w/cAdWZpw0WSz7vQ5NLmhLCoBFRNpN+oNfsJLfq4GeuBcyjhGsh+0prF9uYpUcbtlTkB+x7UIaswEbxFI410VOUwH4BPB5YP6Yz2WxoVcfZpyDw6ovUwi62Djnehb3bG36QkWSYqC4lFV9F9OfX0wYlgmp0mD81A98itFqjwDYxVmGy7XYIuy1qHfSRzoP5QKEDYUXFeAHwP3TWl3z9GBVLoviXojMPAXAIiLtxHn8Ty46lwnDSZLBet2SuhfjXixzMfmZBudhuAsWvAgdDWd/wQ68Libeg98u4HNYIFxf5rwJuAnLUJ3igEpYIiDDkq7NrBy4mGKuu2WLFYlbJsixqv8SlvVuBw9hOPHsqDG2YD31A1jQdTPJqIDpxipRJg+Ay3ncyieg+0ijrR4vYqXQDcxRaLkAuATLBEubUQAsItJWPP6NVs1JaZqF2BCWpEZPDwN308iUsXIet2o3rvsdGwzTmC5s66eFkz2wBeYDv4gdmAdY9vfDWMnmGcrhED35uWyadyNzOle2bJEiSdHfuYQVfRfSW1iIx+P95EUikRzW6/szWMb1MuLP/oKd21pII8F4mIV5L0HhRKMn+zwWAD9EI9U0reWw4DeJPcoyTQqARUTaTbYU9wqmI8AyjEk5+BtrP3awdrChR4cZGNgPxYYPCB3Wd5ak7PdGrDzz/Vjgew02vse2cgAAIABJREFUvfYU7z0VyhSzvSzr3cmKgQvJBEnb3USk+ZwLWNa/k5X9FxG4LBU/pS3plmK9978OLGnKAs9NN7YtUHHih3moZqFcnEq1y4+A24BJNxCOQTf2fqRBBm1GAbCIiCRJLQDeEfdCzuJO4IdMJVtRzU5l8nMeOB872EySC4HfBX4HK9Ws4/CEVCpDfk5xud807wZ6C2PbhkVmj/7iYlYPXEpvbr6dxfJT2pJuM/b3Flf//3iKWFtK32QPpFIg2HwvdB5t9HVvBKuqeWFaK2yOAMsC75zsgZIuCoBFRCRJ+oH1QEfcCxnHCaz0+dmGvyIMphL8gh30bsSGgCVJF9aTfA1jsiGekKqvUsz1srJvJ0t7t+GcDi9k9nLOsahnEyv7LiQXdFAJS0xxX/akVH/UFLCJ8JMHwD6A7ncgmFL/80+w19bJp+q3Vq0i5xKSWZEk50jvUCIikhQB1vua1J6rZ7Hpz41tsFwu4NY/ilv0/FT6f/PYFkNJyv7UBNhBYN3BuSP0FSD8/9m7zyDJsvPM7/9z7r1pyle1NzPtxqPHz2AAEMAAhCO5S7dLQiS1q12FpNgIRciEdiWFVhFaSd9kPq1iNzZCIemLYiVyKZFaiSQIQ2CAAUgCmME49JjucT3TZtpUV3W5NPeeow8nsyu7prsrsyrNzcrnNyh0dlZW1qnqNPe57znv4a6Jx8w9c8+acrx5rxyRnW66dJB75j7HZGEvDtdZ/M2fZgBuryu/s3SY4c8ROkJf7XRgfbCL8L6kF7YdRAFYRGQnaW/7ibyKCFP/Hhj0QG5hiTD9+d22v8IbiGpgO+rtMkk+Or+2yeNxjEcz7tjMM/7A1ENg8la8Euk/g2HfxP3cNfkIY9FU40TR0MbgCDhIu40J0wL28W932gzrNeDn5O+XZIFj5PfErGzBUB8piYhIiyjFvfg1SAuDHslWlQln2g8OeiC3cBn4DqEJVnu86XT6M4Suy0NTaUh9DUPE0ZmnzbHZZ4htHgvXIoMxWdzNvXOfY7p0kNTV8LnLdh3ZS1gK0R6bdbod30fAc3TyGts/B4Gnyee+9LIFCsAiIpIHFjhOONOeN54w/fkU7Ta/8gYKVUhqnRwEWsIeoEORIj0OPH6qsD+7Z9ezfvf4cZV+RVoYYzk49QgHJh6iFI3jO2uGlTeTdLQ1nQnd703bP/N1wv7q73c8st7bS9iZYHbQA5HuUAAWEZE8KBGmP+dh79uNLhEqE+1tfQSQFjBHX8UcerOTivwt1tjmlSfNahSiMidmP+MOTz4y6AGJ5NJYYYoTs59mT/keUp+GE0fDKSI0KWzv9SmLsI99G6KOtoE6BbwO5G0vv4TQ/T6P70+yBQrAIiI7RTTUa8wmCV2G83iA8Q5h/e9SR1/lovDRwVcAaePPXHM4jCHbXT5ae2jXl+xUae8QhHaRQTDcNf04h6ZOEptkmKdBG2A3nVSBs473Al8B/hI42+kX9sFuwhZ92uB8B1AAFhHZCYzDXz0ILh70SLZqBniEjqbY9YUjVCXeovdnFxwwD1R6/H22yZO5OjOlQ/UHd315Zd/EvY6hqFqLDEYpmeTQ5CPsKR3DYHG+o8Z4eWEIU4F7OQ3YAc8TmmHl7UTgBPAkcGDQA5HtUwAWEdkJojr+jU9BrdzJmqu8aK7/zeOBxXngp8Byn77fReBan77XlnjvcT5zu8rHzD27Pl9M4jEdS4hsYs/4cQ6MP4AlwuUu27UlIZyobL8RFkC946aMbxECcN7OEowRGmHlcZaSdGhoSwUiItLKQFKFemnQA9mKWeAx8lf9hXAg9tf0b03aQuN7/iJhXXTueDzWGCYKc/F06UCCTqb3hw+Nx5x3gG+ciAjLHjwe5x3epS1fYDA2IjLRjTswxBhrMRiaExqMibCmo6n6sgUTyW5myoexxoJzwzhnYgU4Q+iI3yaDOfwm/vx9nXyflDDr5jxwpJMv7DEDHCXsh/zjwQ5FtksBWEREBm0/+QzAnhBG36R/i6tXgW8AnyV0Hc0dg8F4Y/HOZb5urRmKptXd58H5FIcHn+HI8M6R+QxPhvce7zOczxoBdf1yCLIZvvF3vAtf792NMJu5GnVXI3N1Ml9vBOCU1KXgw31kja11wtfUyVxzCXk4J2FNQmyTGwM2JiIyMQZL8yFtbYHYFrEmJrIRiS0T2RhrDAbbCMcWY8Jl27hsCMHZNi7f9Hnb+BwR1kYYE2GwmBHeIzq2BeJoaLeoWwP+FfCv6aQZoDeYB/8Kf+HeTrdEepWwFvgu8nWCbZywDrhM+J3IkFIAFhGRQdtD2P83b0eHVwiViNU+fs8M+BHhYPN+YK6P37s9JtQc59fO2UtLb3Fo+uFBj2idb/7hboTJsPWMC4G0ET5vfA4fLnsXrsffCJe+5Wsyn5JldVJXI/N1nE/Jshp1V8E1Amrqajc+nK+RuYzUVcPXUCfLUjJfJXMpjpS6q+F8lcyneJ+SuiqZr5ORkbn1MOwNcNP2OT78nIaWbXWarZU2nKfxBoxpFBt9uOzhpvKjCf9njAmBpXE5NpbIxESmhLVxI0wXiE0BaxIikxBFRQq2SESCjQokJnw+igrEUZHEFIlsgSgqEpmYxBZJbIk4KmBtgcjEIUCbUJUOQdo0wnLzusZlazDefvzzJgoV7Zxn6+XaFebXPsR7h9n6YD1hNoqhf6+Xy8AfAf894WRg+4zHn/pMp+EXwrZzPwX+Fvl6XygCDxG26zs14LHINigAi4jIoB0A7h70IDbIgJfY6kGONxDXQ2fuWqnTddkV4P8ADgP/gE7X3PWYwWBtzJW1d3n10v9LMRpnbvzuls+GP+/Et9zC4ddv7f2NT9zULbdxMSMET+ezEDxdGsJoI4BmLsWThupp43apr+OalVQaQdZXyFxKRkqa1ch8rRFOazifkroadSqN+3eN6q1rNC/aEJyb4dm7sLazWcVt3qYZuBvBGt+M4dmN264HctcItb7xO2r8Mloqpzf9fm+qqH48Vn0sFPsNf7/xnXzLyYPw79EMwmBD4MQ0pk9HNz7XWtlthlLb+PuNynAzrJpmwG1Wk8PnYxsT2ZiEIrEtEdmEyBaITZGIUJ2Oo1A9jUyByBZITOM2tkAclUIYNxFRI3Rbm2BNRGTjxn3FYawm/GTeN391rb9Nc9Pjcv3EAesB7k4P6+bvtvn4bfw7G6CarfL2/I84e/0FHBnWbvnwOyP0CThPmCo8TlibGhGCYty43Pyz2Phzs9F/7CcB6oQlGX8C/FPC9kQd8vjz926lL8UaIWxfBg51/n17pkCoACsADzkFYBERGaRZ4D7ydZYfQgj9MVs9yElq+A/uh9ISZvc5SDveOeMi8C+AKeDvkautNwyRSai6FU5fe57rtSvMlg4Q2xKFqExMKYQHY4lNAiZiY+jKXB3v08bU3VAR9YD3dTKXAY2pxI3bZD7D4XAua1RMw/ThlAxcCJk3rsfjGsHVN76uORXZNYOqq+PIQkh1WRiDT9c/71Mc9cZ9NH7qRnhqDU4hHDaLqM3r1v9sXn9zNDXrFUsTtczv3Hi7fLgRkBuXQ1hvVJ99bT1k+41V6PXr1q/3N6rsNO4jhOUwXTq6EVQjrInDdTZuTLVuVotjoub0axuuD8E7uul2GBsCsIlvXBeZOFSobdK4LiYiwTSmhTe/P8Y0qt/rly1x47LFmNan43rF3tF4nPmUelahml2nki2xUr/GxeW3WKicv8XjoSOWcOz+PPBnhKDYDMAx63uJNy8nhEdaTOgpsL74+/ZSQpW5Rqj+vkHYCq5zSRXiKmRbenk/SzgJuYd8vT8cb3zIEFMAFhGRQTpGOKOep3VeAIvAK40/O2ccLM/C6hSYD7Y6htOEygvALxEWd17g5gJqJxzh4HiKsLZuG5Vlg8WyWl/k9PwPiIwlsUXiqExsCjTqxDcCSesxtwdco1LrblwOldX1dbLN8JrdCMC+UaU0hpYplabxv42/DrOeRz9Wkw6fW69zrg/PmHB/1iTYxjmHtsPKLda33v4r8xd0b8esR/zmbOkGv/GGH09WfvPKn7/p/8NjAJ+CqQGOUDRvCdWYlgnf/qbv0bz+xqxx41qqvWBNRExCZJMQsonCv3VjGrVhfUr2+vpl07htjDFgiTC0Ng3zZKShKRnhxIxzGZmrUHUrVLJl6lkVYyNimzTWX2+ZZX3JyEvAH9P+Eo12O52FNQPbZTPcq1/YavgFOAf8kNALIU9LQaYIAXiC/u0OIF2mACwishNE6TBufwShy+dDtH9w1g8eeBt4d1v3YjOw2z6OfA34HwjNuGxjXOtdjjpTJRy0/W3g4HYHBobIhupbCAGONF2+kTZurDu9ZdhrTg4FvG+Z6suNrwr3E4UJuCa5Ea5uvrfbBclbxFZz67/cHOqGJ5gOXhuBv42mV7f+d2r+a0f4jddtnNF9x9c9/7FHoAOcr2N82pj57W8aZ+tE6JsnovvG/279Mxnjb3x183FvfGM1RFRoTCPvynm+AqFL/AnCCcTfJ3Rn3kx/txUyHq7vaqxD39J70zxhHfB18hWAAY4S3rt+PuBxyBYpAEtXrK/V2mphQoZf80BB//59F1dxr3wRVqZD5XG4HCN/08mWCdOfzw96IIQn1lvA+42/Z2yvAvwwsBeY7MroMDdvofOx6uCdDnxvtY5VBD52gqL10sb+XV35Nrd+vPqNl9votdUaccPJoZ4oAPcC/xC4B/hnhLCYH8aHk4Bb5wknIc8SAmeeHCE0KXyLsFZahowCsGzZ+tSjjcdiQ1mFkq5orO9qdhVVGO4P40OjJW/B9Pck/zZNEA5s8rS+C2AJeIGwDnd7/Pr00W2qduE+9gO/QQjBPX5yblwPK5Jnt368mttczpFZ4HcIDfP+J8IWav3as/z24hruZ1+B6th2ZyYtEKZ6PwLMdGVs3XE3oXdFEQXgoaQALFvQ2MPQOTwZFktiy8RRCcvHm53IKAhrslJXoe7WyFwdvG1snWHJ7aHDTjKc05+PEw4k8rb+9yph/e32ziYUKvjTT0FSxRx4B+oDzfkTwK8Df5+whlBEdoYS8EVCGD4M/J+E6cODk8WNxn/t9Ny6oxXgJ8BXyVcA3kWowOft5K20SQFYOuLJqLsaRTPGnrEj7Bo7ylRpH6VonMgWGo0hhvJAXLYlvMllrk41W2Gldo35tbNcWjtDJV280W1TZIN7CM2Y8hSAM9a33+iOegEq4xDVw5pg1/cfdw/w24Ru0kf6/c1FpOci4ElCMNtH2EbtTQZxQJZUcC9+DVantzsFGkI3/pcIs3Ee2PbYuuswYW3yYE82yJboiFTaFraHSJlO9nFk8glOzH2GQ9OPMFXaP+ihSc5UaktcWD7FOws/4r2FnzK/do6MlEghWNbFhArwAfI1ReAyYS3dQlfuLani33kc/8ZnsCefg8l5KC+3dDHuuYPAvwX8e+RvrbWIdNdR4D8mzKz5nwm9DNK+j6J7M5Ja1wFvtflfr+wmvKa+Qze6Zktf6WhU2uJvhN/9PLr313lo3y8xVdqnNZ5yS6XCJMfmnmH/1IPsH3uAFy/+ERdW3yB/7187hM2GcQp0TGiAtXvQA9ngIvAi3dzewmZQWsK9+SlIE+wj34M9Z8M0wd46DvwD4O8STjSIyM43BfybhDD8T4FvEqYS90f334+qrM/K2dfNO96mPYQdDH6EtkMaOgrAsqmwtrPKRLKbR/b9Go/s/zXGC3nrSC95VI6nuH/Pl8iMIz1f40rlHbzPbu4aK9tjHSzugVpx2ELwBKFKkQx6IBtcBE7R9S1DTJgCHdVxr34e8/D3MXveh6xnP/5DwH8A/Bb5O8kgIr2VAM8SQtohwpToqz3/rr15P3KE1+T3yVcA3kWYll1GAXjoqBQjm3JkFOw4d08+wYO7v6zwKx2JowL373qW+3d9gcQW8X6ouhTnX1LFn/4kLM0N2xZIhwkHEHlSJeyz29sDxUIF/9rn8JeOQtKN5s4f8wjwnwN/B4VfkVFlgE8A/wj4Twg9F3qrN+9HzQD8XrfusEvGCHsxlwc9EOmcArDckceRuTozxYPcN/cs02XNopPOFeMJjs48yZ7yMSKT4Hz/lyTtWN6EEGWHKvwmhD0UZwc9kA0uEaba9X5bi6SKP/UZ/PkT3T5x8SngvwJ+l1BlF5HRdgT49wknxT5Fr3suGN+L73CO/AVgCBXpvL2PSRsUgOXOPOAdM6WDHJp+WJ18Zcumige4a/JxivEEmVMAHnEThACcpwqwIzRaOU2/GppEGf7tJ7t58uLzwH8N/Cb5m1ouIoMzQ2iG94+BXwHGe/Jd0gQOnobyUrcb/VUJzbDyNtV4krDWWuu6howCsNyRx5OYApPF3YwVdJJLtq6UTDI3djRMg8aRr8a/0mfjwH3k68y5Az6kr1uHeEgq3bijiLBP5n8LfAW9t4vIxxWAXwb+G+D36MW+ummCOfw6xDVwXS2YeMLr8+lu3mkXjBP2A54c9ECkM3qTlDvyeBI7RslOYfRwkW2IbYFSPI01MV57RY+6CcLaqTxNKWkeYH0w6IF0KAJ+iXBQ+3n0vi4itxcT9gv+x8B/SLe7wxsPlQnM8Zeh1NXt3ponKM+Qry2HmuuAu38yQXpKb5RyR4bQxCi2xUEPRYaeIbEJGIP3CsAjbhehO2meLBGmQA/T/PwI+HXCtOfer+0TkZ3iKCEA/xNC07zucTFm73vhsu9azPCE1+e3yF8APooC8NBRAJY26JhKukWPJcEStuXIU+fMYaz+loGvA/8F8NSAxyIiw2cXYY/wfwL8DaBLlQ4P1XHsJ54PewJ3rwq8QJgC3ZPW+VtkCAF4asDjkA4pAIuISD9NEbZAytO0EkeoLHw46IG0qUhodPUPCdMZRUS2Ygz4VdY7x+/tyr16AxPXsI9/K+x/3h0OOA/Md+sOu2QvoP1Bh0ye1l+JiMjON0XYliNvAfgMYYpd3hUIXVz/IfAYmlYhItuTAE8TlqXcB/xL4OdstxlgFsP4Yre7QV8jbId0mPy89o0RZjUVyVd1Wu5AFWAREemnKeBuoDTogbRwwPuEfYDzLCFUa/5L4HH0Hi4i3WGAY4R1wf8d8AW6sbVPFmOf/GZojtUd84RO/WvdusMuiAiBfHrQA5H2qQIsIjLMXNTtM+y9Nk0IwHl6/1kBPqJv2x9tiQF+DfjPgCfIT/VDRHaOceBrhJNrq8CP2e7rYlwNa4GzrrzkXyOsA14mVF7zoNnXYjf5P4kqDTp7LCIyrAoV/Bufwl85BNHQNC+eplvrzLrnAvlbV9bKAl8G/iPCVMUuhl9P2PDO48nIfErma42POs6neFxj67I8nx8QGRbN55vD+bTxnAvPNeezG58d4POtua/4vw0c3/a9GbBP/nm3OkJfJyxXWe3GnXVJBOwnBGDlqiGRpzPwIiKy8+0lXx2g64QDqoVBD+Q2LPAM8J8Cn6WL4dfjyHwd7xzgiUyBQlQiMgUsBocj8zXq2Rqpr2NNhDFx+FMFaJGOhMCb4VyGwxGbmMSWMCbBAJmvk7kaqVvD4YlseK7ZwRyqW+BvA68C/wtQ2fY9OgvRtncwygjLVVa2PZ7uOkjoqq0XxiGhACwiIv1SJkwVSwY9kBZrwDvkMwAb4EHgHwG/SJcOrhwZzqdExBSjSQpJiWI0xni8i4nCXsrxFJGJSX2NSrrIQvUCy/Ur1F2FelYldRW88ViTYIlQZVjkVgzgyXyK9xnWWBJbJo6LFGyZycIuJpPdxGYMbwx1t0IlvcZy/RqVbIW0EYZTX8NgiExMn/PVbsJJt+8Ab2zrnoyHiWuwOtWN9cBXCVOh8+Qg6xXgbMBjkTYoAIuISL/sIRwo5Om9Z5VwcJfHtVt7gd8DvkIXGtKE6ZUOg6FgS8wV7+Lw5OPsn3yA2fJBivEEsSkRmQRjbKhWUaeSrrJcu8zlpdN8uPxzLq28zmp6De8dqU+xxmJUFRa5oVntxQMGYhszlexn//hD7J96iD3lY4wXZhsV4AiMwfk6ztepZqssVi5yefkM55dOcWntNJVsicynGAzWRPQxCJ8kbLV2mu0Eu6iGffR7uB/+ZjeW61QJVeBP041GXd0xiyrAQyVPByEiIrKzzRFCXZ7ee6qE/X8rNEs2+fEU8LeAye3cSXNNYeqrFEyJQxMPc3T2KfZPPMhc6W6mSvsxZrOla/dxcOITHK08w3zlPS4uvcHZxRe5vHaGuqsS2QIWizFWQVhGlvcOh8eR4l2dcjTFgYmHODT9GPvL9zEzdpCp4gGK8fgd7+fQxMMsTz7Kiblf4MrqO7y38AIfLr3E9folrHdENsb0Z7npPYTt1v6AbVU2DdQLXRoSFeBdQhV4d7futAtmyU8gl03k6SBERER2tllCFThPU6CngF8HHiIc4KWEbZHSlo96y+fqLZ+vEwJzfcPXNW/TvN4DtcbHEu1t4bELeJawNck2hCmYeM9c8S5OzHyae+Y+x13TjxJHne1ENVaYYawww4GpBzky9TSHJh/m/PKrnFt6nUsrp1lLF4mjIpEtKgLLyPE46q6C8xlTxf0cnHiQgxMPcWjyYfZPnqQYd9D6wMBEaS8Tpb0cnn6EgxMneXfxAc5ce57zS6+SuiqxLfXjZFOJsG97ifB6tnW+EYKjOtsslFYIe7Yvkr8APEm+tmiS21AAFhGRfpkhHLDkKR/NAP9uy9896+E1a3y0BuAK68G20ri+Rqgkp6wH3bRxXa1xf81pe98ETrF5pflR4BeALZdNPJ7M17EmZl/5BCf3/jIP7Pky44W5rd7lDROl3TxQ+jLHd32Gc4uvcmb+Oc4tvcZ89Rxr6XUiE904QPe5KqqLdI/B4MhIXRUwTBb2sLt8hLunnuTeXc+ya+wokd3+ofbeyXuYG7uLvWP38Mql/4d3F37MmlsmNqV+vJg2Z+4sbete4hrm8Jv4S0fDtkhbVwPObXs83TdDOMF7mXzNJJJbUAAWEZF+mSZUNvPE8PFAHtF5lTq0Ul4P0L7lo/n514A3CWuONzsCPAHcf4uxtcmTuhoRlrsmTvLEgd/m2NwzFKLubp1ZiMY4NvtJ9k3ex+XlM7x+5Vu8t/gTlmpXqGcVjLXEJtn6jyGSSwbvM+q+BkDRTjBXvov7557lxNxnmS4doBhPdPU7xlGRI7NPM1ncSyma5vX5b7OWLjeWH/T0+TVB6N3wDlsNdt5AUsUcexV/8Z7tBuCMEICXt3MnPdCc4RSz3Wq59JwCsIiI9MsMYcrxTtTOgrwy7a0Rs4QDztmtDiZzKRbDwYmTfPLQ73F09hki26OZ58YwlsxyZPZp5sbu5tjSp3jj8nd5b/HHrGTXyDwYEzWa94gMN+89nrBnr8UwW7qLe2c+zz27PseeiWOU4t69xFlj2T1+jE8e/jtYY3n18p9Rc2sYm2B615G9TJi5s71g5w3Ui3RpjJfJX+f+ZgU4QgE49xSARUSkHyJCoMvTHsD9tkiYNr3ZEWCR8LvaUpcbjwMcu8vHeerA1zk29yms6c/b/WRxH/cV9rKrfJRDCyd54+p3Ob/0GpmvgzHY/jTuEemZjBTvUiaSXRyfeYZ75j7HwamHmSzu6dsYZsuHeOLg16lnFX5+9RukrkrBjvVq3m2JMHsnIT/BrgJcGfQgNmgu8VG2GgL6RxIRGUbehGYi25tK1k9lQqgb5bmwzXXEm4nYYjdR7x01t8Zc8SCP7ftVTuz6TN/Cb5Mxht3jx5kpHWbX2DFOX/0BZ6+/wJW1t0k9LdOwtUxOhkVjyrNbpWDHOTT9GMdmPsU9c7/ArrGjbXRR775dY0d4dP9vsFj7iLNLL1L3tcZyg64rEAJwnqZwZISt66qEE4Z5MMU2TlxKfykAi4gMo0IV/85j+I+OdmNfxX6YJpwhH2XNZlrt3G6VG7uItic0vcpIbJGj009z/+5fJIkGV3CPowJHZ55id/k4e6+d4M2r3+H80ikqbhlL3JiSnbedp0RaGTwZaVbDYpktHuLI9FM8uPurHJ5+lKTDTurdtn/yAR7e+zdZrF7kauUscdSTAJwA4+QrAKeEadDXCdOO82AabYU0NBSARUSGkXGwNgm1EhQqgx5NO+YIBwijyhOqFe1MIawR9ris03YXaINzKc6nHJp4hPvmnmW8MPgdQoyxTJZ2c3Lfr7B3/F5eu/QnnLn2l6ykV0l9FUsBa0Z5UoDkmfPhOVWwZfaWT/DQ3q9y7+5nmSjszsWa9sgmHJl5krMLL7Jav0bdV7DEmO4+pyJCXsjTE7UZgK+RnwBcJLzPDf6BIZtSABYRGVbGgRmK6pklVH+72xZ1+DS3VdrsH80TKsA12g7AHkdGbBPumnqMQ9OPDWRa5u3EtsDBqYeYKO5m//iD/PzKN/hw+ZWwTdPWd3oS6RmHx/k6Y/E09819kYd2f5X9k/dTiMcHPbSbTBR2cf/uL3Bp7TTnll8lsbbREGtHawbg+UEPZIMp8rXPvdyGArCIiPSaJRwY5OvIsb86qQADjU5Wbd/YERnLruLdHJh4iFIyuZUx9phhqriPh/Z+henifl6f/wveuvo9VurXiKKCGmRJLng8matjMRwYu58H93yFE3OfY658V65OKjUZY9k/eR/7xk/w0cobeO8gB9XpHssITbAWBz2QDcaASeDCoAcid6YALCIivdYMwN3dhHb41GmvCVZT21MOnU+JSdg/+RC7x451PrI+iqMSR+aeZqp8gKnCXt648l2urL1DnRqxLWAUhGVAnE9JXZ2xeIq7ph7jE3u+xvG5z3R9/+xuK0YT7B2/n6nCCyzWLuJx+X0e+a7NpF4grAHOkxL52+tebkEBWEREes0SzoprCnR7TbA65n2GjcrsGT/BVOlAL75F182WD/P0wd9lunSQVz/6U84vv0bFrRBbVYOl/zJfBxyzxYOcmPkMD+/7VQ5MPTDoYbUlsgX2jN3LXPluFmsXcD4jMj3bF3jrjIPiKmRxN5bvLABLXRhVN5VQs8f6a5xQAAAgAElEQVShoHcYERHptYjQAGuUA7Aj7F1ZpwdHpd57ClGZ2eIhkigvu4JsLolLPLjny3z2rn+H++eeZTyaInN1nG979rfItqWN8Lu7fJSnDnydT9/994cm/EKYBj1XOshkcT8OH6ZB5423ML6Iffg5SLvyGrVE/qZAFwiznSTnVAEWEZFea1aA8z2PsPd6UgH2ZEQmZjyeo1wYvmMvayIOzzzCWDLNVHEvr1z+ExZrHxFT6PsexjJawtZhKQbPXROP8MT+3+LY3KcpxsN3rq5cmGWisAvjwRufzw3GvAnV3+6oEqZAO/JT0FMFeEjonUVERHqtWQEe7KaZg9fpGuA2eDyeyBQYj+eIzfD+iufGj/BE/NuUkmlevvjHXFl7DywKwdITHo9zdWITc3TmKZ7Y/3WOzjyFtcP5eItsQjmeIomKpK6Wv/DbfQ5YJryu5mXaS5HR3u5vaAzns1xERIZJRJgWtuNbk96BpycBGLwHayMSO0FkhntLofHiLh7d9xsU7BgvXPhDLq+dwRmDHemHjnSbx5G5OgU7xonZz/DUga9zaPrhQQ9r2wpRiYItU3dhSne+tu7tiRXC0pK8BGBNgR4SCsAiItJrltHeAqmpJwE4ZGuDtRHGDP8BbyEu84m9v0xkEl64+AdcXD1NhidSJVi6IGxzlFKKJjkx+xmePvQ77J8YnvW+d2IwWOzOj73rlgkhOC9V1wJ6rxsKeZkzLyIiO5clHBiMuho9CcDgvcO5Gr79rYNzLY4KPLD3Szx98HfZWz4BPmt06RXZDk/qahTtGPfOPsszh/7ujgm/AO7G8yScFBsBq+SrE3SCAvBQUAAWEZFeiwgHBqPMESrAXW6CZQCDI6PqVsjczgmJsS1y7+4v8PTB32FX+QjOZ7gdEvBlEDypT0lMkRMzn+bpQ19n78SJQQ+qq1Jfp+6qje5XIxGA1whV4LxQAB4SCsAiItJrCQrAnlD97XoF2BqLc3VW61dJ3Vq3736gElvk/t1f5In9v8Vc6RBptrN+PukXg/Mpxmccm3mKJw/9G+yduHfQg+qqzGespUukro43IxJ/QwBeIT8NrxWAh4QCsIiI9FoZBWDo0RpggyUjZSW9xmp9odt3P3BJVObBPV/lwV1fYiKZI3M1vM/L8a7kncGQ+RrOpxycOMnj+36Tg1OfGPSwum6tdo3l6lUcHoPJTSLssQohBOdlaojWAA8JBWAREem1MRSAIawB7smBmsFQz6rMV85R34FV0nIyxQO7v8LRmU/R6OE76CHJkPCEtbET8S5O7v4V7p55ErPT6qPes7B2jqXqRYwxGDMyh/c1wjrgvOT9mHDCV3JuZJ4hIiIyEIZwRnzUA3BzCnRPWBOR+pRLy2+xUDnfq28zULvGjnJ89tPMFA8BHu/zUvSRPMt8jYId48jMMxyZeZI4Gt69sm8ndXWurL7LtbUPQx9oE5GfTNhTzQpwns6Ijfp73VBQABYRkV6yqAIM4Wi0So8qwJFJ8NS5sPw6l1fe7sW3GLjIJhwYf4DDk49giUldfedV8qTr6lmFcjLDPbO/wEz50KCH0xM1t8KF5de4Vv0Qa8JmSCOiSgjAeUr7edmTWO5gZJ4hIiIyMBEj05PljlJ6dqBm8d6zWL3AxeU3WK1d6823GbDx4i5my3djjMX3rqAuO4jzKUVbZs/EcazdeXtJe+/4aOktLq2+Q0qNETu0rxOmQecpAO+8KQY70Eg9S0REpO8Mofqr95twsNazAzVjIlLqvH/9BT5YfBHn8zQrsDsMobpl8Lk64pWcM2CJBj2KnlhNr3F6/ntcq5wltqVRqv7Cemf9PL0cjPpsp6EwUs8SERHpO0uYErbzSi+d62GlwhOZmMjEXFo5zVtXn2NxbeetBa6mq1TqC3j8qB3oyxaFLtAZK/WdNyvCuZQPFn7G+ws/YTVdIDYJxozUZJs6YRq0ArB0RO8eIiLSawZNgXb0oVGLJSIj4+z1lzh16Zus1RZ7/S37yLNam2ex9hEejx2dTreyDcZEpK7KYvUCaVYb9HC6xnvP+aXXefmj/49rtYtEpjDoIQ1CnR7PrNkCTYEeAnr3EBER6b0aPewC3WSMIbFFFuuXOHX1W5yZf37HbIvkved69SOurr2HcxnWxLk66pV8imxMLV3h8vIZKun1QQ+na66unOXnl/6MD5dexvmUyI5k7yVH/qZAj/rJ3qGgACwiIr1k0RpgCFWKPuzbE9bIRkRcWXuPFy78IW9d/QH1rNL7b91jqatxee0drlU+BDyGkdnqRbYhMkWq2Qrnrr/EYu2jQQ+nK66tnOXVj/41b85/j7qrjGr1t0kvAtKxUT8gERGR3mquAd6ZHWjal9GXABzEtoDBcGHlFD+98PucuvwtVmsL/fr2PXFp+TTnll6m5tdCI6zRWusoWxSZiMzXuFx5j/OLr1JNVwY9pG25vPwOP7v4R5ya/yYr6RWsSTCjs++vSFeoKYmIiPSa1gD3aQp0k8cTR0UyV+fc8mvU01VWqvM8sOeLzJYPNQ6Yh0elvsRbV77L+aXXiWyh0dFXB/zSnsgkVLM1Ts8/x97x4xyZ/eSgh9SxWrrKheXXefWjP+XMwvOs1RdC12djGeHngmeEf3jZOgVgERGR3kvpQxOsmxkim4CHK2vv8dOLv8/l1dN8Ys8vcWDqIUrxZPh8ztWzCqcvf4+3F37EarpAEpUHPSQZIh5PZAtkrsYHS6/w+pVvM1U8xOzYoUEPrS31rMpq7Spvz/+QU1e+yUerZ6i6SpjloUZwWeNDIVg6ogAsIiLSe31aA9wqHBNGpoCzdVbSeU5f+wHzlQ84OHGSI9NPcGjqJOPF3dicVoTrWYW3r/6Qn136I65Wzzamdot0ymBNTOprvHX1OQrROE8d/F2mSnsHPbDbylyNhbXznF18kfcXf8qF5ddZql3C4UgaSxyEqPGhX4Z0RAFYRESk9+r0vQLc5LEmDgHA1Ti/cor5tQ+5sHKKXQtHmCvdxUzhEOOF3YwlUxSiMawtEJmE2CZENiEyCcb2t9q0XL3KW1e/x2uXv8HFlTcblbwYFXukcx5jLIkpsZIu8vMrf0bmU07u+RUOTD04mBE5R0aKy+qkvk7qalTTZVbq8yxVL3Kt8gFX185yefVtFtbOk1IjjkrE2ma2lZbXyJYoAIuISK9pndZAKsAfF9kE62NSX+HcyinOr/ycoh1junCAiWQP5WSGQjxOZGMiUyC2CbEtEJsicVwkMUWSqERkCyS2RGyLJKZAZIvENz4K4UDdFrbUqGq5epnLa2/z7vyPOXPth1ytvI8lIrZF9DCS7YqjIsu1eV679KcsV+e5b9fn2TdxH3Plu7F2CzMhPGSuTuqq1F2FzFdJs1rj73UyV6HuK6RZjczXSV2d1FdJ0yqZr5G6GqmvkWY1atkSy7V5FivnuV67SN1XMSYmshGJKWHUu3Yjgxr6yhYoAIuISC85QgOoAVU/c2Mrv4Oupz2DCaHUGIy3eByprzFfPct89YNwC2PwvlFWaQRYA+DD5xJToBBPULLjFKNJCvE4xWicQjROKZ6gEI1RSCYp2glKyTiFeIzYFohMjCHCmghjIiwR1li892S+Tt2tslS9zLnrr/He4l9zde09ar5GZBKs1jpKlxgMsS1Rc2ucWfg+l1bf4vDkoxydeZLZ8t2UkkkiU8Q2HvvOObxP8Ticz3BkZD4lczVqbo1qbZlatkolXaaaLVHLVqmlK1SzFSrpCjW3RDVbppquUvMVnE/DM9v49Se4D5cNPvznG8sXGg3ftNb3thKggKrA0iEFYBER6aVmAB549XPAOp0C3ePKhmms+w1TisPht8N5j/eucWDuoXEgHmr44VZ1KqxlyywZizFRY0siizW25XLL9TYiMQWKdozYlklskdiWiaMysUlwPqWSLrJUv8RyfZ5atkbdreK8a4RmHfxLdxljiUxC5jMWaxdYuXaN967/NWPJDFPJQSYKu0lsEbyn7qqhgusqpFn4c80tU8vWSH298bxw4XnjMzyezLv168jwrvXvLSeXbsS2MJO3+Z+1UWONr0GzHu7IEl7EFIClIwrAIiIivRVyY2cBuEhf3qPDwXU42I6IbncYueH69cCc4UlvhGNwoXrlfcvtfDioN3Gj8mtvXG5u4ZK5GqmrkPkMayMiExMZrXWUXjJEJsbjqbs1qul1rtcuc9V8SBIVG1ttcaPq63yK965RAa7jXBZmUjT+C5cBY2+EVwMYYzA2atxfpzlN4XcI1QY9ANmcArCIiPRaxmhXgB1QpbPfgSXHa9uagfmWS3zN+kH7xy553wgTWSgwtwRwaxMizWaUPjMYIpMQRXE4rePrVLIa649ec1PHZWMMsSmCNTfqs2bDPUrfFMjfFOj6oAcgm1MAFhGRXtIU6PUKcKe/gyEt/5jbXzL5OlIVWdes2HZ2aKzH80DF5C8AqwI8BHJ7dllERHYET6h+jnITLI8agYmI9IIlXwG4MugByOYUgEVEpJcyYI3RPiueoZMAIiLdVgLK5CsAawr0EFAAFhGRXhvl8AuhApwy2tPARUS6rQyMk688M+rvd0MhTw8YERHZmWqM9kGBpkCLiHRfMwBHgx5IQwasDnoQsjk1wRIRkV67APwh8B5hepgBEsJ7UNS4HBFOyiaNP1uvb25YG7dcjjZ8rvU2tuW65n0NWooCsIhIN5WBMfJT0KsBK4MehGxOAVhEZBgZD1kCLg/ZblMXgX9GOEjxrAfdZghuXo4Ia7oSQmfPUsvnSqx3/Gy9XNxwm2LL1xdarm/eptxyfTMs25bLhvXgbFo+b29xfXSL29/qcnMK9JB2dRYRyaVmBTgv6qgCPBQUgEVEhlGawJ6zcH0XrE2AzfXy0mYAbFVt82ubYdO0fEQtly0fD6vmFp+3t7ivZgXZsh6mmyG8ebk1MJdaLhcbH3Hj+tKG2zfvZxa4DpxCB0YiIt1UIl8BOCU0fZScUwAWERlGaYI5+DZ8dAx/fQ6KO3bnBc/gpg63hmTDzRXj1utbg3TEzaG7QGh+dQVY+Njd10u9/ylERHamEmEKdF6oAjwkFIBFRIaR8bA2jjn0FqxM4Ven8l4FHkbNyvXG6nV32Drmnp+By8vyNRGRodKcfZMXVWBp0IOQzeldV0RkWLkY9nwAhWpYDyzDJUswB86A11uxiMgWjBOWneRFlY/N9JE80ruuiMjQ8lAZx9zzAkxdVZAaJsZjPvEDqBcHPRIRkWFkgCnyVQGuA8uDHoRsTkdLIiLDzFmYvgTGaSrtMEkTzNxFwjGciMgIMB7i5k5421YCpslXlqmhKdBDIU8PGhER2YrqOPbk92FsUVXgYeAt9vFvD8sWViIi22ccrE7jXn0W4q40bZwgBOA8WQOuDXoQsjkdKYmIDDtvoLQMVtvMDgVvoKwigYiMGGehMhEqwds3Q5gCnSc1tAZ4KCgAi4jsBPUS9rFvQ2E1BCzJpyzGPvFNiHrTWFpEJNdM13YrmCN/AbiCKsBDQQFYRGSniFJIaoMehdxJXG+sgRMRkS2KCAE4b1OgV1EFeCgoAIuI7BRZjH1c1cXcqpewj31HVXoRke2JgFnyF4CvE9YBS84pAIuI7CTehmZYki9ZHNb9dm/6n4jIqIrJ3xRoT+gArRf5IaAALCKyk3gbqozqMJwfaQLFtbBGu3xdnbpFRLYnAvYQGmHlxXXC9GcF4CGgd2ERkZ0mLWB2nUd7zA6ah3oBSiuYR78D5WVw8aAHJSIy7GLgADA+6IG0WACuAtmgByKbUwAWEdlpjMc89EOoFwc9khHmoV6CsSXMI9/FjF8PlWAREdmuErBv0IPYYAG4AqjL4RBQABYR2YmyGHPoLU23HYhm+L2Offg5zOQ1nYwQEemePDbAWiQEYFWAh4COjEREdqIoxRx/GSpjhN4c0h83h18m5qFaRv8GIiJdYYGDwOSgB7LBImEKtLZhGAIKwCIiO5Gz4MGceEnrTvspLYbwe/L7MDkP9TIYhV8RkS4pAneRrw7QsD4FWi/4Q0ABWERkp4prmANvQ3VcIawf0gRTWsY+8r0Qfmuq/IqIdFkzAOetAnwNmB/0IKQ9CsAiIjuVs5BUMff/ldag9pqLobiKefS7ML4QpkEr/IqIdFszAOdpCyQI058rgx6EtEcBWERkxzKhCjx9SYGsl7yFuBr2Xx5bbJxs0O9aROQG4yGudeOeCoQAnKezuiuE6q/2AB4SCsAiIjtZFsHEAubB5xshWLrKG4jq2Ce+Gfb5TQuDHpGISL4YD9Ux3CtfhGjbuwRNkb8tkC4Cl9GZz6GhACwisqMZiOshnLlo0IPZeWyGfeLPobgGmZqNiYjckrewOrXdfhQGuJv8bYH0EWENsCrAQ0IBWERkp0sTzK4LmAf+EmqqAneNcdgnvwGFalhvLSIit2e2nQ8ngPuAse0Ppms8cJ6wBlgV4CGhd2wRkVFgHCQ1sNmgRzL8vAHrsE99I/xOvRn0iERERsEscA/5CsAZ8CGhCqwAPCQUgEVERkGaYPa/jbn3BaiWBz2a4eUsRGmY9pxUBz0aEZFRMkf+KsDNAHxl0AOR9ikAi4iMCm9DF85CRVXLrXAxJI2GV4U1/Q5FRNrVndlHc8AJIE8NLVLgHKAzokNEAVhEZFSkRcyhtzBHTkFNVeCOZAkkFexj34LiSjiZICIim/MGlnZttwGWJXR/3tOdQXXNPFr/O3T0Di4iMjJ8CHKlZRi7rhDXFh+2NiqsYh79DowthUqwiIi0JyvgXvnCdqvA44QO0Hnr5HgWWBj0IKQzOvoRERkl9QLmrjcwe85qLfCmPNSLUFrGPPJdzMQipMmgByUiMmT8dnsmGOAAoQFWnqY/V4F3gMVBD0Q6owAsIjJKjA9bIc1cgqmr2r7ntjzUSzC2jH34OczUfAjDIiLSb839fx8gXwF4GXgbVYCHjo58RERGTb2AOfwWZuoq1AuDHk0+1UtQXsKefC6cKKiW0RIvEZGBsIQA/OCgB7LBGqECrAA8ZBSARURGjfFQGcPsfydUNlUFvllaCOH34e+H8Fsrb7d5i4iIbF0MHAV2DXgcG60QAnBt0AORzuioR0RkFKUJ7HsXimuhMZYEaYIprWAfeQ6mrqjyKyIyeHuBI4MexC1cBS4OehDSOQVgEZFRZDxUxjHHX4LJeXWEhtDdubiGeeS7MDGvyq+IyOBZwtTnowMex0Yp8B6wOuBxyBboiEdEZFS5CGbPg3Xh8iirlSGuYh79CxhfaDS8UvgVEdm2ZFszhPMagOeBNwjrgGXIaDNDEZFRVh3HPvQ87tVnoTIBxg16RP3nDfbpPwk/+9j1sAZYRES2zxvcS1/cznuLBe4HDnVvUF1xhRCAVQEeQgrAIiKjzFsYX2Rkq53eYp/48xB8MZDpbVFEpKuWZ7aznGQfYf1v3qYpXQXeRA2whpKmQItI34xoxMq/WhH72HegsAreDHo0/eMt9olvQnk5TAFXN2wRke6zW67+xsDDhBCcNx81PmQI6VS33JEHMp+SUWOEDoulRzJfB+8xRo+mfDGQVCFKBz2Q/miEfPvEn4fwO0qhX0RkeEwAnyR/058rwBm0/ndo6XS33JHBUEtXqKTX8Yzg2kDpmtRVWUsXcT7D6HRK/mRJqIZG9UGPpLe8BQP2iW9BeUnhV0Skl7bXSX+aEID3dGcwXfMBYf1vZdADka1RAJY7Mhjqvsr16lVW6wuDHo4MsWp9iWurH1B3FQwWTYjOqdLKoEfQOy4C47GPfRvGFrX1k4hIr1XGt/PVh4ET5C+vvEdY/7vDzxjvXHl7QEneGMAYFivnuXD9FN6rCixbs1j9iHPXX6KWrmCtVl/kkrfYx7+1M4NhFkOUYh79dtjjd9S3fRKRblkCLoKmyX2McbiffWWrM20mgMeA2e4OqivOAu+gM/lDS0ehckcGQ2RiFqrneWv+++wdv5eZsbwtxZC8q7sKH15/mUurZ6j7GpHVNjO5lSWY6Uv463vYMe/taQKFKubk9zDTV6Gux18OLBGqKKuE7q6tR8gx7Z+gj2m/O2zU8r3u9OA2je/f7jFSJ7dtjqGT294pPfiW25pNbtvU7u1kc28D/woYB/4eMDXY4eRQVIcs2cpXHgY+Tf5+p3VC+L0y6IHI1ikAyyZCAK5mS7x//afsnb+XR5K/QSnJ2+uR5FXmUs5ceZ43r/wFFb+GNZGOvPLMeMzD38d/7/cgGfblTT7s6VuoYE5+HzN7CWqlQQ9KgjPA/wi8D7T+o9jG39sNiWWgSAiCm52xKTY+4M7VOgskjdu2E5bjltveiWncb0J7Ab/Q+GgnADfHu9n9+sZtS23eNiL8jiM2//3axhjaObZsnmRoZz1M87bN4L7Zv0fz9u1o3m8nt23evgL8c+BfAJ8CfoP8hbVhdhB4kvXnbF6cI5z4UMV/iCkASxsMkS2wVL/MSx/9IRZ4cM9XGSvMYswOnCopXVNNl3l3/ie8eOGPuLD6JhiDNZp6mntZgtn/Dv7KYTBD/B6fFqGwhjn5A8zsRaiObbchi3TPVeCHhADcqhmKOgkl7TYVsKwH616EqHarr+3+fJ2MwdDeSYNmqG3nfj3rY+12oGyeOIhpLwDHhOB+p/t2Lbfb7La+8fkCm5+QaI6veUIibnyvReB5wiyGCpBt8nNI+wxwlLD/b5444BTw7qAHItujACxtsSYG75lf+4CfXPwDrlY+4J6Zz3Jg6kHKhRl19ZWb1LM1Li+f4Z2Fv+bM/A+5svY2noyILU2Dkn6L6ph7f4o/dy+UlhnK2ZJpAoU17Ceeh7kLUFH4zRnHrQODQ5UV6a/NQnvrNPPWKek11h/DY5vch3TmMPA4+av+rgE/J1SAZYgpAEubPNYkEBmuVT7ktUt/xqXlM+ybuJfp8gFKdgJrop2yYlC2zFFzayzXrnJ5+W0urLzOSnoNayyR0brLoeEseIM58hr+wj1gh6ywkcVQqGJP/kDhN786WTcr0kvtnnBxqOtvZ5IKW+wl8TjwWfJ3UqEGvE6YwSJDTG8+0gGPJSKxZVJf48OVl/lw+WUSU6AYTxAZPZxGnSOjlq5R86t4DJYQfK3J23uYbCquYQ6/iX/v0caWQUPyb+giiOvYk8/B7EWFXxHph06miY8G6/BnngS3pZlfJ4H7yF8Avkho3idDTolFOmaMJTIGvMGTUfd10nQBNBF65PkbfWjCWl9rYj0qhpWzENcx9/wEf/Zk6OSZd96CzTAPfw9mPoKawq+I9EVz7bE0GRdmEDnb6evwYUIAztv05xrwMnBh0AOR7VMAli0yRCYBk9Cc3uLxijrCzb1gFD6Gl4Gkitl1Hn/mkzC2kO8qsA/NYc2j38VMXYZ6GT3+RKRP2m1CNlriWliS0j5D2ProE+Svor4E/AQ4P+iByPYpAMs23HxwqUqfrFPw2BGyCMavY+7/Ef7txyGpDXpEt+cN9vFvweR82PpIj0ERkcGJ61uZgVMkrP09Qf6mP18HXiQEYRlyeTu7IiIiuWHCGfzxRchyPLvPeOwT34KJhXyPU0RkFER13Mtf3MrWc3cRqr/jvRnYtrxN2ANYZ1d3AAVgERG5vTTBzF3E3P9XUM/bkqwWY4uhAZaISP+1uw/0aDAe1iZDX4b2lQjTn/O29y/APPACcG3QA5HuUAAWEZE7sxkUKoMexe15g/vpLzf/MtChiMhIsmgN8M1Mx9t57wG+RGiClTcXgb8CFgc9EOkOBWAREbmzNMEceAdz70+hVh70aG6tOoZ74WuAUednEem3CHWB3g4DHAc+RagE5817hArwEGyHIO1QABYRkc35xnrguJbPbtDGQ3Uc9+JXw7YbNhv0iERkdGgf4FadV3/ngC8A+7o+lu1bAk4BlwY9EOkePVlFRGRzaQFz+C3MsVcaXZZzyDhYm8T97CuQJhClgx6RiIwOTT2BxvrfqU57MtwHfA2Y6s2gtuV9QvW3OuiBSPcoAIuISHuczX+jKZvByjT+5S+Fpl2xZqyJiPRNXMG99jlYnWq3EhwDjwAPkL9GYhmh+vvTQQ9EuksBWERE2mOz4ZhaHNfxS7P4V74A1XKYti0i0juOEJYE0+kewPcCXwQmejemLasSAvCZQQ9EuksBWERENmczWJ6Dxd3DEYKTKn5xD/7VZ6E63gjBeSsuiMgOkQI603Yj/Ha0BvhJ4HPks4nYe4QALDuMArCIiGyuUMHPH8Cfv3dIphUbKK7hF/eE6XjVcUi0hEtEesKjNcCh78JHx6Ay3m4FeBZ4BjjQ24FtiSNMff75oAci3acALCIid2YdLOyFK4ehuJrPLtC34kMI5tq+EIIrY0MS3kVkyHhCYBptcQ3//klYmW6nCmyBTwOfJZ/Tc+rAj4G3Bz0Q6T4FYBERubOkhl+Zxl88NnwB0hsorcLCPtyrz4Y1wdHQ/Ax5PCgUkY9zhGnQo82bMNPGtnUuYIrQ+fmh3g5qSzxwFngDdX/ekRSARUTk9myGX9iD/+ABKK0MT/W3lTehcr24J4TgehGsjlVFpGsyQsVwdDX3im+vR4QBPgF8CsjjvnoV4DngnUEPRHpDAVhERG4vyqBegKuHhjs0egOFNbi+G//KFyFLOm3U0m8rqPIgMizUBCup4t99FH9tbzsheBr4NcLWR3m0CHwH+GDQA5HeUAAWEZFbsw6u78Kf/iSUVxj+Gblhep5fmsO99CXwtpOtOvrtInB+0IMQkbbUgeVBD2KgrIPFPaHh4Oavq/cBv0iYBp1H7wAvo2ntO5YCsIiI3Jpx4CwszeW9WtqZuA4rM7iffWXQI7mTD4HT7NzGOkV0DCI7R4VQNdyJ2u9wbbN23itmgS8D92xvWD2zCPwV4SSk7FB68xERkY8zDlamca99Hgqrgx5N90UprE7iXvxaXqvA54D/C/gTYG3AY+k2R6hu78AHloyoVeAyO3Ma9AwwzmZTgIxr97X0AeBvEqZB59G7wLcIy1Bkh4oHPWnQ3YAAACAASURBVAAREckpF0F1bOfun2sdrI3jXvga9ok/J5wTzk0Yvgz8S0IX0mng84MdTtekwE+A/xu4MuCxiHTLdULX4DXy0dTJtXxkrFdxfcv1vvG51r+7DR8AlwgzUm4/HbhQxZ9+Cn/h+GY7BUwQtj16jPyuqXmD8Bq1E09mSIMCsIiI3Mw4WJvCvfTlnRt+m4yH6hjur34DykvYx74DWRwqxB4GeIzW/MW/DPzvwGHgeB+//8YzAb6DyxuvazYIWgFeA/434I/R+jrZOa4CrxPWAd+psnmr58jGv7d7uU4I3NWWy61/rxIq02uE51+NMFW7+VFtXLfa+Hv9Np9fJkwHvkNF1IXXTReF185bs8AnCdXf8u3va6DeA/6SnTudXRoUgEVEZF0z/L741Z217ncz3sDqFO4Hv42Zu4h58IfhYC6phmZZg9v+aY0wDfoXgbu5+X17KwfNGy83D6Rr3HyQvNZyfZX1g+Lm31sPlqt8/AC7eZs6IeimjcsfAW+i6orsLBXgFcLMjYOEyuoK6+Gy9fnQDKk11p9Hrc+h2oavqW34mrTlz3rjezW3YWo+11zL5ebt3Ia/N6u/tcbltOXP9hkHLgkB+M4zaCaALwKf7uj+++slwvZHbe3lJMNLAVhERAKbhXW/L36t3b0cd54oDfseP/e7mIOnMcdfCb+LpBIC8WCC8HlCxfRu4Bg3HzzXNlyub7g+bbmuyvpBdcZ6mG39utbbpRvuq/W2zYPwyoavbX5eZNS8TXiergFvAT8jhODW52LKrZ9HG08YtV7X/Jr8nZG0Yea0f/OT+HP3QaFyu1sa4BngS0DSr+F1KANeJDQfzM1aGOkNBWAREQnT1pZnQuV3VMNvk/FQXMVfvgv/wQOY4y9j9r8LxRUoVCGNGcDU6L8gHAzfy81VpSrr1aHWj9bPb6zOikj3LQL/K/B9wv6xZwY7nB5rht8zT+E/eACKd+xpN0nY9/exvoxta14mrP3Va+QIUAAWERlpBuIq/vpu/EtfymtH5MGwDsav48/dh3/nMcx9P4bpK5jpyxDVIO1rr5vLhOpSc57hxg9Q1UJkkBwh+H4w6IH0nPGQ/f/s3febXFd+5/f3OfdW6NyNBho5EIkgwUzODDOHQ85Q8oxWGslaaZW11io867Xktb37+C/wPvbjx7uyV7LG0iqspJkd7WikmeEk5kwwgCCRASLnzrkr3Xv8w6lGIgE0uqv6Vvi8nqfY3dWNuodAV9X93HPO9xvijt6FO3k7tExeb3WMAR4BHqN29/5G+MrPu6jFmXapOAVgEZGmZSA1gxtdjvvoSf91M+37nQtn/Ox42xju+F1QzMC2tyEzhek76f++Fi8Iz+7XExFJTljEDfThjt0N7aM32hqyDPgFfPujWnUeeANfo0CagAKwiEgzcsYvWRtZgdv9hN/f2uxLn6/HGQgLfrb84/v839et70BYwKw+BLGFUgZNwopIQ7MRlFIwuNa/h1w//Ab4ys+PAZlFGd/NKwKv4at46wW8SSgAi4g0G2cg68NvvOdxP4N57dYVcgVzsTWUO/SAPxksZCCVx6zb5/8uixktJReRxlNeIeQOlYteZa+79Bl80b5fxrdxq1X9wHdohqXrcpECsIhIM5kNv8Mrifc8BoUshCraOy/liqfu4wd8leiZDkzbGKzbB/kWH4YVhEWkERgHpTTuyL24s5shc8Pwm8W3b/sJYFELJtwEB+wD3uFS73VpAgrAIiLNorzs2Y2swO15FAotflmvLEx6BpzBHbsb1zqOGeuDJWcxK45Crk0hWETqn3Fg40szvzeuhH8f8FWgu+pjm79z+D7rZ5MeiCwuBWARkWaRmcGNrsDtfrw885sngXY+jancOolS2rcEGVwDYQmzvByC4yDpEYqIzE8qDy7A7X2w3O7ohu8bWeAn8dWfa9k+4If4VnLSRBSARUSaQaqAG+27LPwWUfitAhP7E8RiGnfwM3DsDtj4IWbZKci1grNJj1BEZO5SOV8oMUrjRlZAMKctM18EvoLv/1urRvDFr7T3twnpnVhEpNEFRdxYL+6jz/sCTdrzW31BCQotuLE+3MHPEr/5s5BrL+8b1pJoEall5fZvmRni3Z/HDa7BjSyfa/hdAfw8sL26Y1yw94Dvo9nfpqQZYBGRRmYjmOzBffQURIGqPS8mE/s91vk2iK2vuI3D3vOi3zcc6S1YRGpQeop47+MwscRv4Qjm3CIvg1/6/BiQqtr4Fm4SeAX4CF2RbEp69xWpKnfZK6u7+DLrPvF66y7771WfOfeJ+z7xGOWfsTYkMCFa2iqAD2DTncS7nvZLb9XnNxkmhiD2laGdId75RbAx9r4fqUCWiNSWdA637zHoX+9fn8qtj+boDuDXgfXVGVxFRMDbwMuAqkA2KQVgkQpyxBcD65UR1Pg7jCl/dXVAvXTPJ6KrMZfu/ZRcO/snLRZjLbErEsU39YYljcg4yHUQ7/xS+Wv9TiTOOH8rZgCI338Ge/8Pwc5eHNOFKxFJgHEQWwiLuP0P4c7fMp/VQmuAXwTupbZfzCbwha/eTXogkhwFYJEKccREroSLI6yxWBMS2BSWFJaAwKYIbJrAhFj89wKTxlqLNSlCk/I/f/HPZspfB4QmxNoMoU1hsITWf98aP+MbhhlSNsPIzGl2nf97hnOnCW1L0n8lkhTjINdO/P4zCr61aHbWt9BCvPMZ7L3P+xZVqYL/eP3emiIilTEbfDG4U7fjTmz32zZuPvxa4El826POSg+zgmJgF/AGmv1tagrAIhXhSJHhlq4HWNGxHQMExmIuhmCLKQfcgABDSGBDApPC2gBLgLUpAkICE2CswdqM/z6WwAZYm8aaEGusD9EmgzXm4nXW2EXsLz5P5ByRi/XkblY28suedyr81jzjfAh+4+egcxC7/VXA+v3BapskItVkIzDgTt+KO/QAZGYW0hf+XuBXgY2VG2BVDAP/AOxNeiCSLJ0jiyyQowRYlmTXce+Kn2VT76OJjOPc+D52Xfg2E4V+UjaTyBgkYUEJprr8smeF3/oRFvy/2+v/FLPsFGb7a/6+KFTbJBGpMOcvnE9140b6fPjNTi/kAXvxS5+foLaXPsf4vr/P45dBSxNTABZZoCiOSAUha7rupa99WyJjyBXHODbyNuenDlCKC2SCtk8ptCUNLSzCRI8veCX1xzjITOMGV8O+RzDr9/h+whlVixaRCgmLEBs4v5l476OQykN2igXk1hTwU/ilz+lKDbNKzgN/D5xIeiCSPL2riiyIAwwtQSerO7bTnl6awAgcZ8b3cHj4NYpxnsDW+nuQVJaBVA43vhS36wt+xlCzv/UrPYMbWYE7uxmz9gDm1h2+d3Axo73BIjI/YRFwuIF1UMji9j8M2QnK1TkX8sjbgH8GbKrAKKvJAR8C38G3QJImpwAssgCRK5GyGVa2bae3dd1skedFNZUb5NjoO/TPHAFjCUxKs7/Nwhk/Qzi6DLf7SYhTYNXnt74ZvzevfRR3drP/vLsfs/SU/7d25mIVaRGRazN+K4Ut4c5tglIKd/AhwK82qcBq5V7gN4GHF/pAi+AUvvLz8YTHITVCAVhk3gyluEB7Zgkbex6iM7Nq0UfggOOj73Ji7F1iExHUdN95qShn/EnM2HLiPU/4UBQUkx6VVIoz0DLp25GcvB1u+RBaxyEOMOv2gyn3dDb4Kq6lDFf3CheRJuUMZKd88C204I7c498jMjOVOkIW+GngF4D2Sj1oFb2GL36lF0kBFIBF5snPsQYmoCuzklWd20mHi992aDx3gSMjbzA4fZQgSGOx6PW9CTjji5YMryDe+xjks+UlbtJQnPH/rqkC7sytF9uVUMz6mWHw97VOYNbt9XuFoxBK6UutlkSkebjyrG9mBs5uxh38HORbfWX5yoVfAzwI/A6w+Ff+b95J4EfljyKAArDIPBlKLk972Mua9nvpyPYt+ghKcZ6jQ29wfuogkYlJoWqxTWF22fPI8nL4bV1I6wqpB7MntbNfnth+2fcsZKZgugMKWczS07D6sA/Bl37Ih2btIRZpTLMXy7JTcHqrryMwuNZfEMssqMLzp9kE/Bpwf6UfuAoi/L7fV5MeiNQWBWCReYqjAp1tK7ml5zNkgrZFP/7ozFkOj7zMWP4coc3WdO8BqRQfft3YMtyex8vhN09td56Qikvlr/w6DnAn7vAfx5dhRlZeWTk6CjG3vgPZSci3oN8XkQZiY8hO4vrXw76HcZNLYGKJL54XVLwmRBvw88B/C9RDs/JjwPfR7K9cRQFY5Cb5hYUxadtKX+smlndsxSzy7Ots26P+6SOU4hJpq72/TSGV9+F39xM+yIQFFGYE4y6F4lwr7sxWrtgK4ayfEQ5KmDteKxdKc+X7tXdYpG6FRdxkN3z0BK6YhfGl/qJo5Wd9Z30F+BWgo1oHqKAp4JvAO+hFTq6iACxyUwzOlYiJWNaygTUdd5AJFr/+Q//UUQ4MvsRMaVxtj5pFWMSNL8F99Hm/nFV7fuXT2BjsJ5fEu9E+wOB2PeXbZDkL2Qnsna9ClPJ7iaMUOk8UqQfOz/BO9uB2fx5m2n0RxHTF9vl+mvuA3wBuq+ZBKiQCdgPfBoYSHovUIAVgkZvkXIRzJZa33cqqzjsxZnFnf2cKY5wcfZ/+mcNErkRo1RKl4dkIJrtxHz4FpZSqPcvNm10KOd5bvsPAZDfxjp+CUgrTdxKz9V3ItfpwLCK1KSxCoYX47WcA41cDXb0tovLWAf8CX/yqHpYdXQD+DjiQ9ECkNikAi9wERwxANuhkeftWuloWvwDiqfFdHBl+k5gS1tTDFhxZEBPDTAfxrqchCqqxp0uayWz16FmT3YDBndmCO7sZs36fryhdyFAf57kizSV+58sQB74GhHGL8Z7QA/wc8FWgu9oHq5AdwLeAyaQHIrVJl3lF5swQxyUMAavat7Oy7bZF77s7mR/i+Ni7DMx8jMNgja5hNTTjINdOvPNLfomqjZMekTQaG/tQ7PwSaHd8O/FLv+QryF4My1oWLZIcd7GCe/z+M5Brg0K5FZqp+nuCBb6Ib3m0vNoHq5CP8EufTyc9EKldOnsWmSMDRC5POmhjfff9LG3biDGLOUPiODbyFifH3qPoCoRo6XNDMw7yrcQ7nwGc+rpK9c3uDbYO9/H9uAMPY+98CTqGfFA2Tq2UpLZd8TrpfDV0Q7nwm6mT319XXnzh/L58GxF/+AWYKdedWrz3AgN8Hvg9YMtiHXSBInzP3+fKn4t8KgVgkTlyxBgT0p1ZyYqObWRTi1sEcXjmDEdG32I4d4rApjBanti4TAy5tkvhV2RRlYNuUCDe+yhEIfbe533/6XS5uqz2CctimQ18s+H102Y9DX6VTK710sr9MI87ch+ERcz63b54YGbaX8yZfVmtmd9jB9b5j6U0FNOQzuH2P4QbXplU0cPbgd8FHqN+Voy+Afwjfg+wyDUpAIvMUTHOkbHtbOj6LL0t61jM/XHF0gxHh17n/OQBSi4iZfXUbVg28nt+d34p6ZGI+PARFol3PQXGYe95DoII2sZ8eIjr5bxY6sLVe9RNDLl2/3G2tc90V3lm9/KLgzHkOok/fLLcHg7AXHw8d2YrlNLY7a9Cx/Cl4Ns2etlDJFBTw0b+/6OUhokOH3pP3Y47eZsPvbaUVPhdhZ/5fYb66PcLMAj8DfAeunIsN6CzaJE5ilyJttQS1nd9lvZ036Iee2jmJIeHX2E0f5ZQs7+NKyjCVDfxB0/72Q4te5ZaUS60E7//k5Cewd75ip9J6xz0YSSJ8CC1z5T3mN/wPcv536GxPq7ILqkC7ujdfhZ33T7AEe97FCaWfDIs467d/zaI/YqGgw9eNpPssHe9eKmQVOdgORg7cEH1Lu4E5T7cs/+/QRE3shx38EEf3oMSZKZIsAhdL77d0c8CnUkN4iYVgGeBF4Cql8SW+qcALDIHMSVSpoWlLZvoa9+0qK2PZorjHB1+k4GZY8TEBHVzMVbmzkCYw00u8X1aXbAYxU3qScCls8FavCrgLvtYi+OrnFQe4oD43S9D+wjm1h2YsABdA34Wq9aCsPplV0A5rMUhl369jb9gZ2KuGdRMDDPtuPGlNy7gZxwUsrg9j11Z1diZ8r+hwZ3b6O9LFebZ79Z8ooVcvOvpck/sScztb1zsiW1ax6FzqPz7XN5LPO/l0pf/XYEbWu3vm/3/tZG/tY5ftkc5sfCbBf4J8JvAyqQGMQ8HgL8EjiQ9EKkPCsAiN+BcTCnO05Ndy/qu+2lN9Szq8S9MHuTg8EvMROOEJqO534Zj/Mnc2FLcR09ClC4XbGl6FlgCrC9/nC25XmsBM8bPOERACZgGpsq3SWCmfH/jMOWZtkIL7t0vQ+8ZWLvfh4auAb/XMuml0WERTIQ7v7GG9nnWqTjAtA9Dz4VLFzhshBtYV27Fc41wG5RgaBXuxB2XLUu+DuMgO3Xt76er8DSa7Z8bhbjZmgulFPSdhLX7/UWdKMQsPQUtUz6gFtPcOKCWQ2853F78u7IRbt9D/mLC1f+/yRfossCXgH8JbE54LDdjCPgG8HbSA5H6oQAscl0GR0zsInqza1nXfQ9hsHjVl6cLIxwf2cHgzHFiF5Gy6UU7tiwCZ3xhobGlxLs/74ND0PQzVgFwF/AQsB1Yg+89ORuAa21q3OEDcIwPujP4EDwDjAMj5Y+j5c+H8HvVBstf1y8TQ8s4brIHPvgibsUxzNLTmCVnoX3EB89iZvFO7J3xs4Nhwe/5LKZxhx+ovVnpehOlcEtPY1Yd9uEQICzijt4D053XWa1i/MW8trFaCHfXZ9ylWeXMDG5sGQyturg/123YjekY9mF49SF/gcUZ/HJpC6UMV8yOp2dgZDlurA/SM5f9XTlI56jRa2KPAH8A3J/0QG5CjF/2/E38a67InCgAi1yHIybG0Rp2s6LtVrqzqxZ1/+3J0Z0cHn6TyBUJrdoeNRRn/CzaWB/xnsch36Llmn6m9yngl4EnqZ/9Z9fj8PvTJvCVSc/g+1OexC/XO40PwsP4UFxnJ3HlQkNtY/6E//wtuFWHMd0DUEz7fZvpGd+3tFqvnc74GcZMDk5vxc20405u9zNumRmg6Z9XC2NmYKIXt3cFV4S8VP7ae24vV+vh92rO+Nnr2aXYmRk4uwUXl/cFF1r875szzIZds25veYk4/s+N9hEfeLC8x7c097+r5NwN/C/4tkf1ZB/wdeBY0gOR+qIALHJNhjguEVOkr207azrvIxW0LNrRx3P9HB19m4HcUawxGMp7kaT+XZz5LYffmfZLS/GaVwc++P4esJX6qTx6IwbIlG9LgdvwgThfvk3iQ/AeYGf54wX8rPEY9dLLcjY0tI3B0Bpc/3o/85pvhVQes3mnD8qFbGWPGRb9MtIzW3Cjy/1S06kuH7prO3DUD1eeya3GEuR6MHuBZfbLE9vLRQrL30vlfPulywKwG14FU93QMk6C+3nnaivwb4CfoA4Ge5kJ/NLnH1N7K4OkxikAi1yHo4QFVrRvY2XnbYtW/CqKSxwbeYsTYx8AMdakUfhtFKa8xG4pbs/jkGvzJ1B1dd5Rca34wiu/hw+IjcziC83MJsE+YCNwH/7vYAw/O7wTeBPYBQxQL9OYrrz3MSgC7tIe3GIGwgJm29v+Z1wAhcz8K53bGLKTuP51cOBB3HgvjC/1F5YUfKWarr5Y6Qzu+F1X3heU6uV1fS3wr/EVn1M3+NlaUgK+h1/6rCe83DQFYJFrcC4CY+lJr2Fl+220pLoW7dgj06c4MvIWI7lTBEEaa/RUbRipPG68F7fnCR9+wzx1cJJUbXcCv0vjh9/raS/f1uD3Pn8O+EngBLAfeBcfiPuTGuDNuzRz5s5v9HtFC1k/M9w+itm6wxd9u1k2wo0ugz2P4gqtMNrnQ0l2Ej2XZNEZd40VPDX/u7gK+H3gl7h0Qa5e7MX3/D2c9ECkPumsWuQaIlckMCFrO+5hVcf2RTtuMZrm8NCrnJnYizMOaxplJagQFnET3bgPn7y0j6z2T5KqrQN4Angg6YHUmCXl2334pYn78CH4A+Aj4EPqab/wbBAeWO9ngMf6cBM986vQXG6Zw/jScs/U2Qmgpn8uiczVKvxFx9/AvwbXk2HgPwOvJD0QqV8KwCLX4IjJBO2s7rqL7pY1i3bcoakTfDz6OpOFC6TD7KIW3ZIqshFMdeI+fNq30VDBq1m34Ss+q8rbtbXgg/AdwC8CrwPPAe/hC2ldSG5oN2m2ynlsYXjV/B/nmrNuInIDK4BfB34L6E14LDerCDwL/Fd8/QSReVEAFvkER+RiQpthWcsm+to2L9re36nCMIeGX2EodxJnDQb1r2wIJoZcG/GuL/o2IkGTFpP5dLcA29D03Y1cXkzrJ/Cz5geBH+BPCA/gi8LURzEY4/Q8EFl83cCvAf8CWJnwWOZjB/D/4uskiMybArDIVRwQxQVaM8vY0P0ZurOLM/vrXMz5yQMcGnqZmeIYqaDetuTIpzIO8q3EO5/xex9tfRT1XUTd1N8sRNJC/LLF+4FNwJeBl4Fv42eFc4mNTERqVS/wm/jwe0vCY7lZDn/B7z/jX+NUFVQWRAFY5BMc4OgIe1nbeTctqcVpRTqeO8exkbcYzp8BYiwWp9f4+mYcFFqId/4ExMbPBMvV0tRfAZZaYYCe8m0Tfh/1a8B38HuFtc5eRMBXm/8V4LeBzQmPZT4mge/ilz4XbvCzIjekACxyldhFtAZdrGi/lZ6WBexRuwmRK3FqYhdHRt7E4ZdfK/zWORNDvsXP/Drm3+5FZG66gMeBe/FVtX8IvAh8TL30EhaRaujDV3r+XWBLwmOZjwj4EfC3+AJYIgumACxyGUdM5Ap0tWxm45KHaUn3LMpxR2fOcGzkXYbzp7EEGBuiFT51zEZ+z+/7z6CtrbLIOvD9hB8H/hH4BvAOOnEUaUZd+Jnf36M+Z37BV7z/Gr4nukhFKACLXM5B4EKWtq5ndcddWFP9vvBRXOTI0JucGvvQh1+j8FvXghJMdxB/8EXf4kUzv5KMbuBX8RW2/xYfhI+iZdEizWIJ8M/x4XdjwmOZr1PAH+F7oC+6f/Ov/2Bef+7f/k//Y4VHIpWmErMiF8XEJqIrs4rV7XfSmupelKMOTh/n2NgORvNnCGwKYzRjWLfCAm6601d7jkOFX0maBbYC/wr4d/hiWfXW81NEbt4K4F8C/z31G35H8Ht+nwWmEh6LNBjNAIuUxTjiqERf91bWdt23KK2PCqUpDg2+xIXpwxhrQF1/65SBVA4menAffQFKabBq8SI1oxf4aWA9PhB/A7UREWlUq/H7ff876rPVEfh9v68AfwqcT3gs0oAUgEWAcpUiMkE7y9u20tu2vvpHdDEXpj7m6OhbTBWGCIOWqh9TqsAZyMzAeC9u9+eh0AKBVplKzTH4AllrgXXAnwM70X4LkUayDvgf8O2OliQ8loV4F9/vd1/SA5HGpAAsAsRxjLGWZS2bWdl2G9ZU/6kxWRjk8NDLjOTP4Iwrz/3qXLS+zIbfpcS7H4dcG4Tq0CA1bSnwW/hZov8P3z94OskBiUhFbAX+AL/3vz3hsSzESXz4fT7pgUjjUgAWAWJKpMiypvNu+toWp1Di+YmDHBl+nXw0SWgzKPzWGXdV+J3pgFQ+6VGJzEUGvx94Lb7AzLeAsURHJCILcQ/wPwNfBVoTHstCjOHD7z+g9m1SRQrA0vQcfva1NexidefttGV6q37M0ZnTHBt9m/FiPwBW9ejqzKVlzz78tvs9wNrBLfUjBdwP/K/4PqF/BgwkOiIRuVkGX+n93wLP4C9u1atp4L8AX0cX5KTKFICl6UWuRNq2sKr9Dnpb1y9KFeYTYzs5NvIWEVG57ZHUlaCEG16BO/BQOfzmUfiVOrUZ+H2gB/iPqDiWSL1I40Pv7wOfB4JER7MwRfyS5z8Bjic7FGkGOvOWJmeI4gLZzFI29jxEZ2ZF1Y84PH2S46PvMlIotz3S7G/9CYqQb4XxXmiZQOF3QbT2P3krgN/Gt0j6v4DDyQ5HRG5gCfAz+B6/91P/b0LvAn8M7Ep6INIcFIClqTkcgQnpzq5kRcc2UlWuxBzFRT4efp0zE7vBBJi6vmDbpGyEG1qJO3IfZKep//OOxAXoL7EWdAO/jj8v+D+Bg8kOR0SuYR3wC8BvALdR/6+fh/Ezvy8DcbJDkWahACxNLY7zdKSWsrbjPjrSfVU/3tD0cY6NvsNo/iwpm6X+37eakI0hCmGqsxyAZYFC6nvpXiNpBX4F/2/yvwMHkh2OiFzGANvwqzV+Ab9yo95PIi7gZ37/HsglPBZpIgrA0sQcJVegM7OKDT2fJZNqq+rRZorjHBh4if6pQ2AsLMJeY6kwG8HYMty+x3wRLKmEkPo/iWskLcAv4i9K/G8oBIvUiseAfwU8jV+xUe9G8eH3L4HJhMciTUYBWJqTczjjyNh2+to3sax9U9X34l6YPMSxsbeZKo6QCtLlvr9Sd0ohlDKQUgCWhtUC/ByQB/4PtCdYJEkd+LZlv4UPwelkh1MRE8Cf46vPDyc8FmlCCsDSlJyLiYjoa9nMmva7SNvqts0bz13g8NCrDOdO4oxDE151yMQw3UX80ZMKv9IM2vAzwZPAH6LKrCJJWA/8LPBrwF3QEFUzc8C38f1+Tyc8FmlSCsDShAwxMc7FrGjfxqqO7VhTvS2IzsWcndjD0dE3KUTThFazv3XJGV/5WaR5dOAL7UzglyqeT3Q0Is0jhQ+8vwL8MrAs2eFUTB54Fvj3wKGExyJNTAFYmlCEM442282q9m10tlS39dHQ9AmODL3BWL4fh1Hbo3pkHBSzxLu+AGnV6aiwUtIDkOvqwVeHngD+CFDlN5HqasP39/094GF8cbpGUMD3+v33wAcJj0WanAKwNBlDKS5iTcDK9jvoa9uKreLTIHYRJ0bf5+joW8QUCGymaseSKnLG9/wNi1d/xAzGJQAAIABJREFUJ8Tvx7Kon+18xPiZDv3d1bb1+FmoE8A/AJ94IojIgllgDX658z8Dbk92OBUVA2/glz2/nvBYRBSApbkYIHJFUjbD+u77WdK6AVPFasz9E0c4PvYOE6VBrEmVZ391rl93ojTx7icgfcXe3xRwD/A4sBw/k6l/3Llz+BmBR9Gm+HpwB/C7wElgR8JjEWk0KeAR4FeBn6JxljzP+hAffp9PeiAioAAsTSYmJjAperKrWd5+K9mwvWrHKkTTHBl5lTPjH2FNisCEKB/VKwep/NV3hsB9+LYU68v3xYs5qgZRSHoAMich/mLFbwP9wLFkhyPSMJYCXwF+E1/ludEuCO7DF9J7FvX6lRqhACxNpRjnyAYdrO/6HEta1lXvQM4xUJ79HS/2kwpaMSZAAbjhhMDl69q1wfvmBVyaPW+0E79GkwZ+Ht8W6T/i9wWLyPykgG3AL+G3GKxNdjhVcQj/WvF3wFTCYxG5SAFYmkoUF2jNdrOh6zO0p5dU7Ti50jgHh16kf+YY1qaxVK/KtCQqwle1lPmLkh6A3JQOfFGsY8B/SXgsIvVqKfAkftb3UfzzqtEcA74G/DUKv1JjFIClOTiITUTGtrO8ZQvL2jZiTJUm65zj7MQBjo7tYLo4QiZow09safa3ATn0DyvN51Z8j+B9wO6ExyJSb27HX0T6GWAzjbly6BzwJ8BfAeMJj0XkExrxSSfyCTExpThPV3YFG7o+S0uqu2rHmshf4MDg84zkzpT7C+tpJiINxQCfxxfsaUt2KCJ1oxtf3fnfAb8DbKUxTxDOA/838BfAQLJDEfl0mgGWpuCIieOInpZ1rOm+m1RQnXZEUVTk1Nhujo3uoBjPkA5amNsEobnOV5c4XPnRHM7FF+9xV3zNpc9dTEwMGDK2lcCm5zgeEZHr6ga+CrwFfActZRe5FosvmPjTwM/h9/02ar2DM/g9v18DhhIei8g1KQBLw5sNh61hDytbb6Uzs7xqxxqeOcnh4deYKg5jTYAluBhAZ8fig6njUpy9+muu/NrFxOX7rTFYAqwJsYQYGxIQEpgAYwKsDf33y/cbY0mFWSwB4/nzTBVHwYBp2PdeEVlEG/F7GPfii92IyCUG3yHgEXyhq0eBzkRHVF2n8cue/wyFX6lxCsDS4AxxXCJ2JZa3bWFN593lWdnKK5SmOTryFsfG3qDocliTohjnytF1tjuOwRgwzoKxWKzvQ2wsBoMpfwSDtcb3DXYGyp+nTZp00ELKtpC2baTCVjK2jYxtIRVkSYVtpG2WdNBKOmgjnWqnNdXDZH6A989/g4mxQQwWo6JcIrJwFngI38LlPwGjyQ5HpGa0Aw8AvwJ8Gd/Xt5HfeM8Afwz8Kb5NmkhNUwCWhueICEzIyo7bWdlxW1WKXzkXc2HiICfG3me6NI41IYFJAa5c/spgMKRshvRsWDVtpIJW0jZLJmwlNC2kgyypoIVU0EI6bCVtW/3PhC0+0AYpDKGfXTaXfeTS7K8xAYENsITYIKRQmub4yHuMzJzHALYhtxyJSEJ68S1c3gNeTXgsIrXgTvyM73+D3+ebTXY4VXcCv+z5z4HBhMciMicKwNLQYiKMsfRk1rCyfRvZVHVWHzkck4UhWsMl3Nb7RbJBG6mgjTDIkLJZwiBL2mZI2QyBTRPYFKFJY02a0KQIggwpk8KaFEFQ/p5Nl38+BGPmtWzZxY5TYx9yYOg5RvOnMTakcbceiUgCDL4q9FeAg8CFZIcjkpj1wD8BvgQ8DFSv12LtOAz8Eb7a83DCYxGZMwVgaWixK2JNyLqOe1nZdlvVjmMwLGu7hdZUN5mwvTyLmyUVZAltltCmyiH2k3+ymganj7Cn//sMzBwFHFbhV0Qqrw0fgHcA30p4LCKLyQKrgAeBp/HLnVfT+FeaY/ze/68BX0fhV+qMArA0NOccrUEXq7ruort1TdWOY4xlafsmllbtCDdvpjjBoaGXOT72NqU4R2gbfRWWiCRoG/BF4HU0CyzNYSVwG/AT+OrOG5MdzqKJgA/wy56/BUwkOxyRm6cALA2r5EqkbJblbbeyvG1z0sNZVLGLODr8BvsGnmMmmiQw6aSHJCKNbbY38NPAN4FioqMRqQ6DX/FwG/BP8Ssf1gPVqa5Ze4r4lR7/AfgukE92OCLzowAsDcnhiOIC7ZkeNnR/hu7s6qSHtKguTBzkwNCLDOVO+vZIVSj8JSJylVuBZ4AXgPMJj0Wkkgw+5G7D979+Gv/73pPkoBZZAXgRv+f3xyj8Sh1TAJYG5bBAZ2oZq7vuIBO2JT2gRTNVHGXf4PMcH38PjCOwjdx5QURqzH3A/cAP8UslRepdBrgXH3ofAT5HcwVf8GH3e/hlz68BpWSHI7IwCsDSkCIX0RJ2s7L9drozzTP7G8Uljgy9zscjrzJTHCUTtJV7/rqkhyYizeEW/AzZu6gfqNS3TuBufOD9AvA4fvlzs5kAvg38IfB+wmMRqQgFYGk4DkccF+hu2cLGnger1vqo5jhH/+Qh9vR/j+GZU6SDVoxR+BWRRdWKr4i7CRhAL0BSf5bif3+fAH4WH4KbtYrkCL7K8x/i25yJNAQFYGk8LsYS0tu2npWd27GmOZYAT+T62XPhB5ybOogzDmtS6NxTRBKwGj9jdgB/Ai1S61L4Zc0bgJ/BV3beQPMtdb7cBeDPgD8BTiY8FpGKUgCWBuOIXURPZjWr2+6kNexOekCLohQVODq2g4MjL5GPpkgHLSj8ikhCuvAtkZ5FAVhqmwFW4Pf2Pg18FgVfgI/xxa6+jgraSQNSAJaGEhPjXMTytq2s67ofTKP3ovfOjO9mT//3GS8OYE2IIcARJz0sEWlOBrgTuB34EF2Nk9pj8QXbHgE+g/99vQ0/E9zs3uVSj9/JhMciUhUKwNI4nMMYyASdLG/fxpK29UmPaFGMzpxl/9BznJnYTYAlsGmFXxFJWg/wAPAycDbZoYhctBrYDtyDD78PAcsSHVHtKOCrt/8panMkDU4BWBpG7CKMCehr3cKKjm1N0fu2FBc4NPgKx0Z2EBMTGF28FpGaYPDhYjt+CaWuyklSluGXOW/Eh95n8NXKW9B58Kwh4LvA/4NftaE2R9LQ9MSXhhETkyLN2s676GvblPRwqs7hOD32IYdGXmEkf5ZUkMXQHEu+a4gFmqPKWvUYtES2Ud0NbMPPAisAy2LK4tsY3QY8BTyG/13soDlbGV3PaeA/lW8nEh6LyKJQAJaG4FyMMYaO1BJWdW6nLb0k6SFV3ejMGXb3f4cLU/uxNlD4lXqlX9zG1YIPIEvwFWVFqq0Nv7f3MXz/3k342d8e/AVLudJO/Kzvt4HRhMcismgUgKUhRK5EJmhjVfudLGldT6OfU88URzk48DInxj8gH+VIB61oEm3ROfwJw7Hy1xGa5boZs7+wbUA3jf6kbV5bgK34nsB6fkg1rMEvtb8D//t2a/m2HIXea5nGV2n/S+Cl8tciTUMBWBqAIXYlOtK93LrsKZa0rL3q++6KaBjHMb5dUgnnYhxx+XNHTHTpvjjCEePi2FeXJsa5mNjF5Z+77GddhHOOyBUxJqAz00dPdg2BrfyeXBdHnB7fw4Gh55kujhHaNAq/i8BG4K7IaEX8Xqmv4We4FIBvToz/O/wy8JWExyLVsxm4C3gLPT+kMtqAdcB6fMuibfjl9nfgX4sNuqB2LQ5/0fZZ4K+A99EJhDQhBWCpew6HxRLYgJLL0T91mNjFRJSIogJxHFGMizhKxFGRUlwCYiJXIHIl/7MuT+wiorhE7Irlz/3HOC4RuxIRJeI48ve5EpErlv98RBwXiVyRXDRBV2YV96z4aboyq6qyOXRg+ggHBl9gMH8M5yICm67CUeQKYQF734+Jd3wFwuLsvRGwr3yT+VuGD8HSmNbg2yGFqLCOzE8Wv0qkE+jDz/Z+Dt++aAuQSW5odaUE7AX+Avgmqs4uTUwBWOqeAQKbYSI/wBsnv4bBUHRFYhw4h5/tLV/gdA6MK386OzPscDiMm/3s0vfBlUv0lL/jwFz+U+7Sz/sgXGBZ60b62reSCir/npwvTXNw6BWOjrxOHJewVk/hRWNiyE5BMXPxd0gqwi/JkEYV4ivuLsUX2xG5kTS+H28WfwHlTnzborvwKwq68fvLs0kNsA5N45c6/xHwCjCV7HBEkqWzZ2kIxlgKcY6pmePEcQkfXd1lhaFM+ecuXxVVvo8r77v0I5f+rLn8583l37v0eUSRZa0b2NTzCD3ZVRX5/7qcczFHht/g8PBrzJQmCIIURtubFoczkJnG3v0S8VtfhbS2S1VQgJYrNro+/D7gc/iVEyKzgvItxM/kbsCvGLiLS/t4e8u3xq9uWXkOOIOf8f1r4CP0HBRRAJZG4QBLyrax0Pa/c5uKuvKnYiICF7Ku6342LXkEYyq/+Hlg6ij7Bp5nYPoo1qZV9XmxOf+LZTr7cTOdfkZYROaiBx9mdqCZJ/GFqTrws7trL7utBlaWP19f/hmZvwj/nPsbfI/fU8kOR6R2KABLg3GLvpYyJgLnWNqygfVd99OeWVrxY0wXRtjb/0POTn5ITInQaOXXonMGWsYx23bg3voqtIyhiUuROenFB+A2FICbTSt+yXIXfga3Fz+ru6F8my1ktTqR0TWuQeA5/H7fF9H+e5ErKACLLFDsItI2y6aeR1jTeU/FHz+KSxwffZdDwy8xWRwiZVsUu5ISB74a9LITML7Ufy4iN9KJXwJ9s1fuLH6PuF7yknW968oWv2c3g//3bcFf6OjAz+auxs/orsGH3fX4/eBp1KKoGmJgP/B3+PB7ItHRiNQoBWCRBYhdhMXSk17Nhu4HqjL7e2HyILvPf5fR/HkCm8YsdI23zJ+z0D6CWb8H985XoH306tZIIvJJBh+A2ub48y34Sr99+GWcKpKWnBDIA0fxfc9nC1Rl8DO6y/CBtg8feNeVbz34f8dM+ZZGRauqbQx4Hfhj4A38v5eIfAoFYJF5M5TiPG2pJWxe8jh9bVsrfoTJ/CAHB1/g9NQeHI7QqOVR4kopTHYKVh/CDa2GQCvLROagHR+S9s/hZ5cAvwM8jMJv0iyQwxdPGgBW4ENvO5cqMc/O/LaW769GB0C5vkPA3wL/Fd/qSESuQwFYZJ58/+GAJS3r2NL7GK3p7oo+fhxHfDzyOgeGXqQQTxNatTqsCc76md9lJ+HMFmgf0yywyI1l8Eth00BhDj97J74asNSG7fh9pK1JD0SuMAk8iw++LwLDyQ5HpD4oAIvMUzGapiu9nM1dD7O0dUPFH//s2B729z/HcO4Ugc1iCNBkSI0opjE9F2DNIdy5jdAypRAscn0Z/H7QDmDoBj8b4/uWSu1Il29SGxywC1/d+ZvAPnSCIDJnCsAiN8n3F/b62rawZenjhEFltzaN5y6wd/D7nJ7YjbVpAptC7201xFlI5zDb3gZncf3ry72BFYJFriGNr/7bzo0DMKhqrci1nAXexLc3egGYSHY4IvVHAVjkJjnniF2RnswaNnR+jp7WtRV9/GIpx8GBlzk29h5FlydlM4pVtSgKIShhbn8DnMENrIV0LulRidSqFH7v6FyX0OplT+RKBfwe+r8E/hHf17eY6IhE6pQCsMhNMThXIiZibdfdbOp9mMCkKvbozsHZib3sH/oxI7nThEEao04RtSsKwUaY7a/B3sd8UazwRtsbRZpSiK8WrD2kIjfvFPD3wLfxBclGkh2OSH1TABa5Cc5FYAxL0mtY3/0AXS0rK/r4IzMn+Kj/u1yYPgQGAgItfK51cQA2xtzxKuz+PG5kuSpDi3xSCPTiqwWLyNyM4Jc5fw94Bd/XV6cFIgukACwyRwZDIc4T2hS39DzEmo57CEzlnkIzxTE+HnqNYyNvU4oLpIMWvcvVi9iCcZi7XsR9+BSMLQMbJT0qkVrTiS+GJSLXNwl8iA+/f48vcqXlziIVogAsMkcxMQDdmRVs7HmQ7grO/sauxMmxD9g3+CIz0QTWhuVSW4rAdcMZiFLYu18g/vApGF8KJk56VCK1pAO/F1hEPl0eOA68BHwdeJsbtw0TkZukACwyR8U4R2vYyZaex1netq2ie3OHpo9zcOglzk8fACA0aRR+61SUwt7zAvEH5RBsFYJFytpQKx2RT1PCL3d+Dvhr4B18T1+dCIhUgQKwyBw4HMQxPW1r2Nr7BB2ZZRV77Hxpiv0Dz3Fs5C3AYStYVEsSUkph732e+IOnYVzLoUXKMui8Q+RyJWAceBFf4Opd4CigNw2RKtIbkcgNOBylKE97eim3dH+Ope2bKvbYcVzi2PDbfDz8OlOlEdJBW8UeWxJWSmPvfYF411MwuhwCbd8SQUugRWaN4QtbvYhf8vxRssMRaR4KwCI3ELsIR8yK9lvZ0vtEBUOqY3D6GHv7f8BQ7hShbcGvdlL7y4ZRSmHvfhH30ZO44ZVqkSTNzqAl0CLDwB586P0e8F6ywxFpPgrAItcRExPHRTrSy9jQ9RmWtm3EVCigThWGODD4PKcmd1OM86QDdQdpSHGAufNl2PM4bnS5CmOJiDSnYfzy5ue51M83l+iIRJqUArDINRliV8LhWNNxN5t6HiZlK9PBI3YRJ0d3cmDwOWaiMUKrSZGG5YxvkbT9ddwrvwipfNIjEhGRxTMGHAP+EXgWH4KHEh2RSJNTABa5BkeEi2M6Uyu5pedzLGldX7HHvjCxn739P2a00I8lxJoQFXtsUMaBAXf4PghKSY9GREQWRx7fy/d7wMvAAWAgyQGJiKcALHINUVzAmoANPZ9lQ9dnMKYybY+mC6McGHyZkxMf4IzBmgCF3wYWlHAHHsKd2QzpGbTHW5qYQz1NpfFN4vv3vgq8CbwPjCY6IhG5ggKwyKdwOAyGrswKNvc8RHfLqso8bhxzePBlDo+8Sj6eIrQZxaFGlsrj9j2KO7cR0jkUfkVQOXRpVCeBvfgevj8CPkB7fEVqkgKwyFUcUIryZINWNnU9wqqOOyr22OcnDrB/6HmGZo4TBJmKFdSSGpTO4fY8iuvfoH2/Il4R3/dUpFHkgDPAx8APgB+Wv55CS7tEapYCsMhVnIuJiejMrmBL7+N0ZJZV5HEn8gPsHniWc1MHMCbAElTkcaUGpWeI9zwO/evV/1fkkkk0AyyNIQecB94AvgPsAAbxwVdEapwCsMhlHI7IlehILWNj14P0tW/CmIXP0uajSY4Mv87RsR3kowkCm63AaKUmpWeI9zwBA2tV9ErkShNoD7DUtxy+b+/zwFv4is4n0e+1SF1RABa5nHPgSvS23sKW3i/Qmu6uyMOeH9/Pnv4fMJ47i7Whlj43qtmZ34G1YNXvV+QqmgGWenUAv7d3F7AbX915EC1zFqlLCsAil4mIaE33sr7jHlZ0bKESRYtGc2fYN/g85yb3EwMhqQU/ptSgVB6397HysmfN/IpcJQJGgJmkByIyBxFwDr+39yA+/L4KnCh/T1c4ReqYArBIWUyMcY41bXeyuecRQptZ8GPmS1McGHyJj4dfJSYitAq/Dcc43+po/yO48xsgVPgV+RRFfA/U6aQHInINsxdpBvHB9zX8Uue9+CXOmu0VaRAKwCKU2x45R2vYw4bu+1neefuCHzNyJU6MvsehoZeZLA5jTQhY9B7aQEwMNsbtfxB3bpOqPYtcWxG4gIoESW2J8L+b48Ae4AX8TO9xfO9eVXMWaUAKwCJA7IpYUqzvup+1XfdRgbpXjMycZv/g85yb2OerPtsQvY82EBsDDnfos7izW8p9fkXkGgr4GWAFYElahG/HNQbsBN7G7+s9ji9oNZjYyERkUSgAixDjHLSnl7BxySP0tt6y4EfMFcc5MPBjjo+/R2RKpEyLCl81EuMgtrgj9+JObYPMFJXYLy7SwIrAWXwlaJEklPA9evcC+8q3w+WPwwmOS0QWmQKwNL1iVCQTtLCh8wFWd9xBYBf2tIhdiROjO9k/+AJThUHSQSsKRw0mVcCd2YQ7fge0jYPTv6/IDeTws2taKiGLaRw4jQ++R/Azve/hQ7BWI4g0KQVgaXKGGEdHZjlblz5JV3blgh9xYPIIe/q/x0j+DIFNofDbYIyDmTYYX+aXPSv8iszFFHA+6UFIw5vBh94x4BS+bdE7+KXOZ/AXYLQXSaTJKQBLE3NEcYGWsIN1HfexouM2jLELesTpwjAHh17h+Pj7lOJCefZXGkpYxI0uwx27C9pHFYBF5uYcmnGTysvjQ+0M0A+8j5/h/RB/wWU2DBeSGqCI1B4FYGlqJZdnRXYbt/Y+SWuqe0GPFbuYYyM72D/wHPlomtBmMBicLjY3DuNguh0ubITslMKvyNxM4vdaqgewVMo4cIxL+3kP4pc6D+CrjU8mNzQRqXUKwNKkHBExrUEPazrvYVXXdswCSz9fmDjA/oEXGM6fJDAprAkVfhuNLUGxE3fqNmjT7K/IHA3iA4p6AMt8xPgVBMeBE/i95CfwS5xPlO9X4BWROVMAliZkcHGJiDwru+5ly5LHSQctC3rE6cIoewd+xKmJXRgbYo36/TYc4yDXjjt2N2QnFX5F5m4YOIBmgOXGcvjfl0FgqPzxJHAUX8TqML6auIqpici8KQBL03Hl2d9s0M6GrvtY2bFtQY8XxUU+Hnqdo2NvMxONa99vozIxAK5/A2QnUHEzkTkbws8Al5IeiNSMAn5FwDR+b/gkPvjOBt1D5dsAPuwWy38mSmKwItJYFIClqRgMpSgPxrCu/T7Wdd5HKsgu6DHPTx5m7+APGMmdIrQLeyypUcZBoQW37xHITKPwW1FaKtH4TuL3Zc6VQU+yRhBfdivhA+w4fgZ3dhnzCfxe3pP4YlW5y27FxR+yiDQDBWBpOjFF2oIlbO59jGXtWxb0WGO5c+y98H0uTB0idjEpu7Aq0lLDjMON9vnWR1JJCsCN7Rywn5sPM3oxrT8RMIpfttxfvg2Ub+fKtzFg4rLbOH4GWK8DIrJoFIClqZRcnpRtYW3HPazpvIvUAvb+FkrTHBvZwZHRN8jH04Q2XcGRSk2JUsS7noJ0/vJ7DdAKdHLptbTeT+IM/v8hjz+ZrdYsnMEHojzQVsXjSPIOA3vws4BzFeOXxjr8rOGn/VmDf97pPGZxDJZvk/h/m8nybQIfemeD7WT569HL7h/BB90i9f8aKSINQG8cUrcc4JzfDuQrOBvMDc6jS1GBpS0ruXXZU3S3rFnQ8c+M72H/wPNMFgfKR9aERcNyBnJtYK/YfhYCdwFfAPrwgbHeT+4MPmzkWJwAHAEPVukYUhs+xs8A30wAHgf+Ab8fNH+dP5sq3/TiWz2WS1WYz3HlzO0EPtwO4Zc4u2vcRERqigKw1C0LWJvFuZiSyxO7COccGMpB2GCMKU9pGWIXkbYtrG6/k3Vd9yxoxnYsd4FDQy9wZvIjnDFYgkr9b0mtMp84jwuBO4F/Dqxf9PHUv9m/0NkZPodmghtNCV/9+fxN/rkR4M/R70MtuTzMXv1RRKSuKABLXYpdRGhT9LZsIBO0MVMcJheNUYgKRETlt2WHK59Xl+ISLi6wrGMbW5c+RWtqybyPXYry7B94jiMjOyi5IqHR0ucmlgJaQFdAFsCh6sCN6iNgL/Or3KtqvyIiUhUKwFKHDLErERPQnV7JbUu/SEumnVJcIB9NkytOkSuOk4vGyRcnyJXGmS6NUyhNs7HnQVZ33klg5/erH8VFjo++y6HhlxktnCW0aU1bNbcSfommzJ+CTmOKgR3MPwCLiIhUhQKw1CVrQqK4xFDuGCaANZ33XvH9YmmafDRDIZqmWJoiH01RciW6sytpTXfO+7iDk0f54Py3OTOxh4gISwzOYZzBWDDOgLk8Dl++K1kxWUSaxjjwLr7ljYiISM1QAJY65MoBuMD56QN8dOF7tKeXs6J968WfSIWtpMJWoLdiR41dxGRhmNiV6MmuwRhLKSpSimcouTylOEfJFYidA2OwWMBgjcXalPYJi0izcMBBfPVn9XIVEZGaogAsdcoRmABHmhOjO+nOrKU7u4Zs2Fq9I7qI7pbVPLDyF5gpjlGIppgpjjNTGmcmGiUfjTITTVEo5YhcEeciX5gLv2+4EE/jVwVqJlhEGtoE8DxwPOFxiIiIfIICsNQvYwkImC6Ncmx0Byvbb+fWpU9gbXVmWq0J6WldRU/rapyLiOISsSsRlW+xKxC5iGKUI1ccp1CaIh9NMzJzihPj73F++jDORVijp52INLTzwAv4vrEiIiI1RWfiUuccqSDLcO4Yeweepa99I72tG6pyJGPspV6/JiCYQxul6fwoH+W/w1RpiNgVtQxaRBpdHngH3/5IbXJERKTmqHm81DWDn5ktxAXOTu7h4OBL5EoTSQ8LgHxxksPDL3Ng5EXG8hcwWIzRU05EGtop4Lto9ldERGqUzsalAThCm2EmmmL/4IucHv2Q2CXbdWM8d4Gd577FW2f+grOTezFYrNHsr4g0vA+Bt1DxKxERqVEKwNIQAhMAjpHcCQ4Mvcjw9InExjI8fYKdZ/+O985/g6H8aQKbxmrmV0Qa3yngB/g9wCIiIjVJe4ClYQQmJHIljo6+ybLWW+jOriEMbrxPt3Ic/RMfs/Pctzg4/BJTpRFStqVc9Epb4USk4b0C/BDN/oqISA3TtJQ0EENgfFXoQ8Ovcnz03cU7tIOTIzvZceavOTD8AlOlUUKbKS97VvgVkYZ3El/5+UzSAxEREbkeBWBpMBZjQs5PHeTA0AuMzZyr+hHjOOLjoTd45+w3ODzyKjPRBCmbUbuj5qErHNLsCvilz88nPRAREZEbUQCWhmNNQNHlOTn2AQeHXiJfmqrasQqlKQ4OvsK7Z7/OsfF3KLgCoc2Uqz0rFzU4AwTlm0gzO4Sv/KzZXxERqXkKwNJwDIbQZhjPn2f/0HOcn9hflePkS1McGHyRHWf/ijOTu3EuIjQpDKYqx5OalAZSSQ9CJEGjwD8A76OrfiIiUgcUgKUhGQwYGJpfMJQwAAAKP0lEQVQ+wd7+HzEyfaqij58rjrH7wnd45+zf0j99lIgIozZHzWZ2Blivo9KsHLAL+Daq/CwiInVCmxSlIRkMgU1TiHMcG3ubFR1b6Mj0EQaZBT/2RG6Ajy58l90D32M0fw5rAgLt9xWR5nMC+Etgb9IDERERmSvNXEjDMhissUwUB9g38Bynx3Yt+DFHZ07x/rlv8kH/txjOncbatIpdiUgzmsK3PPoukE94LCIiInOmACwNzYdTw5nJvRwceomx3HxX6Tn6Jw/zzplvsKv/20wUBkgFLVjt9xWR5vQ28DfA0P/f3p392HnfdRx/P2fG4y0lW6FSVVGQEBJk6SJuKmgRS0HiimsQ4l/gkmuQEBUgJBYVASqINkLQogoV0SUJdZK2SdqmiRvHSl3SkoZ4i2Nn4sTxbOdw8YxblyqNHS9nxvN6Sc/FnJmRvjo6c+Z8nt/v9/3OuxAAuBwCMDe8hWGx6WzaM2ce7cipB1rbeO2yfn863ej55UM98r8f7eDJ/+jc2tkWhj2aXQE71Xeqf66+MO9CAOByCcDc8IZhoYWFxc6sPNeR0wc6fvbpLrVZ6cZ0tWfPfLWHn/uHnn7xv1rdONfiZHeTwZ8OsCOdq/6p+vd5FwIAb4ZP8ewIkxaaLCx2/NXDPXXy051dOfWGv7O+vtKRFx7skec/2jPLj7Y+W21pcZ/wy8UmmQN8pfxBbR9r1Werf6ne+E0UALYgHzzYIYZ2DXta2Xilby0/3LfOPNLa9PX7tqyuv9rhk5/t0aP39OzZx5oN05YW9tn2zP+3q9o/7yK2OXOUt48nqg9XT8+7EAB4s7SvZUdZmOzp5dUXO3Ty092+95294+a7f+Bnzq2+2KGT93bwxCc7df7b4xbq4crHJ3HDmVbPVQ9XP7b59aXtrWeoNhqfr9urt20+xtb17epvqwer9TnXAgBvmgDMjrI4LHV++mrPv3Kob5w60C173t5Nu9/63e+/vHKyJ098qoMnPtXy6rEmLTYZdm2u/Mo2O9dQa3tq6dzFD65VX6yOVvsaXyBeJJdmaByds1r9bvVb8y2HN3C6+lj18Yw8AmCbE4DZUWbNWprsbn222pHT9/ej+3+yu972Gw3DQsvnj/XYsU90+IXP9cr6i02GXS18d8avXLOjLaw1/MwXm33z52qyceHR9ep/qmf73uqlF8qlGRpXzKfV+/K8bWUrjeH3b6rlOdcCAFdMAGbHGYbFJk1bXj3RkdMPddued7Z7cX9PnPhkh0/d12vrL7UwWWpwRJ4LhmnDbceare2u3d+3CjydV0k3kI03/hHmZNrY8OqvG3c6AMC2JwCzA82aDAtNh6Hjrxzuy8/f067FPX37pS/36trpFhf2anbF95sNtbja5O4DTQ//fC2szbuiG4k7TVvTSuOooz+vjsy5FgC4agRgdqRhHIzUufWXe2b5SzUMNZu1S/jl9QzT2rdcGwsCMDe61eoz1Z9VB+dcCwBcVe68s6NNhkmzYWhWDcOC8Mvrm01q79km7/r82BALbkzT6tPVh6qv5nw2ADcYK8DseBP3gbhUw6wWVy5uhAU3krXGbc9/Wn0lZ9wBuAH55A9wqaYLdfOphjserJW9864GrqZz1b9Wf1w9mvALwA3KCjDAZRlqYX3sBj2bjKvCsL0tN4bfv6q+PudaAOCasgIMcDk2FhreerThp79aK/vmXQ1cqePV31V/lPALwA5gBRjgcm0s1K7ztX953Aq9qCs02860eqb6SPX31an5lgMA14cVYIDLtbGr4a3PN9z5YO1+rdaX0iyXbWSl+mL1h9WHE34B2EEEYIDLNquVvQ23nGxy50PjeeD13fMuCi7FK9W/VX9Qfbzx/C8A7BgCMMCbMYwhuFuPN7njC7X0Wq3vmndV8MP8d/UXjZ2e76vOz7ccALj+BGCAN2uY1fl9dduxJnc9WEvna0NrBbacc9Xnqw9Vf1I9Od9yAGB+BGCAK3EhBN9yosldD9Ti6jgvGLaG71QfrX6/uqd6ab7lAMB8WaoAuFLDrFb31s0nG+4+0OzgL2/OCJ7OuzJ2rteqh6t/rO6vjs61GgDYIgRggKtiVmt7Gn7kVL37/mZP/ErNhjEcw/X1ePWJ6t7qYLU633IAYOsQgAGupvWlhpvONLz7vqaPf3De1WwH7hBcPYeqA9Vnqi9VZ+ZaDQBsQQIwwNW2sVj7l5u8596mj/+ardA/3GrlCXrz1qtvVE9U/9nY3fnFamOeRQHAViUAA1wL04Xad7bJez/X9GtC8A+xXJ2u9s27kG3mbHWy+krjducDjc/l+hxrAoAtTwAGuFZmQ+29KAQ3cyb4Bz3buIL59kwmeCPTxoD7zcZtzp+pnq5eqFbmWBcAbBsCMMC1NBtq78ubIfiDukP/oK9Xj1bvr5bmXMtWNN28TjR2dX6kcY7vNxpvHgAAl0EABrjWZpPat9zkPfc1feJXx+3RE0c0N52qHqp+s/rZOdeylaw1ji56ujrS2ODq8XR1BoArIgADXA/ThbrpdMO77m928JdqY1ctOK656fHqI9XvVe+Ycy3zMm3s2vxC402BZ6rHGlfHn2yc6wsAXCEBGOB62djVcPOpuvtAsyd/sdZ21+LavKvaCk5U91S3V79d/fh8y7nmNhpXcc9vXi81Bt6D1dcaV3uPbX7PCwQAriIBGOB6WltquPVE3fVAs0MfqNU9tbhaDfOubN6OV39ZPVf9TnVHtafa1fZ6cqaNs40vnN3duOhabRxR9Fzj+d1vNp7lPdoYgpcbV4FtDQCAa0QABrjeVvY23Hq87nyo2aH31+rezRC84x2rPlY9Vb2vurv6iermxv9Xl9I9bGgMzReC87Vsu30h1F4Iu+erc5vXK9XLjYH2xYuulzavMxd9DQBcJwIwwPU2zGplX8NtRxvu+ELTp35hcyXYbtfG+bYPNnY7/qnG7dBvqRa69AC82PVZOV5v3KJ8IQCvNp7Vfa16tTEEX1jZdYcDALYAARhgHoZZnd9ftx9tcudDTQ99oNaWNMb6ntXq8OYFAHBVTOZdAMCONczq/L669ViTOx8cV4CnC/OuCgDghiUAA8zTMKvVfXXL8Ya7HhjnA8+8NQMAXAs+ZQHM3azW9jbcfLLhXZ8fv55tp8bHAADbgwAMsCXMan2p4S2nmrz7PgEYAOAaEIABvt98k+fGrrrppSbvudd5YACAq0wA3h72zLsA2EEWm/d743Sh9i83ee/nhGAAgKvIGKTt4VS1e95FwA5xujo/7yKaTWrfGIKnj/268UgAAAAAAAAAAAAAAAAAAAAAAAAAAAAAAAAAAAAAAAAAAAAAAAAAAAAAAAAAAAAAAAAAAAAAAAAAAAAAAAAAAAAAAAAAAAAAAAAAAAAAAAAAAAAAAAAAAAAAAAAAAAAAAAAAAAAAAAAAAAAAAAAAAAAAAAAAAAAAAAAAAAAAAAAAAAAAAAAAAAAAAAAAAAAAAAAAAAAAAAAAAAAAAAAAAAAAAAAAAAAAAAAAAAAAALyO/wPYZ1iIQ+1aMQAAAABJRU5ErkJggg==;" vertex="1" parent="1">
          <mxGeometry x="1062" y="866.25" width="118" height="73.75" as="geometry" />
        </mxCell>
        <mxCell id="-L-Ys_6FJlGtnzZaTf8_-75" value="" style="endArrow=none;html=1;rounded=0;fontSize=14;fontColor=#FF0000;strokeColor=#0066CC;strokeWidth=1;" edge="1" parent="1">
          <mxGeometry width="50" height="50" relative="1" as="geometry">
            <mxPoint x="1088" y="888" as="sourcePoint" />
            <mxPoint x="1088" y="860" as="targetPoint" />
          </mxGeometry>
        </mxCell>
        <mxCell id="-L-Ys_6FJlGtnzZaTf8_-78" style="edgeStyle=orthogonalEdgeStyle;rounded=0;orthogonalLoop=1;jettySize=auto;html=1;entryX=0;entryY=0.5;entryDx=0;entryDy=0;fontSize=14;fontColor=#FF0000;startArrow=none;startFill=0;endArrow=open;endFill=0;strokeColor=#FF8000;strokeWidth=1;" edge="1" parent="1" source="-L-Ys_6FJlGtnzZaTf8_-76" target="-L-Ys_6FJlGtnzZaTf8_-68">
          <mxGeometry relative="1" as="geometry">
            <Array as="points">
              <mxPoint x="1073" y="764" />
            </Array>
          </mxGeometry>
        </mxCell>
        <mxCell id="-L-Ys_6FJlGtnzZaTf8_-79" style="rounded=0;orthogonalLoop=1;jettySize=auto;html=1;fontSize=14;fontColor=#FF0000;startArrow=open;startFill=0;endArrow=none;endFill=0;strokeColor=#FF8000;strokeWidth=1;exitX=-0.009;exitY=0.511;exitDx=0;exitDy=0;exitPerimeter=0;" edge="1" parent="1" source="-L-Ys_6FJlGtnzZaTf8_-76">
          <mxGeometry relative="1" as="geometry">
            <mxPoint x="1015" y="820" as="targetPoint" />
            <mxPoint x="1036" y="820" as="sourcePoint" />
          </mxGeometry>
        </mxCell>
        <mxCell id="-L-Ys_6FJlGtnzZaTf8_-76" value="P, U, I" style="rounded=0;whiteSpace=wrap;html=1;fillColor=none;fontSize=19;fontStyle=2;strokeColor=#FF0000;fontColor=#FF0000;" vertex="1" parent="1">
          <mxGeometry x="1033" y="800" width="80" height="40" as="geometry" />
        </mxCell>
        <mxCell id="-L-Ys_6FJlGtnzZaTf8_-80" value="" style="endArrow=open;html=1;rounded=0;fontSize=14;fontColor=#FF0000;strokeColor=#FF8000;strokeWidth=1;entryX=0.396;entryY=1.008;entryDx=0;entryDy=0;entryPerimeter=0;endFill=0;startArrow=open;startFill=0;" edge="1" parent="1" target="-L-Ys_6FJlGtnzZaTf8_-68">
          <mxGeometry width="50" height="50" relative="1" as="geometry">
            <mxPoint x="1102" y="890" as="sourcePoint" />
            <mxPoint x="1152" y="840" as="targetPoint" />
          </mxGeometry>
        </mxCell>
        <mxCell id="-L-Ys_6FJlGtnzZaTf8_-81" value="OCPP" style="text;html=1;strokeColor=none;fillColor=none;align=center;verticalAlign=middle;whiteSpace=wrap;rounded=0;dashed=1;labelBackgroundColor=default;fontSize=14;fontColor=#33001A;" vertex="1" parent="1">
          <mxGeometry x="1132" y="810" width="60" height="30" as="geometry" />
        </mxCell>
        <mxCell id="-L-Ys_6FJlGtnzZaTf8_-100" value="" style="endArrow=none;html=1;rounded=0;fontColor=#0066CC;strokeColor=#0066CC;" edge="1" parent="1">
          <mxGeometry width="50" height="50" relative="1" as="geometry">
            <mxPoint x="350" y="859" as="sourcePoint" />
            <mxPoint x="350" y="789" as="targetPoint" />
          </mxGeometry>
        </mxCell>
        <mxCell id="-L-Ys_6FJlGtnzZaTf8_-101" value="" style="ellipse;whiteSpace=wrap;html=1;aspect=fixed;fillColor=none;fontColor=#0066CC;strokeColor=#0066CC;" vertex="1" parent="1">
          <mxGeometry x="330" y="725" width="40" height="40" as="geometry" />
        </mxCell>
        <mxCell id="-L-Ys_6FJlGtnzZaTf8_-102" value="" style="ellipse;whiteSpace=wrap;html=1;aspect=fixed;fillColor=none;fontColor=#0066CC;strokeColor=#0066CC;" vertex="1" parent="1">
          <mxGeometry x="330" y="749" width="40" height="40" as="geometry" />
        </mxCell>
        <mxCell id="-L-Ys_6FJlGtnzZaTf8_-103" value="Программно-технический комплекс" style="rounded=0;whiteSpace=wrap;html=1;fillColor=none;strokeColor=#FF0000;fontSize=14;fontColor=#FF0000;fontStyle=2" vertex="1" parent="1">
          <mxGeometry x="150" y="714" width="140" height="64" as="geometry" />
        </mxCell>
        <mxCell id="-L-Ys_6FJlGtnzZaTf8_-104" value="P, U, I" style="rounded=0;whiteSpace=wrap;html=1;fillColor=none;fontSize=19;fontStyle=2;strokeColor=#FF0000;fontColor=#FF0000;" vertex="1" parent="1">
          <mxGeometry x="250" y="799" width="80" height="40" as="geometry" />
        </mxCell>
        <mxCell id="-L-Ys_6FJlGtnzZaTf8_-105" value="" style="endArrow=none;html=1;rounded=0;fontSize=19;endFill=0;startArrow=open;startFill=0;fontColor=#0066CC;strokeColor=#0066CC;" edge="1" parent="1">
          <mxGeometry width="50" height="50" relative="1" as="geometry">
            <mxPoint x="397.19999999999936" y="919" as="sourcePoint" />
            <mxPoint x="397.19999999999936" y="859" as="targetPoint" />
          </mxGeometry>
        </mxCell>
        <mxCell id="-L-Ys_6FJlGtnzZaTf8_-106" value="" style="endArrow=none;html=1;rounded=0;strokeWidth=3;fontColor=#0066CC;strokeColor=#0066CC;" edge="1" parent="1">
          <mxGeometry width="50" height="50" relative="1" as="geometry">
            <mxPoint x="200" y="860" as="sourcePoint" />
            <mxPoint x="415" y="859.8400000000001" as="targetPoint" />
          </mxGeometry>
        </mxCell>
        <mxCell id="-L-Ys_6FJlGtnzZaTf8_-107" value="" style="endArrow=none;html=1;rounded=0;fontSize=19;endFill=0;startArrow=open;startFill=0;fontColor=#0066CC;strokeColor=#0066CC;" edge="1" parent="1">
          <mxGeometry width="50" height="50" relative="1" as="geometry">
            <mxPoint x="330.19999999999936" y="919.9999999999998" as="sourcePoint" />
            <mxPoint x="330.19999999999936" y="859.9999999999998" as="targetPoint" />
          </mxGeometry>
        </mxCell>
        <mxCell id="-L-Ys_6FJlGtnzZaTf8_-108" value="" style="endArrow=none;html=1;rounded=0;fontSize=19;endFill=0;startArrow=open;startFill=0;fontColor=#0066CC;strokeColor=#0066CC;" edge="1" parent="1">
          <mxGeometry width="50" height="50" relative="1" as="geometry">
            <mxPoint x="366.7999999999997" y="919.9999999999998" as="sourcePoint" />
            <mxPoint x="366.7999999999997" y="859.9999999999998" as="targetPoint" />
          </mxGeometry>
        </mxCell>
        <mxCell id="-L-Ys_6FJlGtnzZaTf8_-109" value="" style="endArrow=none;html=1;rounded=0;fontSize=19;endFill=0;startArrow=open;startFill=0;fontColor=#0066CC;strokeColor=#0066CC;" edge="1" parent="1">
          <mxGeometry width="50" height="50" relative="1" as="geometry">
            <mxPoint x="294.19999999999936" y="920.9999999999998" as="sourcePoint" />
            <mxPoint x="294.19999999999936" y="860.9999999999998" as="targetPoint" />
          </mxGeometry>
        </mxCell>
        <mxCell id="-L-Ys_6FJlGtnzZaTf8_-110" value="" style="endArrow=none;html=1;rounded=0;fontSize=19;endFill=0;startArrow=open;startFill=0;fontColor=#0066CC;strokeColor=#0066CC;" edge="1" parent="1">
          <mxGeometry width="50" height="50" relative="1" as="geometry">
            <mxPoint x="256.19999999999936" y="920.9999999999998" as="sourcePoint" />
            <mxPoint x="256.19999999999936" y="860.9999999999998" as="targetPoint" />
          </mxGeometry>
        </mxCell>
        <mxCell id="-L-Ys_6FJlGtnzZaTf8_-111" value="" style="endArrow=none;html=1;rounded=0;fontSize=19;endFill=0;startArrow=open;startFill=0;fontColor=#0066CC;strokeColor=#0066CC;" edge="1" parent="1">
          <mxGeometry width="50" height="50" relative="1" as="geometry">
            <mxPoint x="216.96000000000026" y="919.9999999999998" as="sourcePoint" />
            <mxPoint x="216.96000000000026" y="859.9999999999998" as="targetPoint" />
          </mxGeometry>
        </mxCell>
        <mxCell id="-L-Ys_6FJlGtnzZaTf8_-114" value="On-premise" style="ellipse;shape=cloud;whiteSpace=wrap;html=1;labelBackgroundColor=default;fontSize=22;fontColor=#66CC00;strokeColor=#66CC00;fontStyle=1" vertex="1" parent="1">
          <mxGeometry x="510" y="444" width="228" height="120" as="geometry" />
        </mxCell>
        <mxCell id="-L-Ys_6FJlGtnzZaTf8_-115" value="" style="rounded=1;whiteSpace=wrap;html=1;dashed=1;labelBackgroundColor=default;fontSize=14;fillColor=none;" vertex="1" parent="1">
          <mxGeometry x="180" y="873.13" width="240" height="86.87" as="geometry" />
        </mxCell>
        <mxCell id="-L-Ys_6FJlGtnzZaTf8_-116" value="Активные потребители" style="text;html=1;strokeColor=none;fillColor=none;align=center;verticalAlign=middle;whiteSpace=wrap;rounded=0;dashed=1;labelBackgroundColor=default;fontSize=14;fontColor=#33001A;" vertex="1" parent="1">
          <mxGeometry x="180" y="920" width="170" height="30" as="geometry" />
        </mxCell>
        <mxCell id="-L-Ys_6FJlGtnzZaTf8_-118" value="" style="endArrow=open;html=1;rounded=0;fontSize=19;entryX=1;entryY=0.5;entryDx=0;entryDy=0;startArrow=none;startFill=0;fillColor=#fa6800;strokeColor=#FF8000;endFill=0;" edge="1" parent="1">
          <mxGeometry width="50" height="50" relative="1" as="geometry">
            <mxPoint x="350" y="839" as="sourcePoint" />
            <mxPoint x="330" y="819" as="targetPoint" />
          </mxGeometry>
        </mxCell>
        <mxCell id="-L-Ys_6FJlGtnzZaTf8_-119" value="" style="endArrow=none;html=1;rounded=0;fontSize=19;entryX=0;entryY=0;entryDx=0;entryDy=0;exitX=0.923;exitY=0.995;exitDx=0;exitDy=0;endFill=0;startArrow=open;startFill=0;fillColor=#fa6800;strokeColor=#FF8000;exitPerimeter=0;" edge="1" parent="1" source="-L-Ys_6FJlGtnzZaTf8_-103">
          <mxGeometry width="50" height="50" relative="1" as="geometry">
            <mxPoint x="240" y="757" as="sourcePoint" />
            <mxPoint x="300" y="799" as="targetPoint" />
          </mxGeometry>
        </mxCell>
        <mxCell id="-L-Ys_6FJlGtnzZaTf8_-120" value="" style="endArrow=open;html=1;rounded=0;fontSize=19;startArrow=none;startFill=0;fillColor=#fa6800;strokeColor=#FF8000;endFill=0;exitX=0.25;exitY=1;exitDx=0;exitDy=0;entryX=0.06;entryY=-0.011;entryDx=0;entryDy=0;entryPerimeter=0;" edge="1" parent="1" source="-L-Ys_6FJlGtnzZaTf8_-103" target="-L-Ys_6FJlGtnzZaTf8_-115">
          <mxGeometry width="50" height="50" relative="1" as="geometry">
            <mxPoint x="200" y="829" as="sourcePoint" />
            <mxPoint x="180" y="809" as="targetPoint" />
          </mxGeometry>
        </mxCell>
        <mxCell id="-L-Ys_6FJlGtnzZaTf8_-121" value="" style="endArrow=none;html=1;rounded=0;fontColor=#0066CC;strokeColor=#0066CC;exitX=0.5;exitY=0;exitDx=0;exitDy=0;" edge="1" parent="1" source="-L-Ys_6FJlGtnzZaTf8_-101">
          <mxGeometry width="50" height="50" relative="1" as="geometry">
            <mxPoint x="350" y="720" as="sourcePoint" />
            <mxPoint x="350" y="700" as="targetPoint" />
          </mxGeometry>
        </mxCell>
        <mxCell id="-L-Ys_6FJlGtnzZaTf8_-122" value="" style="endArrow=none;html=1;rounded=0;fontColor=#0066CC;strokeColor=#0066CC;" edge="1" parent="1">
          <mxGeometry width="50" height="50" relative="1" as="geometry">
            <mxPoint x="867.68" y="726.0000000000002" as="sourcePoint" />
            <mxPoint x="868" y="680" as="targetPoint" />
          </mxGeometry>
        </mxCell>
        <mxCell id="-L-Ys_6FJlGtnzZaTf8_-123" value="" style="endArrow=none;html=1;rounded=0;fontSize=19;strokeColor=#0066CC;" edge="1" parent="1">
          <mxGeometry width="50" height="50" relative="1" as="geometry">
            <mxPoint x="350" y="700" as="sourcePoint" />
            <mxPoint x="420" y="700" as="targetPoint" />
          </mxGeometry>
        </mxCell>
        <mxCell id="-L-Ys_6FJlGtnzZaTf8_-124" value="" style="endArrow=none;html=1;rounded=0;fontColor=#0066CC;strokeColor=#0066CC;" edge="1" parent="1">
          <mxGeometry width="50" height="50" relative="1" as="geometry">
            <mxPoint x="420" y="700" as="sourcePoint" />
            <mxPoint x="420" y="658" as="targetPoint" />
          </mxGeometry>
        </mxCell>
        <mxCell id="-L-Ys_6FJlGtnzZaTf8_-125" value="" style="endArrow=none;html=1;rounded=0;fontSize=19;strokeColor=#0066CC;" edge="1" parent="1">
          <mxGeometry width="50" height="50" relative="1" as="geometry">
            <mxPoint x="730" y="680" as="sourcePoint" />
            <mxPoint x="868" y="680" as="targetPoint" />
          </mxGeometry>
        </mxCell>
        <mxCell id="-L-Ys_6FJlGtnzZaTf8_-126" value="" style="endArrow=none;html=1;rounded=0;fontColor=#0066CC;strokeColor=#0066CC;" edge="1" parent="1">
          <mxGeometry width="50" height="50" relative="1" as="geometry">
            <mxPoint x="730" y="680" as="sourcePoint" />
            <mxPoint x="730" y="658" as="targetPoint" />
          </mxGeometry>
        </mxCell>
        <mxCell id="-L-Ys_6FJlGtnzZaTf8_-127" value="Биллинг ЭЗС" style="ellipse;shape=cloud;whiteSpace=wrap;html=1;dashed=1;labelBackgroundColor=default;fontSize=20;fontColor=#FF0000;strokeColor=#FF8000;fontStyle=1" vertex="1" parent="1">
          <mxGeometry x="943" y="438" width="228" height="132" as="geometry" />
        </mxCell>
        <mxCell id="-L-Ys_6FJlGtnzZaTf8_-131" value="" style="endArrow=none;html=1;rounded=0;fontSize=19;exitX=0.5;exitY=0;exitDx=0;exitDy=0;entryX=0.55;entryY=0.95;entryDx=0;entryDy=0;entryPerimeter=0;jumpStyle=arc;endFill=0;startArrow=open;startFill=0;strokeColor=#66CC00;" edge="1" parent="1" source="-L-Ys_6FJlGtnzZaTf8_-10" target="-L-Ys_6FJlGtnzZaTf8_-114">
          <mxGeometry width="50" height="50" relative="1" as="geometry">
            <mxPoint x="680.8299999999999" y="659.25" as="sourcePoint" />
            <mxPoint x="994.9979999999998" y="480.00199999999995" as="targetPoint" />
          </mxGeometry>
        </mxCell>
        <mxCell id="-L-Ys_6FJlGtnzZaTf8_-132" value="" style="endArrow=none;html=1;rounded=0;fontSize=19;exitX=0.5;exitY=0;exitDx=0;exitDy=0;startArrow=open;startFill=0;entryX=0.887;entryY=0.779;entryDx=0;entryDy=0;entryPerimeter=0;strokeColor=#66CC00;" edge="1" parent="1" source="-L-Ys_6FJlGtnzZaTf8_-68" target="-L-Ys_6FJlGtnzZaTf8_-114">
          <mxGeometry width="50" height="50" relative="1" as="geometry">
            <mxPoint x="230" y="724" as="sourcePoint" />
            <mxPoint x="544.1679999999999" y="544.752" as="targetPoint" />
          </mxGeometry>
        </mxCell>
        <mxCell id="-L-Ys_6FJlGtnzZaTf8_-133" value="" style="ellipse;whiteSpace=wrap;html=1;aspect=fixed;fillColor=none;fontColor=#0066CC;strokeColor=#0066CC;" vertex="1" parent="1">
          <mxGeometry x="478" y="604" width="40" height="40" as="geometry" />
        </mxCell>
        <mxCell id="-L-Ys_6FJlGtnzZaTf8_-134" value="" style="ellipse;whiteSpace=wrap;html=1;aspect=fixed;fillColor=none;fontColor=#0066CC;strokeColor=#0066CC;" vertex="1" parent="1">
          <mxGeometry x="478" y="580" width="40" height="40" as="geometry" />
        </mxCell>
        <mxCell id="-L-Ys_6FJlGtnzZaTf8_-135" value="" style="endArrow=none;html=1;rounded=0;fontColor=#0066CC;strokeColor=#0066CC;entryX=0.5;entryY=1;entryDx=0;entryDy=0;" edge="1" parent="1" target="-L-Ys_6FJlGtnzZaTf8_-133">
          <mxGeometry width="50" height="50" relative="1" as="geometry">
            <mxPoint x="498" y="658" as="sourcePoint" />
            <mxPoint x="498" y="642" as="targetPoint" />
          </mxGeometry>
        </mxCell>
        <mxCell id="-L-Ys_6FJlGtnzZaTf8_-136" value="6(10) кВ" style="text;html=1;strokeColor=none;fillColor=none;align=center;verticalAlign=middle;whiteSpace=wrap;rounded=0;dashed=1;labelBackgroundColor=default;fontSize=14;fontColor=#0066CC;" vertex="1" parent="1">
          <mxGeometry x="518" y="630" width="60" height="30" as="geometry" />
        </mxCell>
        <mxCell id="-L-Ys_6FJlGtnzZaTf8_-137" value="" style="endArrow=none;html=1;rounded=0;fontColor=#0066CC;strokeColor=#0066CC;entryX=0.5;entryY=1;entryDx=0;entryDy=0;" edge="1" parent="1">
          <mxGeometry width="50" height="50" relative="1" as="geometry">
            <mxPoint x="498" y="580" as="sourcePoint" />
            <mxPoint x="498" y="566" as="targetPoint" />
          </mxGeometry>
        </mxCell>
        <mxCell id="-L-Ys_6FJlGtnzZaTf8_-138" value="35-110 кВ" style="text;html=1;strokeColor=none;fillColor=none;align=center;verticalAlign=middle;whiteSpace=wrap;rounded=0;dashed=1;labelBackgroundColor=default;fontSize=14;fontColor=#0066CC;" vertex="1" parent="1">
          <mxGeometry x="508" y="550" width="70" height="30" as="geometry" />
        </mxCell>
        <mxCell id="-L-Ys_6FJlGtnzZaTf8_-139" value="" style="endArrow=none;html=1;rounded=0;fontColor=#0066CC;strokeColor=#0066CC;" edge="1" parent="1">
          <mxGeometry width="50" height="50" relative="1" as="geometry">
            <mxPoint x="1014.8299999999999" y="726" as="sourcePoint" />
            <mxPoint x="1014.8299999999999" y="704" as="targetPoint" />
          </mxGeometry>
        </mxCell>
        <mxCell id="-L-Ys_6FJlGtnzZaTf8_-140" value="" style="endArrow=none;html=1;rounded=0;fontSize=19;strokeColor=#0066CC;" edge="1" parent="1">
          <mxGeometry width="50" height="50" relative="1" as="geometry">
            <mxPoint x="910" y="704" as="sourcePoint" />
            <mxPoint x="1015" y="704" as="targetPoint" />
          </mxGeometry>
        </mxCell>
        <mxCell id="-L-Ys_6FJlGtnzZaTf8_-141" value="" style="endArrow=none;html=1;rounded=0;fontColor=#0066CC;strokeColor=#0066CC;" edge="1" parent="1">
          <mxGeometry width="50" height="50" relative="1" as="geometry">
            <mxPoint x="909.9999999999997" y="704.0000000000002" as="sourcePoint" />
            <mxPoint x="910.32" y="658" as="targetPoint" />
          </mxGeometry>
        </mxCell>
        <mxCell id="-L-Ys_6FJlGtnzZaTf8_-144" value="" style="shape=flexArrow;endArrow=classic;startArrow=classic;html=1;rounded=0;fontSize=14;fontColor=#FF0000;strokeColor=#66CC00;strokeWidth=1;jumpStyle=arc;" edge="1" parent="1">
          <mxGeometry width="100" height="100" relative="1" as="geometry">
            <mxPoint x="738" y="504" as="sourcePoint" />
            <mxPoint x="940" y="504" as="targetPoint" />
          </mxGeometry>
        </mxCell>
        <mxCell id="-L-Ys_6FJlGtnzZaTf8_-145" value="" style="endArrow=classic;html=1;rounded=0;fontSize=14;fontColor=#FF0000;strokeColor=#FF8000;strokeWidth=1;jumpStyle=arc;exitX=0.8;exitY=0.8;exitDx=0;exitDy=0;exitPerimeter=0;edgeStyle=orthogonalEdgeStyle;curved=1;entryX=1;entryY=0.5;entryDx=0;entryDy=0;" edge="1" parent="1" source="-L-Ys_6FJlGtnzZaTf8_-127" target="-L-Ys_6FJlGtnzZaTf8_-74">
          <mxGeometry width="50" height="50" relative="1" as="geometry">
            <mxPoint x="1040" y="700" as="sourcePoint" />
            <mxPoint x="1360" y="850" as="targetPoint" />
            <Array as="points">
              <mxPoint x="1260" y="544" />
              <mxPoint x="1260" y="903" />
            </Array>
          </mxGeometry>
        </mxCell>
        <mxCell id="-L-Ys_6FJlGtnzZaTf8_-147" value="&lt;span style=&quot;color: rgb(0, 0, 0); font-family: Helvetica; font-size: 14px; font-style: normal; font-variant-ligatures: normal; font-variant-caps: normal; letter-spacing: normal; orphans: 2; text-align: center; text-indent: 0px; text-transform: none; widows: 2; word-spacing: 0px; -webkit-text-stroke-width: 0px; background-color: rgb(255, 255, 255); text-decoration-thickness: initial; text-decoration-style: initial; text-decoration-color: initial; float: none; display: inline !important;&quot;&gt;Управление потреблением&lt;/span&gt;" style="text;whiteSpace=wrap;html=1;fontSize=14;fillColor=none;fontStyle=1" vertex="1" parent="1">
          <mxGeometry x="113" y="665" width="104" height="30" as="geometry" />
        </mxCell>
        <mxCell id="-L-Ys_6FJlGtnzZaTf8_-148" value="Управление ЭЗС" style="text;html=1;strokeColor=none;fillColor=none;align=center;verticalAlign=middle;whiteSpace=wrap;rounded=0;dashed=1;labelBackgroundColor=default;fontSize=14;fontColor=#33001A;fontStyle=1" vertex="1" parent="1">
          <mxGeometry x="1113" y="670" width="140" height="30" as="geometry" />
        </mxCell>
        <mxCell id="-L-Ys_6FJlGtnzZaTf8_-149" value="V2G" style="text;html=1;strokeColor=none;fillColor=none;align=center;verticalAlign=middle;whiteSpace=wrap;rounded=0;dashed=1;labelBackgroundColor=default;fontSize=22;fontColor=#33001A;fontStyle=1" vertex="1" parent="1">
          <mxGeometry x="1160" y="920" width="68" height="30" as="geometry" />
        </mxCell>
        <mxCell id="-L-Ys_6FJlGtnzZaTf8_-150" value="6(10) кВ" style="text;html=1;strokeColor=none;fillColor=none;align=center;verticalAlign=middle;whiteSpace=wrap;rounded=0;dashed=1;labelBackgroundColor=default;fontSize=14;fontColor=#0066CC;" vertex="1" parent="1">
          <mxGeometry x="290" y="680" width="60" height="30" as="geometry" />
        </mxCell>
        <mxCell id="-L-Ys_6FJlGtnzZaTf8_-151" value="6(10) кВ" style="text;html=1;strokeColor=none;fillColor=none;align=center;verticalAlign=middle;whiteSpace=wrap;rounded=0;dashed=1;labelBackgroundColor=default;fontSize=14;fontColor=#0066CC;" vertex="1" parent="1">
          <mxGeometry x="796" y="695" width="60" height="30" as="geometry" />
        </mxCell>
        <mxCell id="-L-Ys_6FJlGtnzZaTf8_-152" value="0,4 кВ" style="text;html=1;strokeColor=none;fillColor=none;align=center;verticalAlign=middle;whiteSpace=wrap;rounded=0;dashed=1;labelBackgroundColor=default;fontSize=14;fontColor=#0066CC;" vertex="1" parent="1">
          <mxGeometry x="350" y="824" width="60" height="30" as="geometry" />
        </mxCell>
        <mxCell id="-L-Ys_6FJlGtnzZaTf8_-153" value="Зарядные посты" style="text;html=1;strokeColor=none;fillColor=none;align=center;verticalAlign=middle;whiteSpace=wrap;rounded=0;dashed=1;labelBackgroundColor=default;fontSize=14;fontColor=#66CC00;fontStyle=1" vertex="1" parent="1">
          <mxGeometry x="1042" y="930" width="120" height="30" as="geometry" />
        </mxCell>
      </root>
    </mxGraphModel>
  </diagram>
</mxfile>
